<?xml version="1.0" encoding="UTF-8" standalone="no"?>
<!DOCTYPE svg PUBLIC "-//W3C//DTD SVG 1.1//EN" "http://www.w3.org/Graphics/SVG/1.1/DTD/svg11.dtd">
<svg width="100%" height="100%" viewBox="0 0 247 247" version="1.1" xmlns="http://www.w3.org/2000/svg" xmlns:xlink="http://www.w3.org/1999/xlink" xml:space="preserve" xmlns:serif="http://www.serif.com/" style="fill-rule:evenodd;clip-rule:evenodd;stroke-linejoin:round;stroke-miterlimit:1.41421;">
    <g transform="matrix(4.16667,0,0,4.16667,-189.35,-194.376)">
        <path d="M76.587,65.739L55.856,88.305L77.778,68.167C77.31,67.392 76.91,66.582 76.587,65.739Z" style="fill:rgb(77,78,78);fill-rule:nonzero;"/>
    </g>
    <g transform="matrix(4.16667,0,0,4.16667,-189.35,-194.376)">
        <path d="M94.215,56.99C93.379,56.154 92.024,56.154 91.189,56.99L57.015,94.19L94.215,60.017C95.051,59.181 95.051,57.826 94.215,56.99Z" style="fill:rgb(77,78,78);fill-rule:nonzero;"/>
    </g>
    <g transform="matrix(4.16667,0,0,4.16667,-189.35,-194.376)">
        <path d="M84.39,50.624C83.776,49.749 82.571,49.535 81.695,50.148L45.444,77.893L83.915,53.318C84.79,52.704 85.002,51.499 84.39,50.624Z" style="fill:rgb(77,78,78);fill-rule:nonzero;"/>
    </g>
    <g transform="matrix(4.16667,0,0,4.16667,-189.35,-194.376)">
        <path d="M100.583,50.624C96.198,46.241 89.571,45.488 84.404,48.344C84.987,48.62 85.5,49.038 85.88,49.58C87.066,51.275 86.653,53.62 84.959,54.807L77.411,59.629C77.295,62.25 77.934,64.891 79.327,67.213L89.849,55.759C90.649,54.956 91.644,54.543 92.701,54.543C93.759,54.543 94.753,54.956 95.501,55.703C97.046,57.248 97.046,59.759 95.501,61.303L83.991,71.877C86.313,73.271 88.953,73.91 91.574,73.794L96.355,66.311C97.099,65.245 98.249,64.646 99.474,64.646C100.247,64.646 100.991,64.881 101.625,65.325C102.17,65.707 102.582,66.222 102.856,66.809C105.718,61.642 104.968,55.009 100.583,50.624Z" style="fill:rgb(77,78,78);fill-rule:nonzero;"/>
    </g>
    <g transform="matrix(4.16667,0,0,4.16667,-189.35,-194.376)">
        <path d="M100.582,66.816C99.706,66.203 98.5,66.416 97.888,67.291L73.312,105.761L101.057,69.509C101.67,68.634 101.457,67.428 100.582,66.816Z" style="fill:rgb(77,78,78);fill-rule:nonzero;"/>
    </g>
</svg>
