<?xml version="1.0" encoding="UTF-8" standalone="no"?>
<!DOCTYPE svg PUBLIC "-//W3C//DTD SVG 1.1//EN" "http://www.w3.org/Graphics/SVG/1.1/DTD/svg11.dtd">
<svg width="100%" height="100%" viewBox="0 0 165 245" version="1.1" xmlns="http://www.w3.org/2000/svg" xmlns:xlink="http://www.w3.org/1999/xlink" xml:space="preserve" xmlns:serif="http://www.serif.com/" style="fill-rule:evenodd;clip-rule:evenodd;stroke-linejoin:round;stroke-miterlimit:1.41421;">
    <g transform="matrix(4.16667,0,0,4.16667,-1063.37,-1026.14)">
        <path d="M264.303,296.75C260.37,296.75 257.083,299.506 256.268,303.191C256.049,304.165 256.88,304.982 257.876,304.982L270.726,304.982C271.721,304.982 272.552,304.165 272.336,303.191C271.52,299.506 268.232,296.75 264.303,296.75Z" style="fill:rgb(77,78,78);fill-rule:nonzero;"/>
    </g>
    <g transform="matrix(4.16667,0,0,4.16667,-1063.37,-1026.14)">
        <path d="M264.303,275.663C262.268,275.663 260.621,277.313 260.621,279.345C260.621,281.377 262.268,283.024 264.303,283.024C266.333,283.024 267.979,281.376 267.979,279.342C267.979,277.309 266.333,275.663 264.303,275.663Z" style="fill:rgb(77,78,78);fill-rule:nonzero;"/>
    </g>
    <g transform="matrix(4.16667,0,0,4.16667,-1063.37,-1026.14)">
        <path d="M264.303,285.024C263.671,285.024 263.064,284.916 262.496,284.725L260.948,295.327C262.008,294.954 263.138,294.75 264.303,294.75C265.467,294.75 266.596,294.954 267.654,295.326L266.105,284.726C265.538,284.917 264.934,285.024 264.303,285.024Z" style="fill:rgb(77,78,78);fill-rule:nonzero;"/>
    </g>
    <g transform="matrix(4.16667,0,0,4.16667,-1063.37,-1026.14)">
        <path d="M281.43,262.003L284.979,257.583L284.968,257.576C286.363,258.328 288.134,258.134 289.312,256.955C290.749,255.519 290.749,253.188 289.312,251.753C287.875,250.315 285.545,250.315 284.105,251.753C282.932,252.925 282.733,254.69 283.479,256.081L279.059,259.632L281.43,262.003Z" style="fill:rgb(77,78,78);fill-rule:nonzero;"/>
    </g>
    <g transform="matrix(4.16667,0,0,4.16667,-1063.37,-1026.14)">
        <path d="M294.266,277.667L263.394,246.796C262.69,246.092 261.543,246.089 260.893,246.843C253.733,255.168 253.346,267.289 259.683,276.05C260.715,274.607 262.398,273.663 264.303,273.663C267.433,273.663 269.979,276.211 269.979,279.342C269.979,280.915 269.337,282.341 268.301,283.371C276.632,287.522 286.896,286.47 294.222,280.169C294.975,279.522 294.972,278.372 294.266,277.667Z" style="fill:rgb(77,78,78);fill-rule:nonzero;"/>
    </g>
</svg>
