<?xml version="1.0" encoding="UTF-8" standalone="no"?>
<!DOCTYPE svg PUBLIC "-//W3C//DTD SVG 1.1//EN" "http://www.w3.org/Graphics/SVG/1.1/DTD/svg11.dtd">
<svg width="100%" height="100%" viewBox="0 0 177 231" version="1.1" xmlns="http://www.w3.org/2000/svg" xmlns:xlink="http://www.w3.org/1999/xlink" xml:space="preserve" xmlns:serif="http://www.serif.com/" style="fill-rule:evenodd;clip-rule:evenodd;stroke-linejoin:round;stroke-miterlimit:1.41421;">
    <g transform="matrix(4.16667,0,0,4.16667,-1474.35,-1040.2)">
        <path d="M395.151,301.275L390.867,299.773C388.626,300.118 385.911,300.322 382.979,300.322C380.049,300.322 377.333,300.118 375.092,299.773L370.808,301.275C369.858,301.608 369.386,302.691 370.285,303.142C372.452,304.226 377.321,304.982 382.979,304.982C388.64,304.982 393.507,304.226 395.674,303.142C396.575,302.691 396.103,301.608 395.151,301.275Z" style="fill:rgb(77,78,78);fill-rule:nonzero;"/>
    </g>
    <g transform="matrix(4.16667,0,0,4.16667,-1474.35,-1040.2)">
        <path d="M380.325,297.938C380.777,298.164 381.795,298.322 382.978,298.322C384.161,298.322 385.177,298.164 385.631,297.938L385.636,297.938L385.636,278.499C383.986,281.189 382.192,283.632 380.325,285.744L380.325,297.938Z" style="fill:rgb(77,78,78);fill-rule:nonzero;"/>
    </g>
    <g transform="matrix(4.16667,0,0,4.16667,-1474.35,-1040.2)">
        <path d="M377.707,272.152C371.817,282.356 366.75,287.96 364.542,289.501C364.772,286.819 367.093,279.628 372.983,269.425C378.873,259.225 383.94,253.62 386.148,252.078C385.918,254.761 383.598,261.953 377.707,272.152ZM387.473,249.783C387.316,249.692 387.136,249.648 386.933,249.648C384.209,249.649 377.486,257.627 371.251,268.425C367.284,275.297 364.418,281.752 363.199,286.158L357.303,269.923L357.358,269.923L357.355,269.915C357.515,270.271 357.726,270.493 357.962,270.492L360.413,270.493C360.907,270.491 361.308,269.535 361.308,268.355C361.308,267.175 360.91,266.217 360.417,266.216L357.96,266.217C357.727,266.218 357.517,266.437 357.357,266.787L357.358,266.785L354.5,266.786C354.139,266.786 353.845,267.489 353.845,268.354C353.847,269.218 354.139,269.921 354.502,269.92L355.368,269.921L362.56,289.719C362.528,290.778 362.728,291.512 363.218,291.795C368.383,294.776 377.996,287.788 384.695,276.187C391.393,264.585 392.638,252.766 387.473,249.783Z" style="fill:rgb(77,78,78);fill-rule:nonzero;"/>
    </g>
</svg>
