<?xml version="1.0" encoding="UTF-8" standalone="no"?>
<!DOCTYPE svg PUBLIC "-//W3C//DTD SVG 1.1//EN" "http://www.w3.org/Graphics/SVG/1.1/DTD/svg11.dtd">
<svg width="100%" height="100%" viewBox="0 0 125 212" version="1.1" xmlns="http://www.w3.org/2000/svg" xmlns:xlink="http://www.w3.org/1999/xlink" xml:space="preserve" xmlns:serif="http://www.serif.com/" style="fill-rule:evenodd;clip-rule:evenodd;stroke-linejoin:round;stroke-miterlimit:1.41421;">
    <g transform="matrix(4.16667,0,0,4.16667,-250.387,-1465.66)">
        <path d="M67.001,374.869C66.905,374.869 66.807,374.846 66.717,374.793C62.631,372.428 60.093,368.031 60.093,363.316C60.093,358.596 62.634,354.197 66.722,351.834C66.995,351.678 67.341,351.772 67.498,352.043C67.655,352.315 67.562,352.66 67.29,352.818C63.552,354.979 61.229,359 61.229,363.316C61.229,367.627 63.55,371.648 67.287,373.811C67.558,373.969 67.65,374.316 67.494,374.586C67.388,374.77 67.197,374.869 67.001,374.869Z" style="fill:rgb(77,78,78);fill-rule:nonzero;"/>
    </g>
    <g transform="matrix(4.16667,0,0,4.16667,-250.387,-1465.66)">
        <path d="M68.141,372.9C68.044,372.9 67.946,372.877 67.856,372.824C64.47,370.861 62.365,367.217 62.364,363.316C62.365,359.414 64.468,355.77 67.855,353.809C68.126,353.648 68.473,353.742 68.63,354.014C68.788,354.285 68.695,354.633 68.423,354.789C65.387,356.551 63.501,359.816 63.5,363.316C63.501,366.813 65.388,370.08 68.426,371.842C68.697,372 68.79,372.346 68.632,372.617C68.527,372.801 68.336,372.9 68.141,372.9Z" style="fill:rgb(77,78,78);fill-rule:nonzero;"/>
    </g>
    <g transform="matrix(4.16667,0,0,4.16667,-250.387,-1465.66)">
        <path d="M69.274,370.934C69.178,370.934 69.08,370.91 68.991,370.857C66.305,369.299 64.636,366.41 64.635,363.316C64.635,360.221 66.304,357.332 68.99,355.775C69.261,355.615 69.609,355.711 69.766,355.981C69.923,356.252 69.831,356.6 69.559,356.758C67.222,358.111 65.771,360.625 65.771,363.316C65.772,366.006 67.224,368.52 69.56,369.875C69.832,370.033 69.924,370.381 69.766,370.65C69.661,370.834 69.471,370.934 69.274,370.934Z" style="fill:rgb(77,78,78);fill-rule:nonzero;"/>
    </g>
    <g transform="matrix(4.16667,0,0,4.16667,-250.387,-1465.66)">
        <path d="M70.411,368.969C70.314,368.969 70.216,368.943 70.127,368.891C68.141,367.738 66.906,365.604 66.906,363.316C66.906,361.027 68.14,358.893 70.126,357.742C70.397,357.582 70.745,357.676 70.901,357.947C71.059,358.219 70.966,358.566 70.695,358.723C69.059,359.672 68.042,361.432 68.042,363.316C68.042,365.199 69.06,366.959 70.696,367.908C70.968,368.066 71.06,368.414 70.903,368.686C70.797,368.867 70.607,368.969 70.411,368.969Z" style="fill:rgb(77,78,78);fill-rule:nonzero;"/>
    </g>
    <g transform="matrix(4.16667,0,0,4.16667,-250.387,-1465.66)">
        <path d="M82.999,374.869C82.803,374.869 82.612,374.77 82.506,374.586C82.35,374.316 82.442,373.969 82.713,373.811C86.45,371.648 88.772,367.627 88.772,363.316C88.771,359 86.448,354.979 82.71,352.818C82.438,352.66 82.345,352.315 82.502,352.043C82.658,351.772 83.005,351.678 83.278,351.834C87.366,354.197 89.907,358.596 89.907,363.316C89.907,368.031 87.369,372.428 83.283,374.793C83.193,374.846 83.095,374.869 82.999,374.869Z" style="fill:rgb(77,78,78);fill-rule:nonzero;"/>
    </g>
    <g transform="matrix(4.16667,0,0,4.16667,-250.387,-1465.66)">
        <path d="M81.859,372.9C81.664,372.9 81.473,372.801 81.368,372.617C81.21,372.346 81.303,372 81.574,371.842C84.612,370.08 86.5,366.813 86.501,363.316C86.5,359.816 84.613,356.551 81.577,354.789C81.305,354.633 81.213,354.285 81.37,354.014C81.527,353.744 81.875,353.648 82.146,353.809C85.532,355.77 87.635,359.414 87.636,363.316C87.635,367.217 85.53,370.861 82.144,372.824C82.054,372.877 81.956,372.9 81.859,372.9Z" style="fill:rgb(77,78,78);fill-rule:nonzero;"/>
    </g>
    <g transform="matrix(4.16667,0,0,4.16667,-250.387,-1465.66)">
        <path d="M80.726,370.934C80.529,370.934 80.339,370.834 80.234,370.65C80.076,370.381 80.169,370.033 80.44,369.875C82.776,368.52 84.229,366.006 84.229,363.316C84.229,360.625 82.778,358.111 80.441,356.758C80.169,356.6 80.077,356.252 80.234,355.981C80.391,355.711 80.739,355.615 81.01,355.775C83.696,357.332 85.365,360.221 85.365,363.316C85.364,366.41 83.695,369.299 81.009,370.857C80.92,370.91 80.822,370.934 80.726,370.934Z" style="fill:rgb(77,78,78);fill-rule:nonzero;"/>
    </g>
    <g transform="matrix(4.16667,0,0,4.16667,-250.387,-1465.66)">
        <path d="M79.589,368.969C79.393,368.969 79.203,368.867 79.097,368.686C78.94,368.414 79.032,368.066 79.304,367.908C80.94,366.959 81.958,365.199 81.958,363.316C81.958,361.432 80.941,359.672 79.305,358.723C79.034,358.566 78.941,358.219 79.099,357.947C79.256,357.676 79.603,357.582 79.875,357.742C81.86,358.893 83.094,361.027 83.094,363.316C83.094,365.604 81.859,367.738 79.873,368.891C79.784,368.943 79.685,368.969 79.589,368.969Z" style="fill:rgb(77,78,78);fill-rule:nonzero;"/>
    </g>
    <g transform="matrix(4.16667,0,0,4.16667,-250.387,-1465.66)">
        <path d="M76.136,394.922L76.136,391.178C76.762,390.197 78.189,388.672 80.947,388.693C81.621,389.768 82.343,390.805 83.105,391.807C79.711,391.914 77.495,393.439 76.136,394.922ZM66.896,391.807C67.657,390.805 68.379,389.768 69.053,388.693C71.796,388.666 73.227,390.164 73.864,391.147L73.864,394.9C72.502,393.42 70.285,391.908 66.896,391.807ZM76.136,385.229C76.52,384.713 77.204,384.076 78.328,383.857C78.862,385.004 79.439,386.125 80.062,387.211C78.307,387.385 77.032,388.102 76.136,388.902L76.136,385.229ZM73.864,383.149C73.422,382.85 72.907,382.598 72.302,382.441C72.887,381.065 73.409,379.652 73.864,378.207L73.864,383.149ZM76.136,378.207C76.591,379.654 77.114,381.068 77.7,382.445C77.093,382.606 76.579,382.861 76.136,383.162L76.136,378.207ZM71.674,383.852C72.792,384.065 73.476,384.686 73.864,385.199L73.864,388.885C72.964,388.088 71.69,387.379 69.94,387.209C70.563,386.121 71.141,385 71.674,383.852ZM87.655,393.039C87.477,393.039 87.306,393.066 87.139,393.106C84.31,390.014 81.971,386.422 80.189,382.488L80.211,382.344L80.125,382.336C77.938,377.455 76.611,372.053 76.249,366.436C77.489,365.94 78.368,364.73 78.368,363.314C78.368,361.455 76.859,359.947 75,359.947C73.141,359.947 71.632,361.455 71.632,363.314C71.632,364.73 72.511,365.94 73.752,366.436C73.389,372.055 72.063,377.457 69.874,382.338L69.809,382.344L69.825,382.453C68.042,386.4 65.698,390.004 62.861,393.106C62.694,393.066 62.524,393.039 62.345,393.039C61.107,393.039 60.103,394.045 60.103,395.283C60.103,396.522 61.107,397.525 62.345,397.525C63.584,397.525 64.588,396.522 64.588,395.283C64.588,395.072 64.55,394.873 64.496,394.68C64.893,394.248 65.278,393.807 65.656,393.356C70.646,392.982 72.991,395.867 73.864,397.387L73.864,398.252C73.204,398.643 72.757,399.354 72.757,400.176C72.757,401.414 73.761,402.418 75,402.418C76.238,402.418 77.243,401.414 77.243,400.176C77.243,399.354 76.795,398.643 76.136,398.252L76.136,397.414C76.987,395.902 79.31,392.982 84.342,393.354C84.72,393.805 85.107,394.248 85.504,394.68C85.45,394.873 85.412,395.072 85.412,395.283C85.412,396.522 86.416,397.525 87.655,397.525C88.893,397.525 89.897,396.522 89.897,395.283C89.897,394.045 88.893,393.039 87.655,393.039Z" style="fill:rgb(77,78,78);fill-rule:nonzero;"/>
    </g>
</svg>
