<?xml version="1.0" encoding="UTF-8" standalone="no"?>
<!DOCTYPE svg PUBLIC "-//W3C//DTD SVG 1.1//EN" "http://www.w3.org/Graphics/SVG/1.1/DTD/svg11.dtd">
<svg width="100%" height="100%" viewBox="0 0 213 189" version="1.1" xmlns="http://www.w3.org/2000/svg" xmlns:xlink="http://www.w3.org/1999/xlink" xml:space="preserve" xmlns:serif="http://www.serif.com/" style="fill-rule:evenodd;clip-rule:evenodd;stroke-linejoin:round;stroke-miterlimit:1.41421;">
    <g transform="matrix(4.16667,0,0,4.16667,-1456.01,-1488.39)">
        <path d="M353.221,401.246C353.221,401.893 353.744,402.418 354.393,402.418L360.713,402.418C361.359,402.418 361.885,401.893 361.885,401.246L361.885,399.84L353.221,399.84L353.221,401.246Z" style="fill:rgb(77,78,78);fill-rule:nonzero;"/>
    </g>
    <g transform="matrix(4.16667,0,0,4.16667,-1456.01,-1488.39)">
        <path d="M388.115,401.246C388.115,401.893 388.641,402.418 389.289,402.418L395.607,402.418C396.254,402.418 396.781,401.893 396.781,401.246L396.781,399.84L388.115,399.84L388.115,401.246Z" style="fill:rgb(77,78,78);fill-rule:nonzero;"/>
    </g>
    <g transform="matrix(4.16667,0,0,4.16667,-1456.01,-1488.39)">
        <path d="M391.773,390.459C390.848,390.459 390.098,389.709 390.098,388.783C390.098,387.859 390.848,387.109 391.773,387.109C392.697,387.109 393.447,387.859 393.447,388.783C393.447,389.709 392.697,390.459 391.773,390.459ZM385.063,390.459C384.139,390.459 383.389,389.709 383.389,388.783C383.389,387.859 384.139,387.109 385.063,387.109C385.988,387.109 386.738,387.859 386.738,388.783C386.738,389.709 385.988,390.459 385.063,390.459ZM378.354,390.459C377.43,390.459 376.68,389.709 376.68,388.783C376.68,387.859 377.43,387.109 378.354,387.109C379.279,387.109 380.029,387.859 380.029,388.783C380.029,389.709 379.279,390.459 378.354,390.459ZM371.645,390.459C370.721,390.459 369.971,389.709 369.971,388.783C369.971,387.859 370.721,387.109 371.645,387.109C372.57,387.109 373.32,387.859 373.32,388.783C373.32,389.709 372.57,390.459 371.645,390.459ZM364.936,390.459C364.012,390.459 363.26,389.709 363.26,388.783C363.26,387.859 364.012,387.109 364.936,387.109C365.861,387.109 366.611,387.859 366.611,388.783C366.611,389.709 365.861,390.459 364.936,390.459ZM358.227,390.459C357.303,390.459 356.553,389.709 356.553,388.783C356.553,387.859 357.303,387.109 358.227,387.109C359.152,387.109 359.902,387.859 359.902,388.783C359.902,389.709 359.152,390.459 358.227,390.459ZM398.057,379.545L351.943,379.545C350.563,379.545 349.443,380.666 349.443,382.045L349.443,395.522C349.443,396.902 350.563,398.022 351.943,398.022L398.057,398.022C399.436,398.022 400.557,396.902 400.557,395.522L400.557,382.045C400.557,380.666 399.436,379.545 398.057,379.545Z" style="fill:rgb(77,78,78);fill-rule:nonzero;"/>
    </g>
    <g transform="matrix(4.16667,0,0,4.16667,-1456.01,-1488.39)">
        <path d="M391.896,361.582L391.932,361.594L391.896,361.582ZM393,361.582L392.965,361.594L393,361.582ZM391.441,361.408L391.066,377.727L393.828,377.727L393.455,361.408C394.174,361.039 394.672,360.299 394.672,359.438C394.672,358.209 393.676,357.213 392.447,357.213C391.221,357.213 390.225,358.209 390.225,359.438C390.225,360.299 390.723,361.039 391.441,361.408Z" style="fill:rgb(77,78,78);fill-rule:nonzero;"/>
    </g>
</svg>
