<?xml version="1.0" encoding="UTF-8" standalone="no"?>
<!DOCTYPE svg PUBLIC "-//W3C//DTD SVG 1.1//EN" "http://www.w3.org/Graphics/SVG/1.1/DTD/svg11.dtd">
<svg width="100%" height="100%" viewBox="0 0 244 244" version="1.1" xmlns="http://www.w3.org/2000/svg" xmlns:xlink="http://www.w3.org/1999/xlink" xml:space="preserve" xmlns:serif="http://www.serif.com/" style="fill-rule:evenodd;clip-rule:evenodd;stroke-linejoin:round;stroke-miterlimit:1.41421;">
    <g transform="matrix(4.16667,0,0,4.16667,-1024.09,-197.181)">
        <path d="M286.172,63.037C286.117,63.142 286.303,63.749 287.047,64.494C287.793,65.24 288.4,65.424 288.496,65.376L288.498,65.363L288.504,65.369L291.158,61.277C291.477,61.322 291.811,61.239 292.057,60.993C292.475,60.576 292.475,59.901 292.059,59.484C291.641,59.067 290.965,59.067 290.549,59.484C290.303,59.73 290.219,60.063 290.264,60.383L286.172,63.037Z" style="fill:rgb(77,78,78);fill-rule:nonzero;"/>
    </g>
    <g transform="matrix(4.16667,0,0,4.16667,-1024.09,-197.181)">
        <path d="M258.98,74.642L260.743,76.406L259.32,77.831L257.557,76.067L258.98,74.642ZM255.488,74L256.914,72.575L258.338,74L256.914,75.424L255.488,74ZM253.42,71.931L254.846,70.507L256.269,71.932L254.846,73.356L253.42,71.931ZM251.354,69.864L252.777,68.439L254.203,69.864L252.777,71.289L251.354,69.864ZM249.285,67.795L250.709,66.372L252.135,67.796L250.709,69.22L249.285,67.795ZM246.879,65.389L248.303,63.964L250.066,65.728L248.643,67.153L246.879,65.389ZM250.371,61.897L252.135,63.66L250.709,65.085L248.945,63.322L250.371,61.897ZM252.438,59.829L254.203,61.592L252.777,63.017L251.014,61.253L252.438,59.829ZM254.506,57.761L256.269,59.525L254.846,60.95L253.082,59.186L254.506,57.761ZM258.338,61.592L256.911,63.017L255.488,61.592L256.914,60.167L258.338,61.592ZM260.406,63.661L258.98,65.085L257.557,63.66L258.98,62.235L260.406,63.661ZM262.475,65.728L261.049,67.153L259.625,65.728L261.049,64.303L262.475,65.728ZM264.541,67.795L263.115,69.22L261.691,67.796L263.117,66.372L264.541,67.795ZM266.947,70.203L265.523,71.627L263.76,69.864L265.184,68.439L266.947,70.203ZM263.455,73.695L261.691,71.931L263.115,70.506L264.881,72.271L263.455,73.695ZM258.98,70.506L260.406,71.931L258.98,73.356L257.557,71.932L258.98,70.506ZM256.914,68.439L258.338,69.864L256.914,71.289L255.488,69.864L256.914,68.439ZM254.846,66.371L256.269,67.796L254.846,69.221L253.42,67.795L254.846,66.371ZM254.203,65.728L252.777,67.153L251.354,65.728L252.777,64.303L254.203,65.728ZM254.846,65.084L253.42,63.66L254.846,62.236L256.269,63.66L254.846,65.084ZM256.914,67.153L255.488,65.728L256.911,64.303L258.338,65.728L256.914,67.153ZM261.049,68.439L262.473,69.864L261.049,71.289L259.625,69.864L261.049,68.439ZM258.98,69.22L257.557,67.796L258.98,66.372L260.406,67.796L258.98,69.22ZM261.387,75.763L259.625,74L261.049,72.575L262.813,74.338L261.387,75.763ZM259.32,78.928C259.441,78.928 259.557,78.88 259.64,78.795L267.133,71.303L267.912,70.524C267.998,70.439 268.047,70.323 268.047,70.203C268.047,70.082 267.998,69.966 267.912,69.88L254.828,56.796C254.658,56.625 254.355,56.625 254.186,56.796L245.914,65.068C245.736,65.245 245.736,65.533 245.914,65.71L258.997,78.795C259.084,78.88 259.199,78.928 259.32,78.928Z" style="fill:rgb(77,78,78);fill-rule:nonzero;"/>
    </g>
    <g transform="matrix(4.16667,0,0,4.16667,-1024.09,-197.181)">
        <path d="M301.695,89.119L299.932,87.355L301.355,85.931L303.121,87.695L301.695,89.119ZM299.627,91.187L297.863,89.423L299.289,87.999L301.053,89.762L299.627,91.187ZM297.561,93.254L295.797,91.491L297.221,90.067L298.984,91.831L297.561,93.254ZM295.492,95.323L293.729,93.559L295.154,92.134L296.916,93.898L295.492,95.323ZM291.66,91.492L293.086,90.067L294.51,91.491L293.086,92.917L291.66,91.492ZM289.594,89.423L291.018,87.999L292.443,89.423L291.018,90.848L289.594,89.423ZM287.525,87.356L288.949,85.931L290.375,87.356L288.949,88.781L287.525,87.356ZM285.457,85.287L286.881,83.863L288.307,85.288L286.883,86.712L285.457,85.287ZM283.051,82.881L284.477,81.457L286.238,83.219L284.813,84.644L283.051,82.881ZM286.543,79.389L288.307,81.152L286.881,82.576L285.119,80.814L286.543,79.389ZM288.611,77.321L290.373,79.084L288.949,80.508L287.188,78.746L288.611,77.321ZM290.68,75.253L292.441,77.016L291.018,78.441L289.254,76.678L290.68,75.253ZM294.51,79.084L293.086,80.509L291.66,79.084L293.084,77.659L294.51,79.084ZM296.578,81.152L295.154,82.577L293.729,81.152L295.154,79.728L296.578,81.152ZM298.646,83.22L297.221,84.645L295.797,83.22L297.221,81.795L298.646,83.22ZM295.797,87.356L297.221,85.931L298.646,87.355L297.221,88.781L295.797,87.356ZM295.154,87.999L296.578,89.423L295.154,90.848L293.729,89.423L295.154,87.999ZM293.086,85.931L294.51,87.356L293.086,88.781L291.66,87.356L293.086,85.931ZM291.018,83.863L292.443,85.288L291.018,86.712L289.594,85.288L291.018,83.863ZM290.375,83.22L288.949,84.645L287.523,83.219L288.949,81.794L290.375,83.22ZM291.018,82.577L289.592,81.152L291.018,79.727L292.443,81.152L291.018,82.577ZM295.154,83.863L296.578,85.288L295.154,86.712L293.729,85.288L295.154,83.863ZM293.086,84.645L291.66,83.22L293.086,81.795L294.51,83.22L293.086,84.645ZM300.713,85.288L299.289,86.712L297.865,85.288L299.289,83.863L300.713,85.288ZM304.084,87.374L291,74.289C290.83,74.119 290.529,74.119 290.357,74.289L284.686,79.961L283.045,79.961L281.225,81.781L282.867,81.781L282.086,82.56C281.908,82.738 281.908,83.026 282.086,83.204L295.17,96.288C295.26,96.376 295.375,96.42 295.492,96.42C295.607,96.42 295.725,96.376 295.814,96.288L304.084,88.016C304.17,87.931 304.219,87.816 304.219,87.695C304.219,87.574 304.17,87.459 304.084,87.374Z" style="fill:rgb(77,78,78);fill-rule:nonzero;"/>
    </g>
    <g transform="matrix(4.16667,0,0,4.16667,-1024.09,-197.181)">
        <path d="M292.355,98.46L290.592,96.696L292.016,95.271L293.781,97.035L292.355,98.46ZM290.287,100.527L288.523,98.763L289.949,97.338L291.713,99.102L290.287,100.527ZM288.221,102.595L286.455,100.83L287.881,99.407L289.644,101.17L288.221,102.595ZM286.152,104.662L284.389,102.898L285.812,101.474L287.576,103.237L286.152,104.662ZM282.32,100.831L283.746,99.407L285.17,100.83L283.744,102.255L282.32,100.831ZM280.254,98.763L281.678,97.339L283.103,98.764L281.678,100.188L280.254,98.763ZM278.186,96.696L279.609,95.271L281.035,96.696L279.609,98.121L278.186,96.696ZM276.117,94.627L277.541,93.203L278.967,94.628L277.543,96.053L276.117,94.627ZM273.711,92.221L275.135,90.797L276.898,92.56L275.473,93.984L273.711,92.221ZM277.203,88.729L278.967,90.492L277.541,91.917L275.777,90.154L277.203,88.729ZM279.271,86.662L281.033,88.424L279.609,89.848L277.848,88.086L279.271,86.662ZM281.34,84.593L283.102,86.356L281.678,87.781L279.914,86.019L281.34,84.593ZM285.17,88.425L283.746,89.849L282.32,88.424L283.744,86.999L285.17,88.425ZM287.238,90.493L285.814,91.918L284.389,90.493L285.814,89.068L287.238,90.493ZM289.307,92.56L287.881,93.985L286.457,92.56L287.881,91.135L289.307,92.56ZM286.457,96.696L287.881,95.271L289.305,96.696L287.881,98.12L286.457,96.696ZM285.814,97.339L287.238,98.763L285.812,100.188L284.389,98.764L285.814,97.339ZM283.746,95.271L285.17,96.696L283.746,98.121L282.32,96.696L283.746,95.271ZM281.678,93.204L283.103,94.628L281.678,96.053L280.254,94.628L281.678,93.204ZM281.035,92.56L279.609,93.985L278.184,92.56L279.609,91.134L281.035,92.56ZM281.678,91.918L280.252,90.492L281.678,89.067L283.103,90.493L281.678,91.918ZM285.814,93.204L287.238,94.628L285.814,96.052L284.389,94.628L285.814,93.204ZM283.746,93.985L282.32,92.56L283.746,91.136L285.17,92.56L283.746,93.985ZM291.373,94.627L289.949,96.052L288.525,94.628L289.949,93.204L291.373,94.627ZM281.66,83.628C281.49,83.459 281.188,83.459 281.018,83.628L280.238,84.408L280.238,82.766L278.418,84.586L278.418,86.227L279.33,85.318L272.746,91.9C272.568,92.078 272.568,92.366 272.746,92.543L285.83,105.627C285.916,105.712 286.031,105.761 286.152,105.761C286.273,105.761 286.389,105.712 286.473,105.627L294.744,97.356C294.922,97.178 294.922,96.891 294.744,96.713L281.66,83.628Z" style="fill:rgb(77,78,78);fill-rule:nonzero;"/>
    </g>
    <g transform="matrix(4.16667,0,0,4.16667,-1024.09,-197.181)">
        <path d="M266.955,73.123L268.775,71.303L267.133,71.303L265.314,73.123L266.955,73.123Z" style="fill:rgb(77,78,78);fill-rule:nonzero;"/>
    </g>
    <g transform="matrix(4.16667,0,0,4.16667,-1024.09,-197.181)">
        <path d="M257.644,54.624L259.406,56.388L257.982,57.813L256.219,56.049L257.644,54.624ZM259.711,52.556L261.475,54.32L260.051,55.745L258.286,53.981L259.711,52.556ZM261.778,50.488L263.543,52.252L262.117,53.677L260.354,51.914L261.778,50.488ZM263.846,48.421L265.609,50.185L264.186,51.609L262.422,49.845L263.846,48.421ZM267.678,52.252L266.254,53.677L264.828,52.252L266.254,50.828L267.678,52.252ZM269.746,54.321L268.32,55.745L266.896,54.32L268.32,52.896L269.746,54.321ZM271.814,56.388L270.389,57.813L268.965,56.388L270.389,54.963L271.814,56.388ZM273.881,58.457L272.457,59.88L271.031,58.456L272.457,57.032L273.881,58.457ZM276.287,60.863L274.863,62.288L273.1,60.524L274.525,59.099L276.287,60.863ZM272.795,64.355L271.031,62.591L272.457,61.167L274.221,62.93L272.795,64.355ZM270.729,66.423L268.965,64.66L270.389,63.235L272.152,64.999L270.729,66.423ZM268.66,68.491L266.896,66.727L268.32,65.302L270.084,67.066L268.66,68.491ZM264.828,64.66L266.254,63.235L267.678,64.66L266.254,66.084L264.828,64.66ZM262.762,62.591L264.186,61.167L265.609,62.591L264.186,64.016L262.762,62.591ZM260.693,60.524L262.117,59.099L263.543,60.524L262.117,61.949L260.693,60.524ZM263.543,56.388L262.117,57.813L260.693,56.388L262.117,54.963L263.543,56.388ZM264.186,55.745L262.762,54.32L264.186,52.895L265.609,54.32L264.186,55.745ZM266.254,57.813L264.828,56.388L266.254,54.963L267.678,56.388L266.254,57.813ZM268.32,59.88L266.896,58.457L268.32,57.031L269.746,58.456L268.32,59.88ZM268.965,60.524L270.389,59.099L271.814,60.524L270.389,61.949L268.965,60.524ZM268.32,61.167L269.746,62.591L268.32,64.016L266.896,62.591L268.32,61.167ZM264.186,59.88L262.762,58.456L264.186,57.031L265.609,58.457L264.186,59.88ZM266.254,59.099L267.678,60.524L266.254,61.949L264.828,60.524L266.254,59.099ZM258.625,58.456L260.051,57.031L261.475,58.456L260.051,59.88L258.625,58.456ZM268.338,69.456C268.424,69.541 268.539,69.588 268.66,69.588C268.781,69.588 268.896,69.541 268.98,69.456L269.76,68.676L269.76,70.318L271.58,68.499L271.58,66.857L277.252,61.184C277.338,61.099 277.387,60.983 277.387,60.863C277.387,60.742 277.338,60.626 277.252,60.541L264.168,47.457C263.99,47.279 263.703,47.279 263.525,47.457L255.254,55.727C255.168,55.813 255.119,55.928 255.119,56.049C255.119,56.169 255.168,56.286 255.254,56.371L268.338,69.456Z" style="fill:rgb(77,78,78);fill-rule:nonzero;"/>
    </g>
    <g transform="matrix(4.16667,0,0,4.16667,-1024.09,-197.181)">
        <path d="M289.355,71.06L289.35,71.083C288.998,71.244 286.74,70.48 283.9,67.641C281.102,64.842 280.322,62.612 280.48,62.186L280.473,62.178L259.6,83.051L259.607,83.06C259.426,83.509 260.148,85.795 262.949,88.594C265.787,91.434 268.104,92.139 268.475,91.958L268.482,91.934L268.49,91.943L289.363,71.069L289.355,71.06Z" style="fill:rgb(77,78,78);fill-rule:nonzero;"/>
    </g>
    <g transform="matrix(4.16667,0,0,4.16667,-1024.09,-197.181)">
        <path d="M292.932,70.649C293.836,69.745 292.998,67.365 291.043,64.797L290.695,65.334C292.268,67.477 292.676,69.053 292.494,69.399C292.061,69.61 289.363,68.789 286.059,65.483C282.752,62.177 281.93,59.479 282.176,59.013C282.498,58.857 284.066,59.271 286.207,60.846L286.744,60.499C284.176,58.542 281.797,57.705 280.893,58.61C279.721,59.783 281.463,63.427 284.789,66.752C288.113,70.077 291.76,71.821 292.932,70.649Z" style="fill:rgb(77,78,78);fill-rule:nonzero;"/>
    </g>
    <g transform="matrix(4.16667,0,0,4.16667,-1024.09,-197.181)">
        <path d="M267.064,97.058L267.07,97.054L267.066,97.051L267.064,97.058Z" style="fill:rgb(77,78,78);fill-rule:nonzero;"/>
    </g>
    <g transform="matrix(4.16667,0,0,4.16667,-1024.09,-197.181)">
        <path d="M259.225,92.318C255.258,88.351 254.232,85.111 254.49,84.474L254.488,84.472L251.094,87.865L251.105,87.876C250.848,88.511 251.873,91.747 255.834,95.709C259.851,99.726 263.131,100.725 263.656,100.467L263.666,100.435L263.676,100.447L267.033,97.09C266.449,97.315 263.201,96.295 259.225,92.318Z" style="fill:rgb(77,78,78);fill-rule:nonzero;"/>
    </g>
    <g transform="matrix(4.16667,0,0,4.16667,-1024.09,-197.181)">
        <path d="M267.58,92.852L267.572,92.844L267.564,92.868C267.193,93.048 264.879,92.344 262.039,89.504C259.239,86.706 258.515,84.418 258.696,83.97L258.689,83.96C258.689,83.96 255.574,83.453 255.408,83.533L255.398,83.563L255.396,83.563L255.398,83.564C255.141,84.202 256.168,87.442 260.135,91.409C264.158,95.433 267.441,96.432 267.967,96.175L267.977,96.142L267.979,96.144L267.977,96.137C268.051,95.952 267.58,92.852 267.58,92.852Z" style="fill:rgb(77,78,78);fill-rule:nonzero;"/>
    </g>
</svg>
