<?xml version="1.0" encoding="UTF-8" standalone="no"?>
<!DOCTYPE svg PUBLIC "-//W3C//DTD SVG 1.1//EN" "http://www.w3.org/Graphics/SVG/1.1/DTD/svg11.dtd">
<svg width="100%" height="100%" viewBox="0 0 194 194" version="1.1" xmlns="http://www.w3.org/2000/svg" xmlns:xlink="http://www.w3.org/1999/xlink" xml:space="preserve" xmlns:serif="http://www.serif.com/" style="fill-rule:evenodd;clip-rule:evenodd;stroke-linejoin:round;stroke-miterlimit:1.41421;">
    <g transform="matrix(4.16667,0,0,4.16667,-215.55,-650.792)">
        <path d="M54.314,174.714C56.588,172.441 59.199,170.633 62.03,169.318C62.022,169.229 62.003,169.143 62.003,169.052C62.003,167.407 63.336,166.074 64.981,166.074L65.246,166.101C66.564,163.268 68.373,160.655 70.648,158.38C71.414,157.615 72.221,156.908 73.057,156.248C61.679,157.179 52.622,166.284 51.767,177.684C52.535,176.649 53.376,175.652 54.314,174.714Z" style="fill:rgb(77,78,78);fill-rule:nonzero;"/>
    </g>
    <g transform="matrix(4.16667,0,0,4.16667,-215.55,-650.792)">
        <path d="M83.754,171.923C83.712,171.723 83.688,171.517 83.688,171.304C83.688,171.115 83.709,170.93 83.743,170.751C80.524,169.297 77.009,168.522 73.371,168.522C71.525,168.522 69.713,168.734 67.951,169.12C67.915,170.711 66.636,171.989 65.045,172.024C64.656,173.794 64.441,175.615 64.441,177.472C64.441,182.788 66.093,187.839 69.113,192.085C69.327,192.001 69.554,191.947 69.787,191.914C70.904,186.076 73.71,180.698 78.006,176.402C79.755,174.654 81.69,173.169 83.754,171.923Z" style="fill:rgb(77,78,78);fill-rule:nonzero;"/>
    </g>
    <g transform="matrix(4.16667,0,0,4.16667,-215.55,-650.792)">
        <path d="M89.613,171.008C89.623,171.107 89.644,171.203 89.644,171.304C89.644,171.609 89.584,171.898 89.498,172.176C90.525,172.944 91.506,173.791 92.429,174.714C94.858,177.144 96.708,179.931 98.011,182.902C98.178,181.775 98.267,180.624 98.267,179.45C98.267,175.898 97.469,172.535 96.047,169.523C93.833,169.768 91.679,170.265 89.613,171.008Z" style="fill:rgb(77,78,78);fill-rule:nonzero;"/>
    </g>
    <g transform="matrix(4.16667,0,0,4.16667,-215.55,-650.792)">
        <path d="M71.852,159.583C69.742,161.692 68.056,164.108 66.824,166.731C67.089,166.941 67.319,167.19 67.499,167.478C69.407,167.054 71.37,166.82 73.371,166.82C77.286,166.82 81.065,167.666 84.523,169.243C85.065,168.68 85.822,168.326 86.665,168.326C87.591,168.326 88.408,168.757 88.953,169.419C90.961,168.691 93.05,168.179 95.193,167.893C91.347,161.18 84.258,156.564 76.059,156.19C74.558,157.159 73.145,158.29 71.852,159.583Z" style="fill:rgb(77,78,78);fill-rule:nonzero;"/>
    </g>
    <g transform="matrix(4.16667,0,0,4.16667,-215.55,-650.792)">
        <path d="M69.222,197.649C68.062,197.243 67.225,196.149 67.225,194.85C67.225,194.217 67.426,193.632 67.763,193.15C64.504,188.605 62.74,183.176 62.74,177.472C62.74,175.46 62.976,173.486 63.403,171.569C63.117,171.389 62.87,171.16 62.659,170.897C60.04,172.125 57.625,173.811 55.518,175.918C54.027,177.407 52.77,179.041 51.732,180.771C52.314,191.175 59.726,199.749 69.557,202.096C69.339,200.636 69.224,199.152 69.222,197.649Z" style="fill:rgb(77,78,78);fill-rule:nonzero;"/>
    </g>
    <g transform="matrix(4.16667,0,0,4.16667,-215.55,-650.792)">
        <path d="M91.226,175.917C90.381,175.072 89.48,174.305 88.542,173.599C88.028,174.02 87.381,174.282 86.665,174.282C85.843,174.282 85.099,173.949 84.56,173.409C82.638,174.575 80.84,175.975 79.21,177.605C75.177,181.639 72.516,186.677 71.452,192.155C72.47,192.628 73.181,193.653 73.181,194.85C73.181,195.362 73.039,195.836 72.812,196.257C75.542,198.722 78.719,200.53 82.156,201.605C89.478,199.235 95.206,193.34 97.349,185.92C96.16,182.261 94.128,178.82 91.226,175.917Z" style="fill:rgb(77,78,78);fill-rule:nonzero;"/>
    </g>
    <g transform="matrix(4.16667,0,0,4.16667,-215.55,-650.792)">
        <path d="M71.611,197.458C71.396,197.575 71.169,197.668 70.926,197.73C70.933,199.329 71.078,200.907 71.346,202.452C72.53,202.638 73.743,202.736 74.981,202.736C76.437,202.736 77.858,202.597 79.241,202.341C76.467,201.17 73.892,199.53 71.611,197.458Z" style="fill:rgb(77,78,78);fill-rule:nonzero;"/>
    </g>
</svg>
