<?xml version="1.0" encoding="UTF-8" standalone="no"?>
<!DOCTYPE svg PUBLIC "-//W3C//DTD SVG 1.1//EN" "http://www.w3.org/Graphics/SVG/1.1/DTD/svg11.dtd">
<svg width="100%" height="100%" viewBox="0 0 226 226" version="1.1" xmlns="http://www.w3.org/2000/svg" xmlns:xlink="http://www.w3.org/1999/xlink" xml:space="preserve" xmlns:serif="http://www.serif.com/" style="fill-rule:evenodd;clip-rule:evenodd;stroke-linejoin:round;stroke-miterlimit:1.41421;">
    <g transform="matrix(4.16667,0,0,4.16667,-1449.55,-618.82)">
        <path d="M401.423,153.784C401.193,153.132 400.867,152.526 400.51,151.963C400.304,151.688 400.085,151.381 399.882,151.154L399.577,150.842L399.426,150.687C399.307,150.575 399.282,150.573 399.208,150.51C398.688,150.146 398.237,149.711 397.679,149.502C397.413,149.377 397.149,149.255 396.893,149.134C396.632,149.018 396.354,148.975 396.096,148.897C395.833,148.827 395.575,148.76 395.321,148.693C395.067,148.647 394.812,148.633 394.563,148.604C394.068,148.554 393.593,148.487 393.137,148.531C392.682,148.553 392.247,148.56 391.834,148.593C391.429,148.656 391.041,148.715 390.671,148.773C389.935,148.854 389.299,149.081 388.744,149.213C388.182,149.345 387.738,149.526 387.365,149.656C386.628,149.918 386.234,150.058 386.234,150.058C386.234,150.058 386.643,149.974 387.41,149.818C388.178,149.642 389.313,149.482 390.739,149.389C391.098,149.376 391.476,149.362 391.872,149.347C392.264,149.363 392.674,149.405 393.097,149.434C393.524,149.44 393.952,149.557 394.395,149.642C394.615,149.69 394.844,149.721 395.067,149.784C395.281,149.866 395.502,149.948 395.724,150.031C397.488,150.685 399.158,152.147 399.719,154.346C400.327,156.519 400.053,159.134 399.331,161.758C398.593,164.397 397.374,167.078 395.908,169.737C394.874,171.605 393.669,173.438 392.37,175.245C393.336,175.505 394.225,176 394.969,176.704C396.212,174.852 397.341,172.953 398.336,171.036C399.817,168.186 400.94,165.244 401.597,162.318C402.245,159.409 402.374,156.405 401.423,153.784Z" style="fill:rgb(77,78,78);fill-rule:nonzero;"/>
    </g>
    <g transform="matrix(4.16667,0,0,4.16667,-1449.55,-618.82)">
        <path d="M391.278,158.04L391.31,158.059L391.343,158.072C391.529,158.247 391.716,158.422 391.897,158.602L391.86,158.597L391.858,158.599L391.894,158.656L391.888,158.663L391.808,158.632L391.782,158.625L391.71,158.582L391.61,158.488L391.565,158.445L391.558,158.437L391.476,158.361L391.446,158.338L391.353,158.281L391.317,158.268L391.282,158.255L391.265,158.235L391.226,158.185L391.222,158.169L391.228,158.14L391.29,158.158L391.341,158.171L391.327,158.147L391.251,158.063L391.229,158.049L391.222,158.04L391.188,158L391.173,157.98L391.278,158.04ZM385.136,156.816L385.103,156.828L385.065,156.819L385.062,156.811L385.071,156.763L385.083,156.747L385.085,156.714L385.103,156.73L385.142,156.792L385.136,156.816ZM376.946,159.358L376.901,159.359L376.886,159.351L376.835,159.267L376.728,159.091L376.696,159.082L376.642,159.056L376.61,159.028L376.562,158.992L376.53,158.975L376.522,158.966L376.544,158.974L376.618,158.99L376.634,158.999L376.72,159.034L376.806,159.077L376.868,159.151L376.888,159.227L376.89,159.245L376.884,159.246L376.894,159.313L376.911,159.331L376.952,159.357L376.946,159.358ZM361.476,197.823C362.277,197.567 363.099,197.271 363.954,196.911C356.27,192.906 351.001,184.877 351.001,175.627C351.001,168.366 354.247,161.853 359.358,157.448L359.491,157.393L359.573,157.355L359.739,157.263L359.812,157.231L359.888,157.187L360.007,157.079L360.042,157.045L360.048,157.068L360.044,157.082L360.042,157.099L360.093,157.08L360.185,157.033L360.261,156.987L360.271,156.981L360.276,156.986L360.294,156.987L360.308,157L360.349,157.005L360.343,157.034L360.335,157.06L360.388,157.041L360.417,157.021L360.442,157.009L360.372,157.062L360.37,157.076L360.392,157.078L360.47,157.067L360.495,157.058L360.581,157.036L360.589,157.059L360.606,157.073L360.644,157.072L360.724,157.044L360.743,157.045L360.759,157.044L360.753,157.069L360.776,157.072L360.79,157.068L360.929,157.023L360.968,157.008L361.083,156.96L361.134,156.94L361.192,156.923L361.196,156.927L361.21,156.921L361.212,156.923L361.31,156.878C361.413,156.837 361.421,156.837 361.483,156.841L361.501,156.839L361.554,156.831L361.614,156.773L361.647,156.712L361.681,156.677L361.704,156.664L361.696,156.674L361.688,156.696L361.683,156.706L361.649,156.77L361.612,156.801L361.577,156.834L361.575,156.847L361.601,156.85L361.634,156.857L361.702,156.876L361.739,156.872L361.753,156.88L361.792,156.892L361.96,156.899L362.048,156.925L362.093,156.939L362.151,156.945L362.159,156.949L362.255,156.926L362.288,156.918L362.362,156.907L362.423,156.889L362.493,156.874L362.567,156.864L362.655,156.847L362.86,156.814L362.88,156.812L362.962,156.79L362.983,156.776L362.989,156.767L362.985,156.766L362.981,156.764L362.935,156.765L362.923,156.746L362.882,156.663L362.866,156.655L362.87,156.62L362.853,156.585L362.839,156.577L362.753,156.582L362.702,156.579L362.702,156.566L362.802,156.558L362.86,156.564L362.864,156.565L362.872,156.558L362.964,156.493L363.001,156.45L363.013,156.431L363.046,156.423L363.071,156.425L363.118,156.399L363.13,156.405L363.126,156.416L363.101,156.464L363.079,156.491L363.048,156.524L363.03,156.54L362.964,156.631L362.976,156.649L362.991,156.693L363.011,156.691L363.099,156.661L363.093,156.671L363.067,156.695L363.069,156.732L363.081,156.763L363.095,156.77L363.155,156.737L363.29,156.633L363.349,156.588L363.456,156.483L363.493,156.417L363.497,156.395L363.515,156.208L363.565,156.138L363.589,156.124L363.655,156.072L363.677,156.022L363.677,156.01L363.685,156.003L363.712,155.991L363.743,155.983L363.733,156.003L363.716,156.042L363.745,156.045L363.771,156.046L363.812,156.043L363.815,156.045L363.813,156.055L363.81,156.065L363.794,156.069L363.749,156.071L363.649,156.106L363.624,156.13L363.565,156.186L363.581,156.23L363.581,156.291L363.573,156.312L363.571,156.357L363.575,156.359L363.815,156.236L363.86,156.209L363.894,156.19L363.896,156.167L363.897,156.132L363.884,156.09L363.888,156.056L363.913,156.045L363.917,156.046L363.921,156.072L363.923,156.097L363.931,156.112L363.933,156.125L363.946,156.144L363.983,156.137L363.995,156.131L364.021,156.12L364.013,156.127L364.017,156.141L364.022,156.145L364.075,156.156L364.091,156.151L364.099,156.155L364.149,156.144L364.263,156.067L364.284,156.054L364.276,156.051L364.265,156.022L364.276,156.004L364.3,156.015L364.429,156.038L364.573,155.997L364.616,155.971L364.614,155.925L364.589,155.914L364.571,155.895L364.591,155.87L364.612,155.867L364.634,155.866L364.747,155.836L364.761,155.83L364.813,155.797L364.905,155.713L364.911,155.704L364.944,155.674L364.987,155.637L364.997,155.63L365.05,155.553L365.009,155.557L364.997,155.562L365.013,155.546L365.036,155.523L365.085,155.5L365.106,155.51L365.134,155.533L365.171,155.537L365.175,155.562L365.169,155.57L365.13,155.608L365.083,155.645L365.011,155.713L365.009,155.724L365.14,155.646L365.198,155.593L365.2,155.594L365.253,155.583L365.292,155.577L365.376,155.524L365.394,155.51L365.46,155.44L365.45,155.436L365.427,155.426L365.396,155.435L365.372,155.436L365.374,155.414L365.376,155.394L365.376,155.383L365.372,155.369L365.382,155.362L365.386,155.364L365.394,155.4L365.421,155.423L365.433,155.417L365.483,155.395L365.495,155.378L365.509,155.318L365.515,155.299L365.521,155.279L365.538,155.255L365.552,155.238L365.534,155.242L365.519,155.246L365.493,155.257L365.476,155.26L365.456,155.263L365.45,155.26L365.417,155.269L365.392,155.279L365.384,155.286L365.335,155.31L365.319,155.314L365.304,155.317L365.298,155.315L365.29,155.313L365.3,155.306L365.366,155.279L365.513,155.222L365.56,155.198L365.604,155.174L365.62,155.169L365.64,155.167L365.644,155.179L365.681,155.185L365.706,155.185L365.759,155.163L365.788,155.143L365.817,155.145L365.849,155.136L365.864,155.143L365.888,155.151L365.903,155.148L365.913,155.141L365.942,155.1L365.937,155.075L365.933,155.074L365.989,155.056L366.011,155.065L366.028,155.071L366.05,155.08L366.065,155.075L366.069,155.088L366.103,155.09L366.12,155.087L366.177,155.067L366.206,155.058L366.231,155.046L366.251,155.054L366.263,155.059L366.267,155.061L366.319,155.04L366.323,155.041L366.347,155.029L366.354,155.032L366.364,155.036L366.38,155.042L366.419,155.036L366.411,155.023L366.421,155.016L366.442,155.004L366.446,155.005L366.499,154.994L366.522,154.992L366.528,155.006L366.538,155.009L366.546,155.022L366.589,155.008L366.599,155.001L366.642,154.976L366.644,154.986L366.663,155.004L366.702,154.997L366.726,154.986L366.767,154.971L366.772,154.973L366.8,154.982L366.825,154.981L366.892,154.965L366.933,154.949L366.968,154.932L366.983,154.917L366.976,154.875L366.962,154.871L366.927,154.858L366.905,154.841L366.862,154.835L366.771,154.772L366.692,154.773L366.671,154.774L366.638,154.781L366.587,154.793L366.577,154.789L366.563,154.793L366.569,154.785L366.667,154.7L366.659,154.698L366.606,154.718L366.585,154.731L366.542,154.754L366.522,154.768L366.528,154.759L366.515,154.743L366.489,154.743L366.499,154.737L366.515,154.733L366.517,154.734L366.536,154.721L366.54,154.712L366.562,154.69L366.595,154.641L366.579,154.646L366.558,154.657L366.491,154.713L366.478,154.729L366.456,154.74L366.44,154.744L366.446,154.736L366.435,154.721L366.372,154.737L366.323,154.748L366.302,154.75L366.29,154.734L366.288,154.733L366.31,154.722L366.325,154.718L366.411,154.669L366.431,154.656L366.454,154.624L366.44,154.607L366.396,154.599L366.38,154.592L366.3,154.609L366.286,154.615L366.224,154.619L366.214,154.615L366.224,154.597L366.218,154.595L366.243,154.574L366.249,154.577L366.3,154.578L366.308,154.582L366.333,154.582L366.351,154.579L366.382,154.571L366.403,154.57L366.401,154.58L366.411,154.595L366.46,154.595L366.487,154.596L366.479,154.604L366.497,154.61L366.517,154.608L366.585,154.606L366.624,154.59L366.653,154.561L366.657,154.552L366.653,154.52L366.634,154.511L366.606,154.499L366.575,154.497L366.558,154.499L366.565,154.481L366.573,154.453L366.569,154.452L366.56,154.447L366.548,154.409L366.556,154.393L366.558,154.382L366.53,154.358L366.519,154.331L366.489,154.307L366.474,154.288L366.46,154.271L366.452,154.256L366.384,154.2L366.251,154.231L366.194,154.247L366.173,154.248L366.116,154.252L366.062,154.257L366.054,154.253L366.054,154.241L366.122,154.231L366.13,154.235L366.134,154.238L366.155,154.239L366.235,154.212L366.245,154.206L366.274,154.175L366.269,154.171L366.267,154.158L366.271,154.138L366.239,154.132L366.163,154.112L366.132,154.106L366.083,154.103L366.063,154.104L366.058,154.087L366.067,154.068L366.067,154.056L366.04,154.051L366.032,154.047L365.956,154.074L365.935,154.086L365.931,154.083L365.952,154.059L365.962,154.054L366.009,154.021L365.981,154.028L365.946,154.043L365.907,154.056L365.905,154.042L365.923,154.028L365.944,154.004L365.907,154.018L365.829,154.057L365.819,154.063L365.804,154.065L365.81,154.056L365.829,154.018L365.835,154.008L365.829,154.004L365.751,153.99L365.753,153.978L365.755,153.965L365.743,153.957L365.716,153.95L365.706,153.943L365.698,153.939L365.698,153.925L365.655,153.92L365.616,153.917L365.593,153.913L365.552,153.909L365.532,153.908L365.507,153.915L365.483,153.927L365.491,153.918L365.485,153.913L365.493,153.904L365.515,153.894L365.532,153.878L365.546,153.859L365.552,153.851L365.515,153.864L365.429,153.925L365.394,153.97L365.382,153.989L365.388,153.995L365.419,154.005L365.425,154.024L365.358,154.071L365.353,154.067L365.347,154.049L365.358,154.029L365.38,154.004L365.376,153.999L365.368,153.994L365.349,153.991L365.358,153.97L365.364,153.96L365.386,153.933L365.401,153.918L365.423,153.891L365.405,153.892L365.405,153.89L365.382,153.884L365.36,153.882L365.358,153.88L365.368,153.873L365.325,153.864L365.317,153.857L365.319,153.844L365.298,153.84L365.265,153.856L365.175,153.933L365.175,153.947L365.14,153.931L365.146,153.921L365.144,153.919L365.169,153.894L365.196,153.872L365.214,153.856L365.224,153.849L365.241,153.817L365.253,153.796L365.257,153.784L365.181,153.806L365.146,153.821L365.108,153.833L365.071,153.846L365.032,153.856L365.036,153.844L365.052,153.843L365.128,153.819L365.198,153.773L365.187,153.743L365.178,153.738C368.179,152.386 371.502,151.627 375.001,151.627C380.032,151.627 384.704,153.186 388.565,155.842C388.415,155.875 388.408,155.876 388.356,155.873L388.323,155.876L388.304,155.883L388.257,155.882L388.243,155.879L388.177,155.864C388.034,155.914 388.034,155.914 387.925,155.929L387.919,155.954L387.899,155.973L387.847,156.011L387.819,156.036L387.755,156.062L387.665,156.109L387.642,156.129L387.632,156.139L387.616,156.135L387.562,156.118L387.634,156.15L387.647,156.156L387.657,156.164L387.659,156.162L387.731,156.195L387.776,156.221L387.796,156.235L387.825,156.258L387.837,156.263L387.837,156.248L387.825,156.226L387.827,156.225L387.843,156.226L387.86,156.228L387.921,156.238L387.989,156.259L388.017,156.266L388.079,156.292L388.063,156.355L388.046,156.37L388.032,156.364L387.942,156.331L387.854,156.342L387.837,156.34L387.78,156.325L387.751,156.272L387.743,156.263L387.667,156.217L387.61,156.202L387.571,156.201L387.519,156.214L387.491,156.205L387.474,156.202L387.505,156.239L387.571,156.293L387.626,156.341L387.569,156.395L387.489,156.44L387.435,156.462L387.39,156.48L387.329,156.491L387.31,156.504L387.267,156.518L387.265,156.574L387.237,156.605L387.21,156.607L387.12,156.621L387.022,156.6L387.009,156.594L386.856,156.512L386.522,156.466L386.388,156.499L386.349,156.506L386.259,156.539L386.224,156.567L386.19,156.632L386.163,156.682L386.132,156.683L386.114,156.691L386.097,156.699L386.003,156.706L385.948,156.683L385.849,156.657L385.827,156.666L385.763,156.694L385.731,156.695L385.673,156.674L385.63,156.669L385.612,156.688L385.587,156.709L385.56,156.709L385.532,156.709L385.524,156.701L385.491,156.668L385.452,156.628L385.407,156.612L385.071,156.642L385.063,156.678L385.013,156.642L384.958,156.628L384.931,156.639L384.896,156.662L384.882,156.722L384.862,156.729L384.849,156.743L384.841,156.736L384.841,156.725L384.841,156.715L384.86,156.686L384.884,156.688L384.884,156.677L384.872,156.66L384.858,156.653L384.8,156.631L384.78,156.638L384.737,156.675L384.722,156.681L384.567,156.711L384.479,156.73L384.349,156.74L384.329,156.736L384.269,156.744L384.263,156.768L384.317,156.792L384.347,156.805L384.38,156.815L384.392,156.821L384.349,156.835L384.304,156.859L384.286,156.875L384.28,156.898L384.329,156.925L384.419,156.94L384.442,156.922L384.45,156.908L384.46,156.916L384.468,156.935L384.493,156.98L384.573,156.996L384.587,156.992L384.601,156.987L384.644,156.995L384.712,157.059L384.708,157.061L384.673,157.061L384.63,157.053L384.554,157.045L384.522,157.044L384.509,157.049L384.503,157.061L384.544,157.09L384.595,157.117L384.606,157.124L384.577,157.111L384.454,157.075L384.437,157.123L384.444,157.132L384.38,157.119L384.374,157.121L384.315,157.139L384.243,157.181L384.239,157.224L384.218,157.25L384.038,157.218L383.946,157.202L383.798,157.171L383.788,157.173L383.81,157.218L383.919,157.313L383.991,157.355L384.036,157.384L384.058,157.408L384.118,157.476L384.079,157.466L384.034,157.457L383.958,157.446L383.626,157.368L383.571,157.361L383.515,157.346L383.407,157.271L383.386,157.267L383.368,157.261L383.36,157.252L383.354,157.244L383.282,157.182L383.247,157.17L383.165,157.15L383.128,157.129L383.085,157.1L383.038,157.081L382.991,157.063L382.981,157.065L382.968,157.068L382.825,157.023L382.786,157.018L382.685,157.006L382.655,156.992L382.604,156.975L382.593,156.987L382.563,157.004L382.538,157.019L382.542,157.037L382.567,157.062L382.507,157.045L382.495,157.038L382.466,157.025L382.452,157.037L382.425,157.034L382.386,157.023L382.366,157.037L382.304,157.05L382.28,157.045L382.214,157.03L382.181,157.018L382.157,157.013L382.112,157.032L382.087,157.056L382.075,157.087L382.122,157.125L382.187,157.16L382.233,157.18L382.308,157.213L382.331,157.228L382.378,157.256L382.39,157.264L382.362,157.25L382.294,157.235L382.261,157.241L382.208,157.262L382.181,157.268L382.038,157.276L381.987,157.285L381.966,157.29L381.938,157.295L381.894,157.294L381.831,157.286L381.81,157.281L381.786,157.275L381.706,157.272L381.661,157.261L381.661,157.251L381.655,157.243L381.626,157.21L381.587,157.198L381.53,157.199L381.401,157.193L381.366,157.199L381.3,157.221L381.249,157.23L381.196,157.237L381.14,157.247L381.077,157.258L380.972,157.293L380.966,157.303L380.935,157.336L380.956,157.36L380.95,157.361L380.929,157.347L380.862,157.282L380.812,157.262L380.755,157.233L380.702,157.223L380.69,157.233L380.706,157.259L380.733,157.282L380.739,157.291L380.679,157.319L380.626,157.317L380.519,157.278L380.55,157.255L380.61,157.228L380.634,157.233L380.663,157.22L380.649,157.148L380.628,157.123L380.452,157.104L380.446,157.105L380.423,157.099L380.403,157.129L380.396,157.157L380.388,157.177L380.421,157.2L380.466,157.212L380.458,157.24L380.45,157.251L380.438,157.262L380.421,157.264L380.386,157.26L380.312,157.289L380.306,157.289L380.31,157.354L380.343,157.376L380.419,157.384L380.437,157.382L380.462,157.369L380.479,157.366L380.462,157.415L380.401,157.424L380.39,157.425L380.321,157.443L380.302,157.456L380.28,157.477L380.255,157.517L380.206,157.523L380.169,157.528L380.089,157.539L380.095,157.603L380.093,157.649L380.079,157.65L380.056,157.645L380.048,157.59L380.04,157.572L380.05,157.544L380.063,157.542L380.075,157.54L380.085,157.521L380.089,157.492L380.095,157.465L380.097,157.455L380.104,157.445L380.116,157.443L380.161,157.428L380.173,157.427L380.175,157.417L380.212,157.366L380.202,157.35L380.206,157.321L380.237,157.308L380.251,157.251L380.235,157.235L380.241,157.234L380.245,157.206L380.257,157.195L380.259,157.187L380.296,157.172L380.333,157.14L380.353,157.109L380.354,157.091L380.36,157.09L380.39,157.086L380.39,157.013L380.386,156.986L380.376,156.96L380.354,156.945L380.327,156.931L380.306,156.916L380.29,156.9L380.247,156.861L380.226,156.847L380.181,156.825L380.12,156.825L380.062,156.78L380.013,156.76L379.968,156.739L379.899,156.695L379.894,156.696L379.894,156.705L379.907,156.73L379.944,156.761L379.884,156.742L379.868,156.726L379.806,156.69L379.726,156.691L379.698,156.695L379.675,156.698L379.636,156.703L379.579,156.702L379.511,156.72L379.448,156.727L379.392,156.726L379.31,156.718L379.286,156.72L379.274,156.722L379.241,156.726L379.22,156.754L379.231,156.779L379.241,156.796L379.2,156.801L379.161,156.805L379.144,156.807L379.112,156.819L379.099,156.829L379.11,156.802L379.108,156.75L379.089,156.726L378.968,156.687L378.886,156.704L378.864,156.706L378.833,156.719L378.806,156.712L378.769,156.682L378.804,156.608L378.784,156.594L378.739,156.598L378.706,156.602L378.69,156.595L378.628,156.575L378.591,156.57L378.47,156.573L378.394,156.615L378.364,156.644L378.325,156.647L378.304,156.641L378.294,156.685L378.3,156.771L378.306,156.83L378.347,156.853L378.366,156.858L378.382,156.866L378.335,156.87L378.31,156.882L378.257,156.886L378.218,156.881L378.177,156.884L378.175,156.91L378.183,156.944L378.183,156.962L378.155,156.981L378.12,157.02L378.114,157.037L378.099,157.03L378.04,157.018L377.993,157.038L377.985,157.039L377.978,157.03L377.983,157.03L377.985,157.022L377.991,156.969L377.964,156.944L377.921,156.957L377.88,156.978L377.847,156.972L377.782,156.976L377.733,156.997L377.708,157.007L377.694,157.025L377.687,157.034L377.659,157.028L377.618,156.996L377.61,156.988L377.606,156.997L377.562,157.043L377.558,157.053L377.548,157.062L377.538,157.071L377.474,157.118L377.446,157.129L377.347,157.17L377.312,157.172L377.274,157.174L377.202,157.204L377.12,157.27L377.085,157.272L377.06,157.273L377.032,157.266L376.962,157.278L376.937,157.332L376.909,157.377L376.819,157.425L376.808,157.426L376.771,157.488L376.794,157.514L376.815,157.523L376.854,157.529L376.892,157.527L376.929,157.517L376.935,157.517L376.962,157.523L376.983,157.532L377.001,157.531L377.007,157.53L377.021,157.53L377.046,157.528L377.085,157.535L377.12,157.551L377.142,157.56L377.144,157.567L377.114,157.578L377.046,157.617L376.987,157.638L376.921,157.659L376.888,157.66L376.81,157.655C376.601,157.673 376.601,157.673 376.481,157.713L376.421,157.742L376.354,157.815L376.378,157.842L376.433,157.849L376.472,157.856L376.497,157.891L376.524,157.935L376.544,157.98L376.603,158.049L376.679,158.065L376.698,158.064L376.745,158.062L376.8,158.068L376.868,158.11L376.892,158.137L376.97,158.151L376.991,158.159L376.993,158.168L376.948,158.18L376.919,158.172L376.827,158.185L376.708,158.117L376.63,158.093L376.526,158.07L376.476,158.045L376.413,158.028L376.386,158.021L376.333,158.023L376.3,158.023L376.259,158.016L376.247,158.017L376.224,157.999L376.231,157.998L376.286,157.97L376.347,157.977L376.37,157.958L376.358,157.922L376.351,157.914L376.298,157.871L376.272,157.872L376.235,157.891L376.214,157.918L376.194,157.928L376.192,157.955L376.181,157.964L376.153,157.965L376.114,157.966L376.069,158.03L376.044,158.094L376.04,158.121L376.06,158.121L376.122,158.128L376.153,158.118L376.167,158.118L376.167,158.127L376.171,158.153L376.192,158.162L376.212,158.162L376.237,158.151L376.278,158.15L376.306,158.159L376.196,158.19L376.167,158.172L376.099,158.155L376.071,158.156L375.997,158.213L376.015,158.249L376.022,158.258L376.087,158.293L376.132,158.318L376.183,158.345L376.21,158.354L376.272,158.36L376.327,158.358L376.347,158.358L376.388,158.356L376.419,158.384L376.427,158.393L376.347,158.358L376.269,158.379L376.22,158.371L376.163,158.363L376.104,158.374L376.063,158.376L375.97,158.341L375.979,158.304L375.948,158.251L375.897,158.224L375.897,158.215L375.892,158.161L375.89,158.143L375.87,158.089L375.868,158.071L375.808,157.982L375.786,157.965L375.737,157.93L375.71,157.931L375.692,157.931L375.661,157.958L375.692,158.012L375.733,158.047L375.784,158.082L375.813,158.108L375.794,158.127L375.771,158.146L375.714,158.183L375.647,158.211L375.626,158.266L375.62,158.284L375.61,158.321L375.604,158.349L375.667,158.374L375.681,158.374L375.737,158.401L375.753,158.419L375.819,158.473L375.868,158.481L375.919,158.517L375.942,158.599L375.931,158.637L375.917,158.702L375.919,158.721L375.956,158.821L376.005,158.877L376.028,158.914L376.046,158.933L376.079,158.987L376.097,159.016L376.11,159.006L376.151,158.985L376.194,158.994L376.243,158.983L376.265,158.974L376.319,158.953L376.362,158.952L376.419,158.95L376.442,158.958L376.493,158.967L376.458,158.977L376.329,159.028L376.286,159.029L376.271,159.029L376.237,159.06L376.231,159.06L376.212,159.078L376.241,159.153L376.288,159.237L376.345,159.293L376.397,159.291L376.403,159.282L376.413,159.31L376.397,159.416L376.384,159.436L376.37,159.503L376.382,159.541L376.39,159.608L376.376,159.618L376.312,159.649L376.284,159.679L376.239,159.748L376.228,159.787L376.216,159.826L376.177,159.808L376.128,159.789L376.083,159.79L376.022,159.792L375.978,159.793L375.923,159.784L375.854,159.786L375.755,159.759L375.745,159.749L375.919,159.727L375.97,159.716L376.001,159.715L376.036,159.694L376.046,159.627L376.05,159.588L376.097,159.52L376.159,159.403L376.157,159.327L376.114,159.262L376.106,159.252L376.091,159.252L376.104,159.232L376.118,159.223L376.147,159.156L376.13,159.128L376.062,159.092L375.896,159.011L375.878,158.983L375.853,158.927L375.835,158.89L375.8,158.815L375.79,158.778L375.757,158.705L375.712,158.669L375.696,158.65L375.714,158.612L375.671,158.503L375.655,158.467L375.603,158.412L375.554,158.386L375.511,158.368L375.446,158.314L375.466,158.286L375.476,158.25L375.483,158.149L375.476,158.142L375.399,157.971L375.286,157.928L375.241,157.937L375.188,157.929L375.091,157.894L375.167,157.849L375.167,157.839L375.159,157.83L375.134,157.821L375.101,157.804L375.081,157.786L375.048,157.751L374.938,157.751L374.915,157.77L374.882,157.814L374.903,157.867L374.915,157.902L374.896,157.911L374.89,157.902L374.87,157.894L374.851,157.939L374.853,158.019L374.853,158.046L374.858,158.073L374.853,158.146L374.847,158.182L374.825,158.245L374.813,158.273L374.772,158.317L374.704,158.391L374.677,158.418L374.657,158.445L374.677,158.481L374.69,158.5L374.759,158.537L374.786,158.537L374.792,158.556L374.8,158.584L374.821,158.648L374.835,158.667L374.884,158.694L374.903,158.703L374.897,158.713L374.87,158.713L374.835,158.713L374.8,158.741L374.808,158.797L374.87,158.881L374.927,158.871L374.899,158.946L374.935,158.909L375.019,158.871L375.026,158.871L375.069,158.937L375.077,158.946L375.136,158.982L375.165,159.001L375.194,159.021L375.245,159.048L375.288,159.048L375.296,159.058L375.302,159.066L375.306,159.123L375.28,159.228L375.11,159.134L375.095,159.106L375.007,159.032L374.972,159.03L374.878,159.002L374.851,158.983L374.821,158.983L374.757,158.983L374.638,158.955L374.608,158.936L374.532,158.889L374.476,158.851L374.407,158.822L374.261,158.783L374.247,158.774L374.192,158.755L374.144,158.763L374.128,158.773L374.011,158.779L373.956,158.751L373.915,158.741L373.901,158.731L373.882,158.731L373.837,158.768L373.813,158.795L373.808,158.785L373.81,158.757L373.786,158.71L373.759,158.69L373.714,158.662L373.683,158.634L373.636,158.605L373.538,158.565L373.495,158.573L373.489,158.573L373.425,158.654L373.448,158.692L373.46,158.702L373.565,158.761L373.626,158.79L373.651,158.801L373.685,158.829L373.704,158.849L373.767,158.85L373.78,158.85L373.788,158.859L373.792,158.878L373.858,158.945L373.864,158.954L373.933,158.984L373.899,159.059L373.87,159.059L373.843,159.058L373.821,159.058L373.808,159.057L373.776,159.084L373.794,159.142L373.8,159.151L373.792,159.161L373.771,159.16L373.763,159.16L373.726,159.169L373.712,159.178L373.698,159.168L373.69,159.158L373.679,159.13L373.702,159.12L373.726,159.093L373.726,159.083L373.729,159.046L373.71,159.026L373.688,159.026L373.661,159.007L373.657,158.979L373.616,158.883L373.583,158.873L373.575,158.873L373.562,158.873L373.56,158.882L373.571,158.91L373.612,158.996L373.606,158.986L373.579,158.985L373.571,158.977L373.558,158.976L373.534,158.994L373.503,159.022L373.456,159.011L373.435,159.01L373.384,159.018L373.349,159.083L373.317,159.101L373.298,159.081L373.261,159.09L373.198,159.087L373.138,159.105L373.06,159.111L373.013,159.129L373.007,159.128L372.972,159.175L372.944,159.211L372.938,159.201L372.913,159.182L372.905,159.182L372.835,159.179L372.806,159.177L372.8,159.177L372.8,159.168L372.804,159.092L372.802,159.064L372.819,159.045L372.88,159.02L372.905,158.991L372.849,158.942L372.819,158.951L372.753,158.977L372.7,158.993L372.663,159L372.61,159.026L372.538,159.108L372.542,159.128L372.548,159.138L372.517,159.146L372.515,159.126L372.509,159.116L372.485,159.087L372.478,159.087L372.448,159.095L372.419,159.104L372.345,159.118L372.321,159.127L372.3,159.126L372.222,159.159L372.136,159.231L372.103,159.249L372.065,159.256L372.03,159.254L371.981,159.242L371.94,159.307L371.896,159.314L371.851,159.32L371.81,159.337L371.802,159.375L371.782,159.432L371.765,159.508L371.771,159.519L371.728,159.545L371.655,159.569L371.647,159.569L371.562,159.564L371.536,159.543L371.481,159.529L371.474,159.528L371.47,159.519L371.464,159.48L371.462,159.46L371.417,159.408L371.376,159.396L371.356,159.385L371.335,159.355L371.411,159.312L371.437,159.294L371.476,159.287L371.501,159.299L371.542,159.311L371.608,159.276L371.62,159.258L371.614,159.248L371.567,159.178L371.562,159.168L371.517,159.098L371.456,159.027L371.438,159.016L371.374,158.992L371.245,159.002L371.216,159L371.179,159.007L371.171,158.987L371.138,158.956L371.114,158.964L371.104,158.973L371.075,159.027L371.11,159.078L371.167,159.102L371.183,159.122L371.167,159.227L371.101,159.366L371.075,159.356L371.048,159.372C371.198,159.523 371.198,159.523 371.212,159.579L371.147,159.711L371.146,159.75L371.128,159.73L371.069,159.725L371.026,159.614L370.946,159.607L370.888,159.584L370.86,159.572L370.796,159.616L370.776,159.634L370.681,159.686L370.587,159.707L370.521,159.751L370.491,159.777L370.394,159.849L370.37,159.856L370.335,159.873L370.364,159.925L370.429,160.061L370.433,160.101L370.433,160.131L370.323,160.161L370.284,160.138L370.214,160.122L370.187,160.109L370.153,160.096L370.118,160.083L370.077,160.069L370.019,160.044L369.987,160.022L369.942,159.977L369.94,159.956L369.901,159.894L369.874,159.91L369.825,159.966L369.794,159.992L369.774,160.001L369.769,160L369.743,160.007L369.733,160.037L369.812,160.145L369.847,160.219L369.888,160.263L369.948,160.238L369.958,160.23L369.972,160.261L369.981,160.302L369.987,160.313L369.976,160.321L369.929,160.327L369.892,160.344L369.845,160.351L369.751,160.331L369.745,160.32L369.671,160.242L369.659,160.21L369.628,160.167L369.603,160.154L369.556,160.16L369.495,160.153L369.474,160.131L369.47,160.101L369.47,159.99L369.474,159.98L369.462,159.929L369.452,159.898L369.452,159.857L369.458,159.838L369.546,159.718L369.528,159.647L369.501,159.604L369.47,159.57L369.452,159.559L369.407,159.523L369.368,159.529L369.327,159.524L369.323,159.495L369.312,159.453L369.263,159.358L369.331,159.348L369.343,159.358L369.358,159.37L369.435,159.418L369.485,159.414L369.538,159.429L369.565,159.433L369.604,159.466L369.614,159.477L369.669,159.523L369.743,159.54L369.79,159.554L369.817,159.557L369.825,159.558L369.89,159.584L370.048,159.649L370.118,159.665L370.22,159.675L370.327,159.685L370.413,159.692L370.448,159.675L370.567,159.597L370.624,159.553L370.687,159.489L370.72,159.385L370.702,159.345L370.696,159.315L370.706,159.287L370.683,159.197L370.651,159.186L370.612,159.172L370.595,159.161L370.544,159.118L370.519,159.087L370.497,159.065L370.472,159.083L370.44,159.09L370.419,159.068L370.386,159.046L370.351,159.023L370.302,159L370.255,158.976L370.237,158.964L370.187,158.911L370.124,158.838L369.911,158.673L369.899,158.671L369.843,158.655L369.794,158.66L369.741,158.654L369.692,158.639L369.677,158.628L369.659,158.606L369.618,158.621L369.55,158.671L369.55,158.594L369.542,158.594L369.521,158.581L369.472,158.585L369.493,158.568L369.538,158.525L369.521,158.476L369.511,158.465L369.493,158.444L369.452,158.401L369.419,158.416L369.376,158.44L369.28,158.485L369.251,158.463L369.224,158.449L369.146,158.43L369.116,158.436L369.073,158.44L369.038,158.416L369.044,158.417L369.157,158.364L369.202,158.352L369.21,158.353L369.241,158.356L369.28,158.342L369.31,158.308L369.3,158.259L369.243,158.213L369.212,158.209L369.175,158.204L369.177,158.187L369.14,158.144L369.099,158.109L369.06,158.095L369.048,158.093L368.978,158.141L368.903,158.207L368.886,158.204L368.88,158.203L368.89,158.195L368.962,158.119L368.979,158.112L369.024,158.09L369.038,158.064L369.015,158.032L369.009,158.031L368.901,158.025L368.894,158.016L368.845,158.046L368.819,158.081L368.759,158.148L368.706,158.17L368.7,158.169L368.688,158.167L368.694,158.158L368.71,158.142L368.753,158.062L368.751,158.052L368.747,158.023L368.687,158.062L368.456,158.22L368.427,158.226L368.556,158.109L368.649,158.047L368.679,157.984L368.647,157.981L368.63,157.978L368.552,158.014L368.546,158.013L368.54,158.002L368.521,157.989L368.521,157.98L368.511,157.96L368.474,157.982L368.44,158.016L368.382,158.074L368.321,158.132L368.349,158.098L368.339,158.058L368.321,158.055L368.269,158.066L368.251,158.073L368.278,158.048L368.306,158.014L368.3,158.004L368.265,158.008L368.177,158.023L368.153,158.02L368.106,158.022L368.083,158.018L368.06,158.014L368.042,158.011L368.019,158.017L368.028,158.066L368.083,158.085L368.077,158.104L368.069,158.141L368.063,158.159L368.058,158.158L368.028,158.144L367.997,158.129L367.985,158.127L367.944,158.12L367.909,158.124L367.874,158.138L367.856,158.145L367.851,158.134L367.843,158.124L367.843,158.094L367.808,158.117L367.696,158.216L367.685,158.224L367.632,158.254L367.688,158.186L367.731,158.114L367.737,158.106L367.735,158.066L367.702,158.069L367.655,158.071L367.649,158.07L367.597,158.081L367.528,158.138L367.47,158.177L367.39,158.231L367.378,158.239L367.356,158.284L367.323,158.338L367.288,158.371L367.276,158.379L367.282,158.36L367.304,158.285L367.31,158.275L367.308,158.227L367.278,158.231L367.226,158.241L367.149,158.276L367.116,158.36L367.116,158.37L367.11,158.389L367.104,158.408L367.099,158.407L367.048,158.447L367.058,158.429L367.075,158.342L367.063,158.351L367.063,158.34L366.999,158.378L366.97,158.402L366.987,158.376L367.015,158.342L367.026,158.323L367.05,158.278L367.021,158.273L366.985,158.275L366.915,158.313L366.862,158.342L366.88,158.306L366.886,158.257L366.833,158.296L366.757,158.372L366.661,158.474L366.626,158.478L366.448,158.519L366.39,158.531L366.384,158.54L366.329,158.621L366.358,158.627L366.513,158.587L366.585,158.57L366.644,158.552L366.71,158.534L366.751,158.523L366.675,158.608L366.61,158.667L366.562,158.708L366.544,158.726L366.444,158.808L366.37,158.835L366.312,158.854L366.3,158.861L366.185,158.932L366.149,158.955L366.065,159.021L366.028,159.065L366.005,159.092L366.005,159.081L365.991,159.058L365.968,159.073L365.925,159.127L365.884,159.182L365.835,159.224L365.786,159.266L365.745,159.31L365.708,159.345L365.665,159.356L365.659,159.356L365.671,159.337L365.677,159.327L365.677,159.316L365.671,159.315L365.64,159.341L365.599,159.384L365.548,159.353L365.499,159.363L365.485,159.393L365.505,159.417L365.519,159.42L365.499,159.448L365.476,159.475L365.47,159.474L365.333,159.529L365.218,159.621L365.21,159.631L365.155,159.641L365.147,159.639L365.155,159.629L365.147,159.617L365.104,159.65L365.03,159.72L365.013,159.727L364.987,159.732L364.968,159.728L364.962,159.705L364.968,159.674L364.974,159.632L364.925,159.653L364.862,159.714L364.851,159.733L364.825,159.738L364.812,159.714L364.819,159.683L364.812,159.648L364.763,159.681L364.688,159.815L364.694,159.827L364.688,159.837L364.632,159.89L364.614,159.907L364.612,159.897L364.589,159.857L364.575,159.833L364.563,159.818L364.532,159.844L364.513,159.861L364.476,159.907L364.456,159.936L364.413,159.893L364.382,159.907L364.37,159.915L364.319,159.936L364.274,159.97L364.263,159.977L364.263,159.966L364.257,159.942L364.231,159.947L364.138,159.99L364.095,160.002L364.081,160.01L364.089,159.989L364.083,159.955L364.044,159.979L363.956,160.111L363.935,160.162L363.903,160.232L363.827,160.325L363.778,160.357L363.771,160.367L363.714,160.476L363.708,160.52L363.696,160.55L363.665,160.576L363.608,160.641L363.595,160.66L363.61,160.709L363.591,160.727L363.54,160.782L363.528,160.813L363.511,160.854L363.519,160.878L363.456,160.953L363.47,160.98L363.476,160.981L363.546,160.953L363.548,160.977L363.562,161.014L363.556,161.012L363.542,161.009L363.485,161.028L363.343,161.21L363.351,161.234L363.378,161.241L363.392,161.256L363.417,161.343L363.425,161.356L363.448,161.395L363.499,161.441L363.509,161.489L363.536,161.484L363.681,161.449L363.716,161.458L363.755,161.456L363.78,161.451L363.858,161.423L363.948,161.364L364.013,161.333L364.044,161.307L364.183,161.225L364.21,161.22L364.235,161.215L364.237,161.226L364.247,161.25L364.315,161.198L364.399,161.105L364.394,161.171L364.421,161.188L364.431,161.2L364.437,161.202L364.415,161.241L364.384,161.369L364.384,161.381L364.38,161.391L364.312,161.556L364.317,161.591L364.325,161.649L364.308,161.712L364.28,161.809L364.28,161.978L364.308,162.13L364.306,162.152L364.267,162.213L364.255,162.232L364.208,162.28L364.198,162.267L364.165,162.249L364.093,162.279L364.028,162.357L364.015,162.355L363.962,162.344L363.976,162.334L363.985,162.315L363.991,162.304L363.983,162.302L363.948,162.307L363.907,162.309L363.843,162.353L363.831,162.361L363.776,162.453L363.774,162.522L363.751,162.551L363.724,162.603L363.757,162.621L363.817,162.634L363.819,162.646L363.808,162.666L363.798,162.688L363.79,162.686L363.649,162.736L363.651,162.783L363.698,162.84L363.718,162.867L363.759,162.853L363.813,162.841L363.913,162.792L363.946,162.775L363.995,162.728L363.991,162.682L363.96,162.663L363.942,162.648L363.954,162.64L364.13,162.504L364.146,162.553L364.163,162.567L364.202,162.609L364.231,162.615L364.329,162.657L364.345,162.66L364.358,162.663L364.407,162.649L364.44,162.599L364.47,162.536L364.497,162.497L364.548,162.461L364.575,162.455L364.603,162.449L364.616,162.44L364.62,162.43L364.618,162.418L364.661,162.414L364.745,162.431L364.854,162.462L364.872,162.477L364.905,162.46L364.94,162.422L364.962,162.392L364.966,162.438L364.964,162.46L365.077,162.356L365.165,162.238L365.206,162.19L365.271,162.101L365.267,162.077L365.14,162.155L365.231,161.96L365.286,161.881L365.325,161.832L365.341,161.802L365.429,161.651L365.456,161.612L365.462,161.603L365.476,161.605L365.567,161.599L365.702,161.535L365.796,161.508L365.804,161.509L365.823,161.534L365.886,161.469L365.974,161.353L365.979,161.343L366.015,161.316L366.052,161.257L366.05,161.246L366.063,161.118L366.054,161.106L366.028,161.047L366.042,161.018L366.058,160.987L366.019,160.97L365.903,160.982L365.88,160.967L365.868,160.943L365.872,160.89L365.907,160.777L365.915,160.747L365.97,160.628L365.985,160.63L366.013,160.635L366.079,160.551L366.075,160.528L366.108,160.481L366.12,160.473L366.134,160.464L366.161,160.438L366.177,160.398L366.167,160.385L366.22,160.373L366.306,160.324L366.362,160.26L366.374,160.252L366.417,160.228L366.46,160.203L366.483,160.186L366.507,160.169L366.569,160.138L366.601,160.133L366.692,160.116L366.767,160.087L366.829,160.056L366.872,160.042L366.946,160.013L366.981,159.987L367.069,159.918L367.11,159.883L367.157,159.818L367.163,159.736L367.155,159.694L367.153,159.684L367.2,159.649C367.374,159.554 367.374,159.554 367.503,159.503L367.685,159.501L367.704,159.534L367.737,159.569L367.794,159.558L367.831,159.553L367.839,159.554L367.837,159.646L367.835,159.695L367.833,159.746L367.819,159.774L367.817,159.765L367.784,159.709L367.765,159.675L367.72,159.709L367.706,159.748L367.692,159.777L367.493,159.901L367.403,159.96L367.407,159.971L367.403,159.991L367.38,160.008L367.243,160.06L367.138,160.137L367.062,160.187L367.04,160.184L367.019,160.181L366.968,160.193L366.921,160.259L366.843,160.352L366.79,160.385L366.743,160.43L366.741,160.45L366.743,160.462L366.757,160.527L366.747,160.579L366.731,160.629L366.716,160.723L366.71,160.785L366.685,160.823L366.646,160.87L366.63,160.89L366.595,160.981L366.604,160.992L366.556,161.146L366.563,161.147L366.651,161.183L366.712,161.17L366.655,161.226C366.759,161.278 366.88,161.278 366.976,161.35L367.042,161.349L367.056,161.351L367.136,161.351L367.218,161.331L367.261,161.326L367.31,161.322L367.386,161.312L367.464,161.301L367.493,161.306L367.552,161.302L367.616,161.301L367.655,161.306L367.735,161.306L367.792,161.303L367.847,161.31L367.878,161.314L367.892,161.315L367.935,161.331L367.966,161.42L368.067,161.475L368.134,161.494L368.034,161.503L367.979,161.518L367.925,161.531L367.866,161.535L367.831,161.541L367.745,161.595L367.687,161.641L367.632,161.634L367.597,161.618L367.554,161.623L367.501,161.616L367.485,161.614L367.427,161.553L367.335,161.497L367.312,161.494L367.194,161.542L367.122,161.542L367.099,161.539L366.978,161.555L366.938,161.57L366.88,161.594L366.845,161.6L366.837,161.599L366.778,161.622L366.731,161.713L366.7,161.675L366.685,161.673L366.655,161.701L366.567,161.753L366.556,161.762L366.433,161.819L366.401,161.815L366.325,161.858L366.333,161.936L366.341,161.958L366.335,161.969L366.321,162.043L366.386,162.009L366.417,161.992L366.456,161.977L366.509,161.951L366.567,161.949L366.579,161.94L366.644,161.885L366.687,161.804L366.72,161.841L366.765,161.913L366.817,161.986L366.837,161.979L366.86,161.96L366.872,161.951L366.853,161.981L366.815,162.052L366.778,162.145L366.753,162.273L366.704,162.354L366.616,162.385L366.601,162.383L366.528,162.328L366.515,162.281L366.503,162.247L366.44,162.116L366.347,162.08L366.157,162.194L366.153,162.204L366.146,162.203L366.106,162.274L366.048,162.332L366.021,162.36L365.948,162.471L365.886,162.662L365.872,162.693L365.841,162.789L365.823,162.854L365.769,162.946L365.659,163.007L365.554,162.99L365.466,163.1L365.401,163.169L365.353,163.184L365.304,163.198L365.288,163.195L365.216,163.16L365.216,163.138L365.21,163.069L365.196,163.044L365.177,163.006L365.11,162.983L365.079,162.978L364.864,163.02L364.739,163.031L364.628,163.068L364.409,163.142L364.335,163.151L364.265,163.16L364.134,163.182L364.12,163.155L364.142,163.148L364.149,163.149L364.171,163.12L364.124,163.075L364.132,162.985L364.138,162.952L364.106,162.877L364.007,162.927L363.958,162.928L363.948,162.926L363.862,162.932L363.743,162.987L363.735,162.986L363.716,162.958L363.681,162.962L363.595,163.015L363.583,163.023L363.491,163.004L363.481,162.99L363.587,162.932L363.599,162.923L363.628,162.813L363.608,162.82L363.507,162.822L363.425,162.77L363.478,162.665L363.472,162.629L363.46,162.557L363.466,162.512L363.487,162.471L363.61,162.359L363.755,162.242L363.772,162.223L363.817,162.152L363.837,162.1L363.862,162.037L363.87,161.992L363.915,161.923L363.952,161.898L364.038,161.814L364.071,161.753L364.103,161.681L364.093,161.667L364.079,161.664L364.05,161.647L363.931,161.689L363.862,161.741L363.767,161.8L363.751,161.784L363.714,161.765L363.628,161.791L363.55,161.83L363.425,161.928L363.308,162.142L363.298,162.174L363.222,162.284L363.204,162.315L363.151,162.476L363.132,162.541L363.108,162.57L363.093,162.602L363.06,162.664L363.099,162.685L363.138,162.671L363.165,162.665L363.155,162.686L363.101,162.743L363.093,162.741L363.062,162.77L363.062,162.816L363.073,162.843L363.089,162.893L363.032,162.926L363.019,162.935L362.911,163.016L362.896,163.013L362.851,163.002L362.851,162.955L362.849,162.942L362.788,162.917L362.739,162.917L362.657,162.944L362.608,162.991L362.571,163.03L362.556,163.015L362.505,163.002L362.468,162.993L362.401,162.978L362.382,162.984L362.394,162.963L362.337,162.962L362.269,162.968L362.185,163.018L362.108,163.082L362.063,163.106L362.056,163.105L361.968,163.178L361.913,163.247L361.849,163.326L361.782,163.37L361.726,163.415L361.669,163.447L361.597,163.489L361.558,163.516L361.497,163.523L361.429,163.542L361.335,163.577L361.282,163.599L361.202,163.626L361.161,163.627L361.095,163.645L361.067,163.649L361.06,163.648L360.995,163.69L360.944,163.773L360.901,163.836L360.757,163.954L360.63,163.992L360.476,164.021L360.45,164.038L360.39,164.107L360.392,164.133L360.366,164.15L360.333,164.152L360.282,164.125L360.216,164.094L360.175,164.093L360.147,164.085L360.132,164.067L360.149,164.049L360.175,164.019L360.177,163.982L360.14,163.934L360.118,163.927L360.101,163.884L360.091,163.856L360.065,163.873L360.054,163.882L360.003,163.99L359.997,164.089L359.999,164.102L359.966,164.179L359.937,164.22L359.901,164.284L359.892,164.306L359.823,164.31L359.802,164.304L359.753,164.275L359.698,164.271L359.651,164.281L359.644,164.267L359.647,164.242L359.614,164.169L359.534,164.155L359.468,164.158L359.341,164.154L359.308,164.144L359.294,164.139L359.212,164.174L359.188,164.217L359.208,164.313L359.159,164.386L359.144,164.432L359.144,164.507L359.19,164.51L359.237,164.514L359.276,164.514L359.308,164.562L359.349,164.625L359.364,164.656L359.376,164.697L359.401,164.744L359.44,164.731L359.446,164.733L359.417,164.774L359.399,164.857L359.438,164.895L359.437,164.933L359.407,164.974L359.362,165.099L359.364,165.125L359.39,165.209L359.397,165.211L359.423,165.346L359.327,165.493L359.313,165.54L359.267,165.64L359.192,165.744L359.11,165.846L359.085,165.901L359.001,166.067L358.884,166.21L358.845,166.262L358.831,166.271L358.741,166.319L358.677,166.313L358.597,166.286L358.581,166.242L358.556,166.208L358.511,166.233L358.483,166.236L358.438,166.209L358.415,166.188L358.397,166.17L358.298,166.136L358.2,166.13L358.099,166.068L358.054,166.039L357.983,166.015L357.917,166.004L357.864,165.959L357.794,165.921L357.733,165.898L357.692,165.897L357.685,165.881L357.69,165.869L357.706,165.836L357.661,165.78L357.614,165.763L357.601,165.744L357.53,165.757L357.419,165.872L357.397,165.864L357.333,165.853L357.327,165.85L357.204,165.907L357.198,165.918L357.149,166.019L357.155,166.101L357.159,166.143L357.147,166.15L357.091,166.221L357.04,166.308L356.954,166.474L356.913,166.577L356.858,166.729L356.843,166.763L356.735,166.946L356.665,167.053L356.577,167.178L356.499,167.267L356.421,167.356L356.386,167.396L356.315,167.487L356.237,167.671L356.239,167.685L356.241,167.794L356.272,167.833L356.278,167.836L356.294,167.856L356.292,167.881L356.235,167.98L356.198,168.031L356.192,168.043L356.124,168.177L356.065,168.301L356.038,168.37L355.999,168.409L355.962,168.461L355.97,168.464L355.976,168.467L355.983,168.47L356.001,168.464L356.058,168.445L356.087,168.43L356.151,168.43L356.169,168.449L356.202,168.489L356.224,168.497L356.308,168.49L356.343,168.463L356.396,168.43L356.405,168.447L356.411,168.476L356.46,168.521L356.519,168.648L356.499,168.722L356.489,168.771L356.483,168.942L356.509,169.057L356.536,169.12L356.565,169.131L356.653,169.123L356.696,169.099L356.751,169.065L356.771,169.032L356.802,169.017L356.825,168.998L356.884,168.979L356.911,168.975L356.972,168.995L356.987,169.001L357.032,169.017L357.095,169.011L357.22,169.026L357.284,169.062L357.386,169.094L357.448,169.088L357.501,169.092L357.532,169.076L357.63,168.976L357.714,168.885L357.743,168.855L357.827,168.842L357.903,168.878L357.923,168.898L357.976,168.849L357.997,168.764L358.036,168.686L358.054,168.651L358.101,168.601L358.161,168.555L358.202,168.54L358.3,168.491L358.353,168.469L358.397,168.443L358.403,168.381L358.356,168.315L358.339,168.245L358.349,168.17L358.397,168.042L358.601,167.884L358.827,167.706L358.876,167.605L358.89,167.57L359.013,167.528L359.042,167.524L359.212,167.495L359.253,167.481L359.308,167.458L359.47,167.389L359.558,167.349L359.671,167.265L359.72,167.075L359.724,167.065L359.747,166.981L359.81,166.872L359.839,166.842L359.962,166.761L360.024,166.74L360.046,166.732L360.081,166.755L360.112,166.764L360.245,166.835L360.315,166.866L360.388,166.909L360.437,166.946L360.511,166.99L360.608,166.977L360.624,166.981L360.735,166.932L360.747,166.923L360.761,166.938L360.798,166.96L360.827,166.98L360.847,166.997L360.921,166.951L360.997,166.87L361.065,166.811L361.122,166.762L361.202,166.719L361.274,166.674L361.354,166.655L361.423,166.646L361.454,166.64L361.474,166.682L361.483,166.732L361.499,166.812L361.563,166.862L361.599,166.87L361.608,166.946L361.595,166.981L361.587,167.028L361.581,167.15L361.599,167.179L361.606,167.206L361.591,167.252L361.562,167.283L361.517,167.298L361.495,167.306L361.44,167.331L361.464,167.398L361.517,167.435L361.56,167.419L361.603,167.354L361.606,167.343L361.614,167.344L361.62,167.357L361.614,167.369L361.62,167.407L361.644,167.449L361.657,167.465L361.669,167.517L361.661,167.54L361.646,167.611L361.671,167.617L361.708,167.624L361.743,167.632L361.774,167.65L361.761,167.661L361.741,167.719L361.753,167.746L361.78,167.776L361.808,167.807L361.831,167.799L361.823,167.848L361.833,167.937L361.843,167.964L361.894,168.048L361.923,168.079L362.007,168.12L362.069,168.134L362.079,168.135L362.075,168.147L362.097,168.176L362.149,168.224L362.179,168.254L362.188,168.256L362.183,168.305L362.198,168.382L362.3,168.439L362.272,168.459L362.247,168.516L362.284,168.523L362.396,168.544L362.388,168.642L362.39,168.667L362.435,168.751L362.446,168.778L362.472,168.832L362.528,168.842L362.558,168.848L362.577,168.914L362.587,169.027L362.589,169.053L362.593,169.078L362.599,169.13L362.579,169.163L362.569,169.236L362.591,169.303L362.585,169.327L362.581,169.338L362.546,169.357L362.536,169.356L362.485,169.397L362.472,169.444L362.462,169.48L362.425,169.51L362.392,169.517L362.382,169.515L362.263,169.543L362.253,169.541L362.187,169.528L362.075,169.532L361.991,169.579L361.972,169.576L361.915,169.565L361.876,169.558L361.858,169.554L361.806,169.52L361.784,169.489L361.731,169.429L361.714,169.425L361.604,169.454L361.589,169.477L361.583,169.462L361.569,169.409L361.534,169.427L361.521,169.438L361.509,169.447L361.437,169.521L361.433,169.533L361.431,169.545L361.429,169.658L361.437,169.697L361.476,169.742L361.483,169.744L361.515,169.738L361.548,169.771L361.636,169.851L361.683,169.898L361.718,169.955L361.782,170.018L361.806,170.01L361.827,170.039L361.851,170.106L361.888,170.201L361.913,170.22L361.987,170.246L362.065,170.223L362.077,170.213L362.147,170.1L362.161,170.089L362.175,169.953L362.171,169.928L362.181,169.816L362.251,169.741L362.292,169.699L362.335,169.656L362.345,169.695L362.347,169.709L362.347,169.722L362.39,169.755L362.399,169.756L362.419,169.76L362.433,169.787L362.47,169.756L362.485,169.734L362.505,169.7L362.522,169.678L362.55,169.646L362.595,169.629L362.606,169.63L362.622,169.647L362.663,169.604L362.677,169.556L362.692,169.496L362.728,169.44L362.757,169.407L362.782,169.387L362.788,169.4L362.823,169.419L362.882,169.392L362.896,169.382L362.931,169.288L362.968,169.22L362.968,169.146L362.909,169.098L362.868,169.065L362.845,169.036L362.821,168.982L362.813,168.932L362.843,168.899L362.856,168.89L362.94,168.768L362.989,168.702L363.001,168.691L363.015,168.682L363.034,168.685L363.042,168.724L363.075,168.791L363.118,168.812L363.183,168.835L363.206,168.826L363.216,168.865L363.294,169.065L363.329,169.046L363.403,168.885L363.37,168.706L363.358,168.679L363.284,168.58L363.269,168.565L363.229,168.522L363.188,168.489L363.146,168.432L363.114,168.401L363.028,168.35L362.892,168.239L362.856,168.159L362.866,168.161L362.95,168.113L362.964,168.067L362.913,167.972L362.849,167.96L362.765,167.944L362.714,167.947L362.696,167.944L362.657,167.912L362.597,167.827L362.544,167.742L362.526,167.678L362.487,167.56L362.479,167.521L362.472,167.371L362.487,167.325L362.493,167.252L362.401,167.075L362.304,166.944L362.271,166.876L362.251,166.823L362.265,166.765L362.284,166.684L362.288,166.671L362.317,166.666L362.353,166.648L362.396,166.583L362.38,166.52L362.38,166.494L362.376,166.457L362.392,166.411L362.419,166.393L362.462,166.401L362.595,166.343L362.616,166.335L362.642,166.315L362.665,166.332L362.677,166.372L362.671,166.418L362.704,166.534L362.702,166.619L362.702,166.645L362.687,166.69L362.698,166.766L362.71,166.756L362.792,166.687L362.788,166.722L362.792,166.82L362.853,166.868L362.896,166.853L362.903,166.829L362.915,166.795L362.927,166.761L362.935,166.823L362.962,166.939L362.942,166.971L362.913,167.026L362.894,167.085L362.933,167.115L362.979,167.148L363.017,167.181L363.073,167.276L363.069,167.288L363.075,167.362L363.079,167.376L363.151,167.486L363.161,167.488L363.192,167.543L363.169,167.587L363.157,167.622L363.21,167.644L363.304,167.66L363.435,167.683L363.53,167.761L363.565,167.804L363.69,167.959L363.714,168.012L363.776,168.108L363.851,168.242L363.876,168.26L363.856,168.293L363.802,168.346L363.763,168.413L363.776,168.44L363.772,168.488L363.753,168.56L363.716,168.664L363.696,168.735L363.675,168.855L363.755,168.98L363.802,169.036L363.8,169.048L363.804,169.073L363.78,169.082L363.765,169.067L363.737,169.05L363.696,169.093L363.735,169.261L363.819,169.299L363.851,169.341L363.892,169.422L363.911,169.425L363.964,169.557L363.987,169.634L363.989,169.709L364.036,169.828L364.056,169.831L364.062,169.807L364.087,169.786L364.134,169.806L364.214,169.83L364.231,169.845L364.315,169.845L364.392,169.881L364.437,169.912L364.476,169.93L364.548,169.94L364.581,169.933L364.616,169.913L364.632,169.94L364.646,170.028L364.665,170.081L364.687,170.134L364.728,170.14L364.776,170.159L364.798,170.211L364.821,170.252L364.892,170.273L364.915,170.215L364.907,170.114L364.907,170.102L364.886,170.049L364.87,169.973L364.894,170.013L364.954,170.071L364.995,170.089L365.03,170.118L365.116,170.068L365.103,169.98L365.034,169.945L364.987,169.914L364.952,169.836L364.937,169.809L364.929,169.795L364.888,169.69L364.849,169.673L364.815,169.631L364.784,169.54L364.774,169.489L364.704,169.332L364.683,169.292L364.64,169.211L364.616,169.171L364.597,169.082L364.628,168.951L364.644,168.929L364.667,168.957L364.692,168.985L364.765,169.069L364.786,169.072L364.843,169.093L364.897,169.088L364.933,169.068L365.038,168.973L365.067,168.94L365.118,168.898L365.231,168.815L365.286,168.798L365.317,168.802L365.325,168.815L365.345,168.817L365.431,168.854L365.489,168.873L365.626,168.915L365.671,168.897L365.71,169.061L365.751,169.066L365.79,169.083L365.819,169.087L365.847,169.114L365.772,169.216L365.741,169.212L365.72,169.209L365.642,169.235L365.612,169.318L365.616,169.454L365.616,169.503L365.61,169.527L365.517,169.576L365.495,169.623L365.556,169.692L365.575,169.707L365.663,169.743L365.698,169.735L365.761,169.682L365.767,169.657L365.759,169.644L365.759,169.533L365.831,169.493L365.845,169.482L365.813,169.577L365.806,169.674L365.813,169.736L365.815,169.786L365.788,169.819L365.751,169.84L365.718,169.849L365.72,169.836L365.698,169.833L365.673,169.856L365.647,169.877L365.587,169.856L365.546,169.851L365.517,169.835L365.458,169.914L365.452,170.05L365.491,170.067L365.522,170.071L365.542,170.086L365.571,170.04L365.608,169.97L365.628,170.034L365.614,170.045L365.642,170.123L365.687,170.178L365.724,170.146L365.735,170.147L365.763,170.175L365.854,170.198L365.876,170.2L365.874,170.213L365.868,170.237L365.86,170.285L365.802,170.253L365.776,170.227L365.765,170.212L365.747,170.198L365.71,170.218L365.677,170.338L365.733,170.382L365.755,170.384L365.78,170.362L365.812,170.366L365.804,170.465L365.796,170.513L365.837,170.53L365.909,170.552L365.858,170.583L365.812,170.664L365.761,170.707L365.724,170.728L365.661,170.832L365.642,170.88L365.69,170.86L365.853,170.743L365.897,170.675L365.923,170.652L365.944,170.655L365.999,170.661L366.03,170.665L366.063,170.669L366.032,170.715L366.034,170.703L366.015,170.689L365.958,170.706L365.853,170.806L365.841,170.804L365.851,170.817L365.897,170.86L365.935,170.84L366.028,170.802L366.05,170.805L366.04,170.865L366.05,170.866L366.054,170.916L365.894,171.01L365.896,171.135L365.913,171.161L366.056,171.103L366.114,171.01L366.132,170.975L366.144,170.902L366.153,170.841L366.204,170.809L366.251,170.789L366.3,170.895L366.321,170.898L366.403,170.868L366.415,170.857L366.413,170.869L366.397,170.968L366.403,171.005L366.421,171.094L366.452,171.11L366.501,171.152L366.521,171.167L366.585,171.187L366.649,171.193L366.704,171.212L366.749,171.204L366.774,171.182L366.853,171.115L366.864,171.105L366.913,171.01L366.921,170.961L366.952,170.89L366.979,170.867L366.989,170.868L367.022,170.872L367.067,170.876L367.12,170.895L367.128,170.907L367.231,170.968L367.343,171.04L367.382,171.081L367.407,171.133L367.487,171.215L367.507,171.23L367.657,171.28L367.78,171.291L367.827,171.271L367.897,171.265L367.985,171.273L368.026,171.227L368.091,171.158L368.157,171.089L368.22,171.045L368.259,170.999L368.269,171.012L368.331,171.054L368.382,171.096L368.466,171.14L368.513,171.144L368.599,171.076L368.638,171.042L368.665,171.007L368.677,170.995L368.749,171.051L368.765,171.113L368.753,171.125L368.653,171.191L368.64,171.203L368.63,171.289L368.651,171.303L368.649,171.327L368.618,171.387L368.599,171.46L368.585,171.483L368.577,171.545L368.585,171.583L368.622,171.66L368.647,171.736L368.606,171.796L368.636,171.947L368.679,171.976L368.677,171.988L368.575,172.079L368.528,172.189L368.491,172.311L368.474,172.371L368.442,172.443L368.354,172.611L368.337,172.673L368.304,172.759L368.28,172.869L368.247,172.979L368.228,173.041L368.192,173.163L368.159,173.249L368.116,173.333L367.966,173.434L367.903,173.467L367.854,173.476L367.786,173.456L367.729,173.44L367.683,173.447L367.636,173.456L367.603,173.44L367.563,173.462L367.515,173.483L367.446,173.477L367.388,173.472L367.376,173.471L367.288,173.425L367.208,173.304L367.198,173.29L367.2,173.277L367.19,173.264L367.179,173.263L367.167,173.262L367.132,173.258L367.085,173.267L366.997,173.232L366.987,173.219L366.899,173.173L366.829,173.19L366.78,173.198L366.724,173.206L366.616,173.232L366.536,173.313L366.524,173.324L366.513,173.323L366.479,173.307L366.396,173.336L366.317,173.403L366.255,173.447L366.171,173.476L366.136,173.473L366.085,173.416L366.034,173.373L365.97,173.34L365.888,173.344L365.739,173.264L365.687,173.232L365.622,173.199L365.55,173.152L365.483,173.145L365.46,173.143L365.417,173.125L365.286,173.084L365.188,173.06L365.116,173.012L365.054,172.98L364.917,172.986L364.907,172.985L364.878,172.957L364.833,172.799L364.72,172.746L364.696,172.743L364.597,172.743L364.544,172.724L364.526,172.695L364.458,172.636L364.427,172.619L364.374,172.611L364.327,172.618L364.296,172.614L364.212,172.577L364.237,172.429L364.167,172.394L364.034,172.336L364.011,172.283L363.913,172.205L363.815,172.204L363.772,172.197L363.716,172.215L363.657,172.231L363.614,172.237L363.503,172.246L363.405,172.307L363.376,172.341L363.366,172.339L363.241,172.421L363.216,172.442L363.136,172.582L363.134,172.722L363.134,172.837L363.146,172.901L363.147,172.953L363.013,173.161L362.837,173.235L362.771,173.237L362.728,173.231L362.649,173.18L362.507,173.003L362.499,172.989C362.235,172.78 362.122,172.735 361.989,172.682L361.894,172.667L361.767,172.555L361.743,172.359L361.72,172.163L361.587,172.049L361.528,172.026L361.479,171.965L361.315,171.857L361.253,171.858L361.073,171.835L360.876,171.745L360.796,171.651L360.712,171.57L360.677,171.55L360.575,171.427L360.606,171.382L360.632,171.361L360.565,171.297L360.493,171.269L360.419,171.278L360.399,171.274L360.384,171.258L360.368,171.241L360.339,171.119L360.419,170.997L360.485,170.935L360.603,170.832L360.655,170.778L360.729,170.616L360.747,170.582L360.763,170.483L360.761,170.457L360.722,170.271L360.7,170.24L360.71,170.166L360.806,170.072L360.817,170.063L360.831,170.053L360.905,169.967L360.94,169.911L360.989,169.807L360.964,169.789L360.89,169.812L360.761,169.847L360.735,169.829L360.71,169.747L360.706,169.695L360.612,169.611L360.517,169.604L360.396,169.651L360.306,169.694L360.042,169.698L360.038,169.647L359.958,169.564L359.911,169.591L359.886,169.61L359.847,169.613L359.772,169.608L359.747,169.564L359.731,169.522L359.735,169.51L359.747,169.474L359.737,169.472L359.729,169.47L359.683,169.497L359.628,169.547L359.573,169.572L359.556,169.567L359.452,169.567L359.435,169.563L359.419,169.547L359.36,169.583L359.315,169.636L359.278,169.665L359.265,169.622L359.257,169.556L359.265,169.532L359.192,169.489L359.085,169.447L358.968,169.43L358.923,169.43L358.837,169.433L358.749,169.422L358.669,169.413L358.599,169.432L358.544,169.455L358.53,169.44L358.501,169.417L358.427,169.423L358.294,169.41L358.138,169.417L358.093,169.417L357.897,169.489L357.856,169.555L357.853,169.567L357.833,169.573L357.8,169.564L357.774,169.557L357.714,169.552L357.706,169.549L357.702,169.534L357.694,169.532L357.657,169.56L357.581,169.602L357.528,169.625L357.493,169.652L357.437,169.688L357.417,169.694L357.31,169.726L357.302,169.723L357.147,169.713L357.071,169.675L357.112,169.609L357.095,169.577L357.024,169.581L356.993,169.597L356.97,169.589L356.927,169.562L356.841,169.559L356.808,169.56L356.788,169.566L356.702,169.537L356.661,169.51L356.624,169.444L356.606,169.278L356.606,169.252L356.554,169.167L356.427,169.188L356.423,169.199L356.368,169.285L356.261,169.446L356.233,169.476L356.14,169.602L356.073,169.671L355.97,169.778L355.841,169.864L355.798,169.899L355.716,169.922L355.63,169.956L355.456,170.035L355.269,170.162L355.257,170.171L355.157,170.306L355.042,170.488L354.999,170.524L354.905,170.62L354.864,170.753L354.839,170.837L354.792,171.073L354.792,171.182L354.679,171.297L354.56,171.437L354.515,171.512L354.458,171.597L354.448,171.606L354.341,171.681L354.335,171.678L354.208,171.772L354.103,171.847L354.065,171.871L353.964,171.906L353.819,171.907L353.749,171.916L353.743,171.912L353.677,171.991L353.589,172.072L353.54,172.172L353.493,172.272L353.417,172.427L353.347,172.446L353.231,172.472L353.21,172.501L353.149,172.606L353.095,172.717L353.056,172.82L353.009,172.905L352.964,173.006L352.962,173.046L352.942,173.104L352.901,173.165L352.854,173.223L352.767,173.34L352.757,173.349L352.702,173.375L352.653,173.416L352.612,173.546L352.579,173.609L352.538,173.683L352.526,173.703L352.464,173.859L352.438,173.956L352.415,174.011L352.3,174.125L352.278,174.18L352.226,174.327L352.212,174.374L352.179,174.491L352.157,174.587L352.149,174.719L352.153,174.735L352.171,174.758L352.204,174.709L352.218,174.662L352.231,174.711L352.251,174.79L352.261,174.822L352.265,174.878L352.28,174.954L352.251,175.073L352.208,175.185L352.2,175.193L352.175,175.286L352.167,175.337L352.165,175.415L352.187,175.603L352.187,175.669L352.181,175.88L352.142,176.138L352.134,176.2L352.108,176.333L352.067,176.429L352.024,176.538L351.983,176.714L351.972,176.786L351.954,176.947L351.862,177.172L351.835,177.209L351.778,177.333L351.794,177.499L351.827,177.609L351.827,177.622L351.843,177.671L351.856,177.796L351.841,177.878L351.827,177.921L351.808,177.962L351.798,178.086L351.821,178.164L351.837,178.264L351.817,178.355L351.804,178.45L351.839,178.637L351.862,178.625L351.862,178.613L351.876,178.646L351.894,178.732L351.925,178.815L351.942,178.862L351.993,178.902L352.03,178.898L352.056,178.899L352.075,178.948L352.095,179.061L352.095,179.073L352.122,179.227L352.167,179.327L352.175,179.343L352.233,179.425L352.233,179.501L352.263,179.642L352.304,179.725L352.317,179.77L352.331,179.802L352.374,179.885L352.419,179.908L352.448,179.947L352.454,179.951L352.478,180.062L352.478,180.087L352.489,180.229L352.556,180.384L352.56,180.459L352.577,180.675L352.579,180.713L352.604,180.797L352.647,180.854L352.683,180.908L352.714,180.959L352.743,181.022L352.769,181.094L352.794,181.178L352.827,181.253L352.866,181.343L352.903,181.385L352.978,181.467L353.042,181.591L353.065,181.638L353.083,181.682L353.14,181.777L353.2,181.923L353.228,181.981L353.29,182.056L353.312,182.078L353.437,182.273L353.585,182.486L353.685,182.622L353.712,182.68L353.884,182.981L353.919,183.029L354.009,183.123L354.046,183.126C354.202,183.101 354.216,183.093 354.304,183.043L354.382,182.991L354.501,182.968L354.54,182.97L354.628,182.991L354.747,183.023L354.952,183.072L354.968,183.078L354.993,183.099L355.089,183.166L355.231,183.273L355.257,183.293L355.339,183.367L355.483,183.484L355.544,183.436L355.604,183.373L355.63,183.369L355.737,183.357L355.774,183.393L355.819,183.419L355.868,183.387L355.946,183.306L355.97,183.289L356.093,183.221L356.181,183.212L356.198,183.205L356.198,183.218L356.239,183.276L356.272,183.263L356.341,183.224L356.399,183.182L356.442,183.171L356.7,183.138L356.839,183.164L356.933,183.19L356.978,183.191L357.017,183.201L357.073,183.229L357.187,183.259L357.224,183.27L357.294,183.312L357.364,183.391L357.544,183.639L357.591,183.758L357.675,183.955L357.765,184.213L357.808,184.258L357.901,184.352L357.97,184.368L358.019,184.393L358.065,184.381L358.116,184.312L358.128,184.326L358.192,184.399L358.222,184.407L358.231,184.409L358.298,184.402L358.442,184.39L358.481,184.388L358.53,184.387L358.608,184.394L358.688,184.412L358.71,184.417L358.72,184.419L358.739,184.412L358.774,184.479L358.78,184.55L358.841,184.668L358.897,184.728L358.972,184.778L359.009,184.752L359.017,184.731L359.036,184.735L359.04,184.771L359.079,184.965L359.114,185.019L359.153,185.097L359.155,185.223L359.167,185.408L359.161,185.6L359.128,185.648L359.099,185.732L359.075,185.773L359.06,185.869L359.126,185.929L359.157,185.947L359.19,186.121L359.198,186.167L359.204,186.214L359.194,186.211L359.185,186.209L359.136,186.275L359.14,186.364L359.149,186.433L359.112,186.567L359.05,186.596L359.038,186.583L358.989,186.571L358.999,186.628L359.11,186.849L359.136,186.887L359.183,186.994L359.313,187.249L359.427,187.401L359.501,187.492L359.599,187.608L359.698,187.725L359.782,187.816L359.929,187.974L360.062,188.168L360.183,188.338L360.212,188.386L360.313,188.55L360.397,188.669L360.409,188.683L360.456,188.763L360.423,188.786L360.399,188.812L360.431,188.869L360.524,188.989L360.628,189.11L360.638,189.153L360.696,189.274L360.808,189.465L360.856,189.554L360.989,189.747L361.099,189.915L361.104,189.936L361.147,190.069L361.118,190.064L361.062,190.101L361.054,190.108L361.056,190.187L361.126,190.343L361.153,190.405L361.214,190.493L361.261,190.559L361.31,190.634L361.356,190.7L361.388,190.743L361.437,190.817L361.474,190.881L361.509,190.972L361.532,191.049L361.556,191.128L361.554,191.273L361.55,191.318L361.505,191.436L361.411,191.48L361.411,191.507L361.405,191.595L361.386,191.617L361.364,191.684L361.397,191.831L361.382,191.89L361.415,191.982L361.452,192.086L361.454,192.138L361.448,192.214L361.444,192.298L361.46,192.402L361.448,192.442L361.458,192.512L361.509,192.613L361.528,192.643L361.556,192.731L361.593,192.846L361.659,192.981L361.665,192.998L361.663,193.015L361.706,193.111L361.733,193.157L361.815,193.271L362.015,193.461L362.06,193.509L362.157,193.614L362.165,193.632L362.271,193.777L362.358,193.864L362.423,193.931L362.509,194.046L362.513,194.055L362.638,194.214L362.706,194.273L362.798,194.365L362.917,194.491L363.081,194.661L363.128,194.706L363.194,194.79L363.185,194.803L363.198,194.878L363.228,194.918C363.323,195.051 363.368,195.217 363.501,195.325L363.56,195.377L363.606,195.434L363.624,195.464L363.657,195.524L363.726,195.63L363.79,195.729L363.829,195.794L363.888,195.831L363.901,195.84L363.919,195.883L363.942,195.945L364.019,196.023L364.048,196.048L364.065,196.064L364.163,196.151L364.308,196.278L364.388,196.336L364.452,196.378L364.7,196.582C365.81,196.086 366.959,195.52 368.18,194.845C369.086,194.344 370.024,193.767 370.993,193.138L370.979,193.128L370.923,193.009L370.888,192.778L370.882,192.714L370.837,192.358L370.817,192.264L370.792,192.12L370.79,192.102L370.813,191.969L370.835,191.941L370.843,191.769L370.733,191.705L370.671,191.674L370.659,191.663L370.456,191.478L370.458,191.37L370.452,191.301L370.368,191.148L370.331,191.116L370.286,191.024L370.329,190.967L370.36,190.898L370.37,190.869L370.327,190.786L370.304,190.774L370.278,190.764L370.276,190.743L370.284,190.693L370.325,190.614L370.372,190.587L370.405,190.568L370.353,190.484L370.249,190.387L370.159,190.31L370.097,190.255L370.03,190.19L370.028,190.148L370.065,190.005L370.097,189.945L370.159,189.792L370.224,189.67L370.257,189.619L370.288,189.547L370.333,189.485L370.345,189.466L370.397,189.341L370.419,189.267L370.438,189.193L370.517,189.058L370.55,188.995L370.536,188.962L370.546,188.908L370.675,188.796L370.726,188.798L370.763,188.811L370.812,188.78L370.882,188.696L370.94,188.611L371.024,188.561L371.12,188.488L371.179,188.381L371.237,188.251L371.272,188.208L371.38,188.079L371.417,188.047L371.515,187.95L371.624,187.854L371.747,187.724L371.894,187.57L371.968,187.493L372.144,187.34L372.167,187.317L372.208,187.29C371.208,187.255 371.208,187.255 372.216,187.285C372.429,187.139 372.644,186.995 372.86,186.855L373.255,186.49L373.28,186.456C373.501,186.2 373.501,186.2 373.638,185.967L373.741,185.79L373.856,185.624L374.052,185.326L374.063,185.218L374.13,185.012L374.208,184.892L374.337,184.697L374.364,184.537L374.403,184.477L374.493,184.391L374.651,183.982L374.69,183.958L374.769,183.87L374.743,183.758L374.743,183.607L374.757,183.52L374.823,183.457L374.927,183.444L374.952,183.457L374.993,183.42L374.888,183.318L374.862,183.306L374.849,183.23L374.849,183.129L374.823,183.04L374.823,182.964L374.862,182.912L374.915,182.823L374.903,182.733L374.89,182.722L374.823,182.683L374.798,182.67L374.692,182.657L374.562,182.721L374.536,182.772L374.497,182.822L374.3,182.872L374.249,182.885L374.183,182.909L374.118,182.947L374.104,182.947L373.935,182.996L373.921,182.983L373.778,182.944L373.726,182.956L373.634,183.006L373.556,183.03L373.399,183.04L373.282,183.038L373.257,183.037L373.165,183.073L373.087,183.136L373.036,183.173L372.88,183.245L372.815,183.218L372.62,183.163L372.528,183.199L372.411,183.272L372.14,183.339L372.075,183.325L371.882,183.218L371.739,183.023L371.7,182.971L371.675,182.906L371.585,182.814L371.534,182.824L371.431,182.834L371.353,182.843L371.313,182.842L371.313,182.829L371.442,182.719L371.521,182.696L371.599,182.648L371.624,182.457L371.624,182.432L371.573,182.328L371.509,182.236L371.433,182.144L371.419,182.155L371.405,182.155L371.329,182.114L371.253,182.022L371.226,181.994L371.149,181.901L371.062,181.795L370.845,181.568L370.808,181.489L370.667,181.343L370.503,181.257L370.438,181.229L370.224,181.076L370.159,181.035L370.11,180.994L369.972,180.819C369.866,180.565 369.866,180.565 369.853,180.364L369.796,180.079L369.724,179.907L369.616,179.684L369.394,179.49L369.308,179.434L369.198,179.323L369.187,179.295L369.128,179.152L369.13,179.089L369.106,179.01L369.067,178.725L369.054,178.417L369.032,178.314L369.036,178.248L369.017,178.106L368.983,178.027L368.915,177.856L368.851,177.66L368.778,177.604L368.685,177.495L368.565,177.397L368.53,177.368L368.382,177.166L368.384,177.114L368.407,176.938L368.421,176.925L368.47,176.929L368.47,176.916L368.534,176.883L368.487,176.828L368.339,176.663L368.274,176.492L368.212,176.36L368.054,176.003L368.013,175.885L367.964,175.74L367.913,175.609L367.864,175.465L367.815,175.333L367.786,175.242L367.757,175.163L367.729,175.06L367.63,174.835L367.618,174.821L367.55,174.675L367.468,174.541L367.397,174.408L367.382,174.33L367.351,174.163L367.36,174.063L367.37,174.089L367.429,174.208L367.456,174.274L367.519,174.368L367.567,174.475L367.577,174.627L367.589,174.628L367.671,174.774L367.79,174.925L367.886,175.047L367.954,175.091L368.007,175.045L368.071,174.833L368.124,174.648L368.155,174.549L368.169,174.537L368.19,174.438L368.175,174.614L368.167,174.69L368.132,174.826L368.06,174.973L368.118,174.989L368.204,174.972L368.296,175.029L368.337,175.108L368.413,175.229L368.476,175.349C368.79,175.912 368.79,175.912 368.864,176.076L368.919,176.157L368.966,176.198L369.065,176.397L369.05,176.434L369.022,176.509L369.063,176.626L369.108,176.731L369.286,176.857L369.31,176.872L369.323,176.872L369.489,177.023L369.62,177.377L369.772,177.642L369.771,177.681L369.751,177.833L369.806,178.053L369.806,178.066L369.79,178.155L369.786,178.219L369.819,178.361L369.94,178.509L370.013,178.59L370.026,178.604L370.157,178.79L370.257,178.872L370.405,178.995L370.466,179.063L370.552,179.194L370.626,179.327L370.673,179.457L370.696,179.535L370.745,179.679L370.917,179.955L371.032,180.025L371.095,180.105L371.093,180.182L371.142,180.299L371.28,180.548L371.292,180.626L371.302,180.831L371.3,181.049L371.323,181.14L371.374,181.321L371.411,181.399L371.487,181.581L371.524,181.775L371.536,181.814L371.548,182.045L371.587,182.226L371.612,182.278L371.677,182.332L371.702,182.319L371.767,182.335L371.806,182.361L371.935,182.379L372.077,182.332L372.206,182.284L372.298,182.211L372.323,182.198L372.362,182.187L372.479,182.113L372.532,182.051L372.558,182.038L372.61,182.026L372.622,182.027L372.765,182.018L372.999,181.959L373.063,181.935L373.169,181.924L373.286,181.901L373.481,181.775L373.495,181.764L373.521,181.776L373.663,181.766L373.95,181.551L373.978,181.513L374.108,181.412L374.198,181.426L374.265,181.426L374.368,181.401L374.435,181.351L374.54,181.313L374.591,181.313C374.737,181.31 374.737,181.31 375.075,181.107L375.101,181.095L375.167,181.082L375.218,181.057L375.231,180.941L375.206,180.813L375.231,180.748L375.31,180.672L375.44,180.568L375.702,180.489L375.819,180.437L375.872,180.411L376.042,180.37L376.093,180.37L376.185,180.381L376.237,180.38L376.354,180.341L376.472,180.133L376.458,180.069L376.522,180.004L376.704,179.962L376.888,179.907L376.925,179.739L377.015,179.52L377.196,179.489L377.429,179.368L377.388,179.202L377.36,179.012L377.358,178.96L377.458,178.662L377.472,178.662L377.497,178.713L377.563,178.787L377.577,178.774L377.589,178.774L377.642,178.721L377.69,178.605L377.854,178.369L377.917,178.277L378.017,178.044L378.052,177.94L378.114,177.887L378.19,177.794L378.138,177.731L378.046,177.71L377.97,177.726L377.931,177.727L377.866,177.665L377.747,177.528L377.681,177.44L377.651,177.353C377.579,177.202 377.579,177.202 377.302,177.171L377.044,177.127L377.019,177.102C376.823,177.022 376.823,177.022 376.694,176.803L376.601,176.588L376.558,176.309L376.53,176.169L376.478,176.094L376.353,176.185L376.327,176.211L376.253,176.288L376.103,176.418L376.015,176.521L375.952,176.61L375.864,176.751L375.749,176.867L375.636,176.996L375.585,177.034L375.546,177.035C375.419,177.018 375.419,177.018 375.151,177.024L375.011,177.037L374.935,177.089L374.884,177.114L374.856,177.101L374.819,177.037L374.794,176.974L374.729,176.91L374.667,176.858L374.628,176.82L374.603,176.807L374.628,176.756L374.706,176.692L374.718,176.578L374.667,176.515L374.618,176.375L374.655,176.336L374.706,176.285L374.644,176.196L374.435,176.068L374.378,176.145L374.313,176.283L374.313,176.462L374.312,176.487L374.286,176.5L374.274,176.462L374.224,176.398L374.099,176.281L374.036,176.205L374.062,176.154L374.089,176.079L374.052,175.926L374.04,175.9L374.04,175.888L374.04,175.824L373.878,175.683L373.743,175.528L373.718,175.49L373.706,175.478L373.571,175.323L373.521,175.298L373.46,175.233L373.362,175.08L373.302,175.016L373.313,175.054L373.173,174.672L373.149,174.608L373.177,174.495L373.228,174.484L373.239,174.484L373.315,174.422L373.366,174.311L373.403,174.273L373.429,174.273L373.552,174.275L373.638,174.276L373.749,174.19L373.763,174.152L373.786,174.19L373.896,174.318L373.944,174.394L373.968,174.457L374.054,174.559L374.079,174.546L374.114,174.635L374.163,174.787L374.274,174.901L374.372,175.041L374.409,175.168L374.495,175.32L374.595,175.347L374.632,175.347L374.72,175.359L374.935,175.537L374.958,175.563L375.034,175.625L375.097,175.65L375.198,175.689L375.298,175.714L375.325,175.765L375.399,175.84L375.45,175.853L375.501,175.864L375.563,175.864L375.704,175.901L375.78,175.939L375.806,175.95L375.843,175.95L375.944,175.899L376.03,175.821L376.081,175.77L376.118,175.731L376.118,175.744L376.134,175.832L376.171,175.921L376.222,175.907L376.284,175.869L376.372,175.766L376.382,175.639L376.37,175.613L376.382,175.613L376.407,175.612L376.419,175.612L376.47,175.649L376.61,175.724L376.675,175.76L376.714,175.848L376.808,176.087L376.835,176.189L376.913,176.288L377.028,176.324L377.194,176.37L377.321,176.343L377.474,176.325L377.538,176.374L377.655,176.435L377.782,176.418L378.101,176.419L378.19,176.454L378.28,176.476L378.384,176.51L378.64,176.551L378.765,176.507L378.866,176.465L379.167,176.399L379.206,176.398L379.284,176.432L379.362,176.453L379.437,176.437L379.522,176.381L379.573,176.365L379.649,176.361L379.778,176.393L379.919,176.398L380.257,176.314L380.394,176.279L380.509,176.297L380.587,176.317L380.616,176.379L380.659,176.479L380.763,176.497L380.864,176.516L380.884,176.642L380.946,176.855L381.001,176.902L381.134,176.995L381.146,176.981L381.157,176.981L381.366,177.041L381.392,177.053L381.444,177.1L381.499,177.172L381.817,177.403L381.845,177.413L381.948,177.431L382.06,177.384L382.271,177.275L382.237,177.381L382.054,177.512L381.942,177.585L381.866,177.553L381.8,177.532L381.7,177.592L381.729,177.653L381.81,177.698L381.901,177.755L381.995,177.85L382.075,177.92L382.249,178.059L382.343,178.128L382.397,178.188L382.517,178.292L382.542,178.303L382.608,178.322L382.72,178.261L382.882,178.194L383.044,178.103L383.056,178.088L383.155,177.822L383.099,177.751L383.058,177.69L383.091,177.623L383.11,177.506L383.108,177.493L383.122,177.491L383.177,177.564L383.192,177.613L383.208,177.65L383.271,177.861L383.261,177.889L383.228,177.969L383.267,178.017L383.435,178.27L383.401,178.35L383.374,178.558L383.444,178.692L383.501,178.802L383.501,178.84L383.523,178.942L386.717,176.499C386.836,176.416 386.944,176.35 387.043,176.297C387.933,175.616 388.995,175.21 390.104,175.086C391.802,172.794 393.145,170.759 394.226,168.806C394.446,168.405 394.635,168.027 394.836,167.64L394.815,167.65L394.782,167.683L394.749,167.685L394.728,167.682L394.663,167.673L394.538,167.638L394.528,167.629L394.468,167.604L394.437,167.591L394.423,167.61L394.405,167.634L394.382,167.755L394.423,167.901L394.431,167.939L394.403,168.007L394.386,168.015L394.362,168.012L394.274,167.971L394.249,167.941L394.202,167.866L394.198,167.855L394.138,167.76L394.11,167.717L394.073,167.665L394.015,167.61L394.001,167.644L393.985,167.678L393.952,167.733L393.923,167.733L393.837,167.702L393.774,167.676L393.718,167.646L393.679,167.608L393.61,167.502L393.599,167.44L393.585,167.391L393.591,167.388L393.644,167.406L393.665,167.424L393.731,167.409L393.757,167.384L393.784,167.331L393.786,167.303L393.769,167.215L393.714,167.09L393.692,167.045L393.7,167L393.726,166.976L393.757,166.906L393.755,166.867L393.735,166.738L393.69,166.581L393.681,166.545L393.681,166.518L393.704,166.521L393.749,166.526L393.8,166.516L393.806,166.472L393.806,166.458L393.884,166.518L393.927,166.538L393.96,166.577L394.011,166.802L393.993,166.795L393.993,166.81L394.021,166.866L394.052,166.934L394.12,167.024L394.165,167.03L394.192,167.045L394.233,167.163L394.226,167.194L394.224,167.251L394.251,167.279L394.267,167.3L394.3,167.312L394.323,167.286L394.349,167.162L394.339,167.098L394.331,167.047L394.331,167.032L394.327,166.937L394.339,166.889L394.356,166.825L394.388,166.794L394.452,166.69L394.464,166.671L394.499,166.624L394.558,166.635L394.595,166.644L394.604,166.651L394.661,166.677L394.698,166.671L394.724,166.672L394.739,166.677L394.796,166.744L394.823,166.801L394.876,166.913L394.929,166.97L394.938,167.035L394.981,167.153L394.997,167.174L395.032,167.238L395.049,167.235C395.147,167.041 395.255,166.841 395.348,166.651L395.3,166.619L395.118,166.529L395.077,166.481L394.987,166.361L394.993,166.3L395.001,166.28L395.03,166.204L395.026,166.149L395.017,166.023L394.987,165.94L394.978,165.901L394.97,165.862L394.899,165.717L394.782,165.572L394.759,165.542L394.692,165.439L394.642,165.28L394.677,165.301L394.681,165.298L394.671,165.202L394.644,165.146L394.601,165.026L394.589,164.975L394.579,164.937L394.571,164.912L394.56,164.891L394.638,164.927L394.657,164.93L394.696,164.948L394.778,164.982L394.794,164.987L394.813,164.942L394.812,164.93L394.815,164.927L394.853,164.932L394.882,164.835L394.886,164.832L394.888,164.785L394.886,164.696L394.837,164.501L394.755,164.301L394.72,164.251L394.63,164.103L394.497,163.83L394.442,163.701L394.425,163.654L394.298,163.409L394.271,163.368L394.183,163.233L394.13,163.164L394.022,163.013L393.978,162.954L393.901,162.842L393.862,162.763L393.808,162.648L393.784,162.605L393.737,162.531L393.708,162.507L393.604,162.398L393.515,162.312L393.45,162.252L393.372,162.173L393.317,162.121L393.177,161.995L393.136,161.963L393.077,161.914L393.034,161.885L392.909,161.792L392.847,161.716L392.806,161.669L392.696,161.534L392.651,161.477L392.69,161.493L392.708,161.495L392.757,161.507L392.808,161.53L392.837,161.555L392.888,161.578L392.944,161.612L392.966,161.626L393.019,161.665L393.05,161.687L393.106,161.738L393.14,161.774L393.194,161.826L393.276,161.872L393.3,161.884L393.368,161.94L393.612,162.156L393.743,162.287L393.772,162.327L393.837,162.402L393.862,162.414L393.913,162.436L393.987,162.484L394.032,162.511L394.06,162.535L394.112,162.588L394.144,162.626L394.173,162.666L394.188,162.684L394.259,162.754L394.296,162.771L394.329,162.79L394.39,162.85L394.407,162.867L394.444,162.916L394.483,162.964L394.563,163.039L394.669,163.124L394.673,163.121L394.688,163.14L394.726,163.172L394.739,163.177L394.749,163.185L394.741,163.158L394.737,163.145L394.681,163.063L394.634,163.007L394.61,162.98L394.573,162.931L394.581,162.923L394.579,162.906L394.593,162.911L394.603,162.919L394.63,162.909L394.638,162.901L394.651,162.905L394.677,162.915L394.679,162.912L394.714,162.928L394.786,162.993L394.79,162.99L394.8,162.98L394.772,162.939L394.759,162.918L394.688,162.851L394.659,162.828L394.63,162.806L394.62,162.799L394.579,162.773L394.563,162.771L394.538,162.762L394.542,162.79L394.532,162.782L394.462,162.716L394.435,162.69L394.419,162.673L394.339,162.614L394.335,162.617L394.327,162.625L394.31,162.642L394.274,162.606L394.214,162.564L394.194,162.548L394.138,162.499L394.087,162.446L394.024,162.388L393.995,162.362L393.954,162.317L393.897,162.253L393.851,162.212L393.794,162.148L393.765,162.107L393.763,162.092L393.769,162.071L393.765,162.059L393.774,162.065L393.79,162.068L393.813,162.065L393.829,162.066L393.854,162.075L393.884,162.082L393.913,162.088L393.95,162.105L393.987,162.121L394.017,162.143L394.054,162.158L394.067,162.163L394.065,162.13L394.017,162.075L393.995,162.061L393.956,162.048L393.944,162.043L393.89,162.01L393.864,162.001L393.817,161.978L393.786,161.956L393.745,161.927L393.683,161.884L393.481,161.749L393.351,161.666L393.337,161.662L393.239,161.614L393.069,161.482L393.067,161.485L392.919,161.397L392.843,161.347L392.737,161.273L392.536,161.115L392.384,161.03L392.249,160.944L392.147,160.881L392.021,160.806L391.847,160.716L391.843,160.719L391.837,160.724L391.847,160.761L391.888,160.807L391.907,160.823L392.015,160.899L392.099,160.915L392.155,160.951L392.187,160.975L392.196,160.981L392.194,160.984L392.194,160.999L392.188,161.018L392.185,161.021L392.159,161.009L392.132,160.997L392.138,161.023L392.153,161.042L392.229,161.124L392.347,161.193L392.444,161.275L392.478,161.312L392.538,161.374L392.569,161.413L392.513,161.377L392.466,161.351L392.394,161.295L392.325,161.237L392.296,161.214L392.263,161.206L392.261,161.224L392.251,161.214L392.206,161.156L392.108,161.104L392.073,161.082L392.007,161.054L391.915,161.024L391.866,161.013L391.747,160.972L391.733,160.967L391.726,160.957L391.667,160.936L391.624,160.919L391.571,160.896L391.563,160.914L391.567,160.969L391.567,161.026L391.493,161.014L391.499,161.038L391.589,161.127L391.601,161.134L391.642,161.194L391.647,161.233L391.655,161.273L391.577,161.247L391.522,161.179L391.511,161.172L391.464,161.171L391.462,161.214L391.452,161.233L391.452,161.248L391.456,161.26L391.433,161.245L391.401,161.206L391.403,161.192L391.407,161.19L391.446,161.181L391.452,161.149L391.388,161.046L391.362,161.02L391.313,160.99L391.31,160.993L391.298,161.014L391.282,160.981L391.21,160.897L391.022,160.82L391.015,160.825L391.028,160.887L391.071,160.933L391.2,160.998L391.261,161.035L391.28,161.052L391.319,161.086L391.317,161.114L391.274,161.098L391.187,161.034L391.183,161.036L391.147,161.028L391.138,161.033L391.11,161.007L391.101,160.984L391.022,160.917L390.993,160.919L390.995,160.959L391.011,160.979L391.077,161.039L391.112,161.047L391.12,161.07L391.114,161.088L391.089,161.087L391.04,161.086L390.978,161.077L390.925,161.079L390.901,161.105L390.896,161.106L390.894,161.095L390.878,161.021L390.851,160.94L390.821,160.901L390.794,160.874L390.782,160.799L390.78,160.773L390.72,160.642L390.698,160.599L390.624,160.487L390.616,160.479L390.495,160.339L390.464,160.274L390.425,160.186L390.321,160.023L390.286,159.989L390.241,159.945L390.216,159.891L390.167,159.808L390.118,159.726L390.036,159.622L390.028,159.612L390.005,159.475L390.024,159.464L390.04,159.455L390.05,159.422L390.058,159.389L390.093,159.396L390.126,159.39L390.138,159.383L390.142,159.381L390.149,159.39L390.2,159.401L390.226,159.387L390.245,159.374L390.261,159.365L390.265,159.362L390.296,159.385L390.37,159.381L390.302,159.297L390.335,159.303L390.394,159.295L390.396,159.293L390.413,159.281L390.442,159.291L390.462,159.265L390.437,159.222L390.419,159.19L390.425,159.187L390.46,159.206L390.513,159.244L390.563,159.269L390.573,159.262L390.567,159.251L390.511,159.143L390.438,159.089L390.427,159.083L390.417,159.073L390.407,159.052L390.431,159.05L390.507,159.056L390.515,159.049L390.558,159.049L390.589,159.056L390.603,159.031L390.626,158.998L390.646,158.969L390.649,158.949L390.655,158.944L390.696,158.96L390.733,158.977L390.735,158.993L390.757,159.099L390.858,159.145L390.878,159.145L390.938,159.128L390.925,159.077L390.925,159.062L390.938,159.065L390.976,159.067L390.981,159.063L391.001,159.063L390.979,159.016L390.948,158.979L390.907,158.933L390.925,158.932L390.929,158.93L390.931,158.928L390.948,158.93L391.007,158.929L391.011,158.842L390.991,158.809L390.94,158.772L390.856,158.747L390.831,158.755L390.79,158.757L390.71,158.729L390.638,158.677L390.585,158.592L390.575,158.568L390.505,158.482L390.458,158.442L390.397,158.398L390.343,158.347L390.337,158.336L390.261,158.271L390.251,158.265L390.224,158.19L390.249,158.168L390.265,158.17L390.286,158.168L390.288,158.15L390.261,158.108L390.255,158.098L390.306,158.084L390.343,158.101L390.374,158.104L390.378,158.1L390.337,158.036L390.333,158.023L390.388,158.057L390.478,158.125L390.509,158.146L390.517,158.153L390.597,158.196L390.647,158.217L390.665,158.216L390.669,158.194L390.663,158.182L390.692,158.204L390.722,158.228L390.751,158.253L390.815,158.292L390.792,158.227L390.759,158.189L390.763,158.185L390.741,158.152L390.708,158.117L390.638,158.046L390.552,157.956L390.542,157.932L390.556,157.936L390.587,157.937L390.585,157.901L390.567,157.883L390.464,157.815L390.456,157.823L390.413,157.816L390.392,157.803L390.304,157.752L390.278,157.742L390.255,157.732L390.247,157.723L390.224,157.656L390.228,157.651L390.269,157.663L390.282,157.667L390.333,157.7L390.464,157.795L390.522,157.823L390.536,157.826L390.56,157.836L390.589,157.858L390.599,157.867L390.702,157.936L390.712,157.925L390.716,157.92L390.716,157.918L390.724,157.928L390.782,157.976L390.825,157.999L390.847,158.011L390.856,158.02L390.854,158.022L390.839,158.021L390.862,158.071L390.909,158.15L390.962,158.22L390.987,158.23L391.06,158.277L391.155,158.374L391.177,158.406L391.231,158.476L391.306,158.541L391.351,158.584L391.384,158.62L391.454,158.689L391.54,158.759L391.636,158.875L391.642,158.925L391.638,158.93L391.683,158.991L391.69,159L391.685,159.007L391.653,159.004L391.647,159.029L391.665,159.047L391.741,159.092L391.821,159.132L391.931,159.23L391.964,159.268L392.03,159.341L392.339,159.585L392.521,159.693L392.71,159.809L392.86,159.893L392.999,159.97C393.132,160.061 393.267,160.15 393.401,160.24C394.519,161.574 395.475,163.041 396.285,164.596C396.647,163.735 396.945,162.912 397.202,162.109C392.631,154.63 384.39,149.627 375.001,149.627C360.664,149.627 349.001,161.291 349.001,175.627C349.001,185.012 354.001,193.252 361.476,197.823Z" style="fill:rgb(77,78,78);fill-rule:nonzero;"/>
    </g>
    <g transform="matrix(4.16667,0,0,4.16667,-1449.55,-618.82)">
        <path d="M400.041,171.923C399.683,172.614 399.309,173.293 398.927,173.965C398.965,174.516 399.001,175.067 399.001,175.627C399.001,188.86 388.234,199.627 375.001,199.627C374.444,199.627 373.896,199.587 373.35,199.549C372.675,199.932 371.993,200.308 371.298,200.67C370.944,200.854 370.592,201.01 370.238,201.182C371.784,201.469 373.374,201.627 375.001,201.627C389.338,201.627 401.001,189.963 401.001,175.627C401.001,173.998 400.843,172.406 400.556,170.859C400.383,171.214 400.226,171.569 400.041,171.923Z" style="fill:rgb(77,78,78);fill-rule:nonzero;"/>
    </g>
    <g transform="matrix(4.16667,0,0,4.16667,-1449.55,-618.82)">
        <path d="M378.754,193.699C379.46,193.165 380.161,192.61 380.857,192.042L378.95,190.135L379.638,189.387L379.462,189.211C378.626,189.923 377.782,190.622 376.914,191.294C374.363,193.244 371.77,195.057 369.108,196.528C366.45,197.997 363.768,199.211 361.13,199.951C358.507,200.674 355.893,200.943 353.721,200.336C353.178,200.193 352.683,199.969 352.214,199.724C351.996,199.577 351.765,199.45 351.562,199.292C351.39,199.136 351.103,198.95 351.02,198.831C350.666,198.407 350.192,197.991 350.026,197.592C349.908,197.393 349.791,197.194 349.674,197.001C349.559,196.802 349.501,196.556 349.411,196.341C349.326,196.118 349.244,195.899 349.164,195.684C349.103,195.461 349.069,195.232 349.021,195.012C348.935,194.568 348.822,194.143 348.814,193.715C348.785,193.291 348.743,192.882 348.729,192.488C348.743,192.093 348.755,191.716 348.769,191.359C348.863,189.928 349.024,188.787 349.197,188.029C349.355,187.261 349.438,186.851 349.438,186.851C349.438,186.851 349.298,187.245 349.035,187.984C348.906,188.356 348.723,188.807 348.592,189.364C348.459,189.92 348.229,190.549 348.148,191.289C348.091,191.657 348.032,192.045 347.969,192.453C347.935,192.864 347.929,193.3 347.906,193.754C347.861,194.21 347.929,194.685 347.978,195.181C348.008,195.429 348.022,195.684 348.067,195.941C348.133,196.194 348.2,196.452 348.269,196.713C348.349,196.976 348.391,197.246 348.508,197.515C348.637,197.784 348.765,198.058 348.898,198.335C349.15,198.949 349.517,199.303 349.846,199.787C350.724,200.855 351.842,201.56 353.154,202.046C355.776,203.003 358.782,202.872 361.69,202.224C364.619,201.573 367.561,200.446 370.411,198.964C373.261,197.482 376.085,195.736 378.754,193.699Z" style="fill:rgb(77,78,78);fill-rule:nonzero;"/>
    </g>
    <g transform="matrix(4.16667,0,0,4.16667,-1449.55,-618.82)">
        <path d="M393.822,183.979L393.895,183.815C395.271,182.19 395.211,179.764 393.68,178.232C392.146,176.699 389.721,176.639 388.096,178.016L387.933,178.087L376.901,186.528L386.729,180.251C386.572,180.946 386.609,181.669 386.815,182.355L380.068,189.698L387.167,183.178C387.277,183.372 387.403,183.554 387.547,183.732L380.423,191.488L388.178,184.364C389.183,185.17 390.462,185.449 391.66,185.181L385.382,195.008L393.822,183.979Z" style="fill:rgb(77,78,78);fill-rule:nonzero;"/>
    </g>
    <g transform="matrix(4.16667,0,0,4.16667,-1449.55,-618.82)">
        <clipPath id="_clip1">
            <path d="M357.379,202.737C357.352,202.737 357.324,202.737 357.296,202.737L357.463,202.737C357.435,202.737 357.407,202.737 357.379,202.737Z"/>
        </clipPath>
        <g clip-path="url(#_clip1)">
            <path d="M357.296,202.737L357.463,202.737C357.463,202.737 357.296,202.737 357.296,202.737L357.296,202.737Z" style="fill:url(#_Linear2);fill-rule:nonzero;"/>
        </g>
    </g>
    <defs>
        <linearGradient id="_Linear2" x1="0" y1="0" x2="1" y2="0" gradientUnits="userSpaceOnUse" gradientTransform="matrix(-1.76267e-06,-40.3252,40.3252,-1.76267e-06,375,243.063)"><stop offset="0" style="stop-color:rgb(77,78,78);stop-opacity:1"/><stop offset="1" style="stop-color:rgb(77,78,78);stop-opacity:1"/></linearGradient>
    </defs>
</svg>
