<?xml version="1.0" encoding="UTF-8" standalone="no"?>
<!DOCTYPE svg PUBLIC "-//W3C//DTD SVG 1.1//EN" "http://www.w3.org/Graphics/SVG/1.1/DTD/svg11.dtd">
<svg width="100%" height="100%" viewBox="0 0 160 221" version="1.1" xmlns="http://www.w3.org/2000/svg" xmlns:xlink="http://www.w3.org/1999/xlink" xml:space="preserve" xmlns:serif="http://www.serif.com/" style="fill-rule:evenodd;clip-rule:evenodd;stroke-linejoin:round;stroke-miterlimit:1.41421;">
    <g transform="matrix(4.16667,0,0,4.16667,-649.306,-1049.96)">
        <path d="M176.237,292.608L176.237,295.305C176.237,297.656 173.569,299.299 169.749,299.299C165.929,299.299 163.261,297.656 163.261,295.305L163.262,292.608C159.717,293.578 157.35,295.313 157.35,297.299L157.35,299.469C157.35,302.513 162.901,304.982 169.749,304.982C176.597,304.982 182.148,302.513 182.148,299.469L182.148,297.299C182.148,295.313 179.781,293.578 176.237,292.608Z" style="fill:rgb(77,78,78);fill-rule:nonzero;"/>
    </g>
    <g transform="matrix(4.16667,0,0,4.16667,-649.306,-1049.96)">
        <path d="M165.262,291.203L165.262,295.303L165.261,295.305C165.261,296.405 167.271,297.299 169.749,297.299C172.228,297.299 174.237,296.405 174.237,295.305L174.237,291.201C174.237,292.303 172.228,293.196 169.749,293.196C167.271,293.196 165.264,292.304 165.262,291.203Z" style="fill:rgb(77,78,78);fill-rule:nonzero;"/>
    </g>
    <g transform="matrix(4.16667,0,0,4.16667,-649.306,-1049.96)">
        <path d="M172.897,289.978C170.634,288.949 168.418,287.606 166.335,285.983L166.335,289.378L166.322,289.378C166.322,290.218 167.857,290.9 169.749,290.9C171.162,290.9 172.373,290.52 172.897,289.978Z" style="fill:rgb(77,78,78);fill-rule:nonzero;"/>
    </g>
    <g transform="matrix(4.16667,0,0,4.16667,-649.306,-1049.96)">
        <path d="M178.047,259.938C179.301,260.905 180.533,261.989 181.733,263.142L170.513,274.361C169.946,274.02 169.406,273.933 169.143,274.196C168.766,274.571 169.094,275.509 169.875,276.29C170.655,277.07 171.593,277.398 171.969,277.023C172.232,276.759 172.145,276.219 171.803,275.651L184.633,262.821C184.384,262.648 184.144,262.459 183.924,262.239C183.706,262.022 183.518,261.781 183.343,261.532L183.157,261.718C182.577,261.16 181.992,260.615 181.4,260.099L178.047,259.938Z" style="fill:rgb(77,78,78);fill-rule:nonzero;"/>
    </g>
    <g transform="matrix(4.16667,0,0,4.16667,-649.306,-1049.96)">
        <path d="M190.054,270.111L190.272,274.64C192.539,279.482 192.753,283.552 190.942,285.362C190.125,286.179 188.897,286.593 187.291,286.593C182.328,286.593 175.285,282.756 169.346,276.818C160.465,267.938 157.716,258.311 160.803,255.222C161.62,254.405 162.849,253.991 164.455,253.991L164.456,251.991L164.455,251.991C162.373,251.991 160.622,252.575 159.389,253.808C153.098,260.1 155.375,272.581 164.48,281.685C173.33,290.535 185.354,292.91 191.798,287.258C191.994,287.109 192.182,286.951 192.356,286.776C195.535,283.599 194.384,276.98 190.054,270.111Z" style="fill:rgb(77,78,78);fill-rule:nonzero;"/>
    </g>
    <g transform="matrix(4.16667,0,0,4.16667,-649.306,-1049.96)">
        <path d="M173.565,256.942L166.574,256.605C166.245,255.892 165.76,255.444 165.356,255.553C164.843,255.69 164.658,256.668 164.943,257.733C165.229,258.8 165.877,259.552 166.391,259.414C166.693,259.333 166.878,258.958 166.923,258.449L182.455,259.199C182.427,258.979 182.39,258.761 182.39,258.535C182.39,258.139 182.444,257.752 182.53,257.375L177.59,257.138C172.862,253.84 168.141,251.991 164.456,251.991L164.456,253.991C167.069,253.991 170.262,255.065 173.565,256.942Z" style="fill:rgb(77,78,78);fill-rule:nonzero;"/>
    </g>
    <g transform="matrix(4.16667,0,0,4.16667,-649.306,-1049.96)">
        <path d="M186.75,279.773C186.612,280.286 187.364,280.935 188.432,281.221C189.497,281.506 190.473,281.32 190.611,280.808C190.72,280.404 190.273,279.919 189.56,279.591L188.79,263.635C188.412,263.72 188.026,263.774 187.63,263.774C187.404,263.774 187.187,263.737 186.966,263.71L187.076,265.981C186.548,265.329 186.002,264.679 185.418,264.036L184.004,265.451C185.229,266.804 186.303,268.16 187.246,269.499L187.716,279.24C187.206,279.286 186.831,279.471 186.75,279.773Z" style="fill:rgb(77,78,78);fill-rule:nonzero;"/>
    </g>
    <g transform="matrix(4.16667,0,0,4.16667,-649.306,-1049.96)">
        <path d="M189.92,260.825C191.186,259.561 191.186,257.509 189.92,256.244C188.656,254.98 186.604,254.979 185.339,256.244C184.073,257.509 184.074,259.561 185.339,260.825C186.604,262.091 188.655,262.092 189.92,260.825Z" style="fill:rgb(77,78,78);fill-rule:nonzero;"/>
    </g>
</svg>
