<?xml version="1.0" encoding="UTF-8" standalone="no"?>
<!DOCTYPE svg PUBLIC "-//W3C//DTD SVG 1.1//EN" "http://www.w3.org/Graphics/SVG/1.1/DTD/svg11.dtd">
<svg width="100%" height="100%" viewBox="0 0 143 224" version="1.1" xmlns="http://www.w3.org/2000/svg" xmlns:xlink="http://www.w3.org/1999/xlink" xml:space="preserve" xmlns:serif="http://www.serif.com/" style="fill-rule:evenodd;clip-rule:evenodd;stroke-linejoin:round;stroke-miterlimit:1.41421;">
    <g transform="matrix(4.16667,0,0,4.16667,-657.99,-1453.48)">
        <path d="M179.303,401.32C173.83,401.32 169.393,399.184 169.393,396.545L169.393,397.645C169.393,400.281 173.83,402.42 179.304,402.418C184.778,402.42 189.214,400.281 189.214,397.645L189.215,396.545C189.214,399.182 184.778,401.32 179.303,401.32Z" style="fill:rgb(77,78,78);fill-rule:nonzero;"/>
    </g>
    <g transform="matrix(4.16667,0,0,4.16667,-657.99,-1453.48)">
        <path d="M178.601,371.934L168.298,359.709L168.531,359.465C171.945,356.051 175.766,353.43 179.221,352.014L186.526,351.27C186.867,351.43 187.179,351.617 187.428,351.865C190.1,354.539 187.635,362.957 179.827,370.764C179.424,371.166 179.014,371.555 178.601,371.934ZM164.024,379.393C162.655,379.393 161.615,379.047 160.93,378.361C160.682,378.113 160.493,377.803 160.334,377.463L161.072,370.211C162.397,366.938 164.718,363.484 167.734,360.299L177.998,372.479C173.193,376.731 167.885,379.393 164.024,379.393ZM162.617,355.012C162.796,354.975 162.961,354.906 163.118,354.82L163.117,354.822L166.439,358.762C164.536,360.754 162.916,362.822 161.614,364.873L162.617,355.012ZM167.891,357.303C167.632,357.551 167.372,357.795 167.116,358.051L167.002,358.172L164.776,355.529L167.618,357.563C167.708,357.475 167.8,357.391 167.891,357.303ZM164.077,353.553L173.912,352.555C172.003,353.768 170.075,355.256 168.213,356.992L163.947,353.94C164.002,353.816 164.048,353.69 164.077,353.553ZM190.467,352.078L188.842,350.451L188.609,350.242L188.58,350.244C187.501,349.305 186.054,348.836 184.335,348.836C181.822,348.836 178.764,349.801 175.579,351.568L175.569,351.568L164.069,352.738C163.877,351.895 163.125,351.264 162.223,351.264C161.176,351.264 160.327,352.111 160.327,353.158C160.327,354.061 160.958,354.813 161.801,355.004L160.63,366.529C157.66,371.889 156.992,376.869 159.31,379.522L159.516,379.775L161.142,381.402C165.043,385.303 174.769,381.902 182.867,373.805C190.966,365.705 194.367,355.979 190.467,352.078Z" style="fill:rgb(77,78,78);fill-rule:nonzero;"/>
    </g>
    <g transform="matrix(4.16667,0,0,4.16667,-657.99,-1453.48)">
        <path d="M184.906,390.609L184.906,392.705C184.906,394.869 182.55,396.441 179.304,396.441C176.058,396.441 173.702,394.869 173.702,392.705L173.702,390.609C171.1,391.469 169.392,392.912 169.393,394.545C169.393,397.184 173.83,399.32 179.303,399.32C184.778,399.32 189.214,397.182 189.215,394.545C189.215,392.912 187.507,391.471 184.906,390.609Z" style="fill:rgb(77,78,78);fill-rule:nonzero;"/>
    </g>
    <g transform="matrix(4.16667,0,0,4.16667,-657.99,-1453.48)">
        <path d="M175.702,392.705C175.702,393.662 177.314,394.441 179.304,394.441C181.293,394.441 182.906,393.662 182.906,392.705L182.906,376.531C180.58,378.67 178.13,380.469 175.702,381.854L175.702,392.705Z" style="fill:rgb(77,78,78);fill-rule:nonzero;"/>
    </g>
    <g transform="matrix(4.16667,0,0,4.16667,-657.99,-1453.48)">
        <clipPath id="_clip1">
            <rect x="157.918" y="402.418" width="34.165" height="53.582"/>
        </clipPath>
        <g clip-path="url(#_clip1)">
            <clipPath id="_clip2">
                <path d="M179.311,402.418C179.309,402.418 179.306,402.418 179.304,402.418L179.312,402.418L179.311,402.418ZM179.296,402.418L179.295,402.418L179.304,402.418C179.301,402.418 179.299,402.418 179.296,402.418Z"/>
            </clipPath>
            <g clip-path="url(#_clip2)">
                <path d="M179.295,402.418L179.312,402.418C179.312,402.418 179.295,402.418 179.295,402.418L179.295,402.418Z" style="fill:url(#_Linear3);fill-rule:nonzero;"/>
            </g>
        </g>
    </g>
    <defs>
        <linearGradient id="_Linear3" x1="0" y1="0" x2="1" y2="0" gradientUnits="userSpaceOnUse" gradientTransform="matrix(-1.76271e-06,-40.3262,40.3262,-1.76271e-06,175,442.744)"><stop offset="0" style="stop-color:rgb(77,78,78);stop-opacity:1"/><stop offset="1" style="stop-color:rgb(77,78,78);stop-opacity:1"/></linearGradient>
    </defs>
</svg>
