<?xml version="1.0" encoding="UTF-8" standalone="no"?>
<!DOCTYPE svg PUBLIC "-//W3C//DTD SVG 1.1//EN" "http://www.w3.org/Graphics/SVG/1.1/DTD/svg11.dtd">
<svg width="100%" height="100%" viewBox="0 0 269 193" version="1.1" xmlns="http://www.w3.org/2000/svg" xmlns:xlink="http://www.w3.org/1999/xlink" xml:space="preserve" xmlns:serif="http://www.serif.com/" style="fill-rule:evenodd;clip-rule:evenodd;stroke-linejoin:round;stroke-miterlimit:1.41421;">
    <g transform="matrix(4.16667,0,0,4.16667,-1011.82,-1483.8)">
        <path d="M301.266,396.379L248.734,396.379L248.734,362.152L301.266,362.152L301.266,396.379ZM281.303,401.008C280.369,401.008 279.609,400.252 279.609,399.314C279.609,398.381 280.369,397.623 281.303,397.623C282.238,397.623 282.996,398.381 282.996,399.314C282.996,400.252 282.238,401.008 281.303,401.008ZM275,401.008C274.066,401.008 273.309,400.252 273.309,399.314C273.309,398.381 274.066,397.623 275,397.623C275.934,397.623 276.691,398.381 276.691,399.314C276.691,400.252 275.934,401.008 275,401.008ZM268.697,401.008C267.762,401.008 267.004,400.252 267.004,399.314C267.004,398.381 267.762,397.623 268.697,397.623C269.631,397.623 270.391,398.381 270.391,399.314C270.391,400.252 269.631,401.008 268.697,401.008ZM303.777,356.113L246.221,356.113C244.352,356.113 242.838,357.627 242.838,359.498L242.838,399.033C242.838,400.902 244.352,402.418 246.221,402.418L303.777,402.418C305.646,402.418 307.162,400.902 307.162,399.033L307.162,359.498C307.162,357.627 305.646,356.113 303.777,356.113Z" style="fill:rgb(77,78,78);fill-rule:nonzero;"/>
    </g>
    <g transform="matrix(4.16667,0,0,4.16667,-1011.82,-1483.8)">
        <path d="M277.516,379.127L277.652,382.391C278.064,381.574 278.484,380.764 278.893,379.949L279.127,379.488L279.188,379.373L279.215,379.315L279.223,379.301C279.361,379.102 279.266,379.238 279.299,379.188L279.313,379.158L279.434,378.92L279.912,377.975C280.223,377.406 280.557,376.606 280.859,375.873C281.463,374.406 281.787,372.977 282.014,371.574C282.146,370.154 282.182,368.811 281.947,367.596C281.764,366.385 281.398,365.326 281.002,364.449C280.928,364.281 280.852,364.125 280.775,363.971L278.689,363.971C278.797,364.322 278.896,364.701 278.965,365.113C279.115,365.908 279.193,366.807 279.105,367.76C279.068,368.713 278.771,369.719 278.432,370.731C278.008,371.721 277.477,372.785 276.791,373.705C276.451,374.164 276.17,374.596 275.662,375.16L274.977,375.969L274.803,376.17L274.783,376.197C274.809,376.156 274.705,376.303 274.838,376.109L274.826,376.125L274.783,376.176L274.691,376.281L274.332,376.701L274.26,376.785C274.547,376.678 274.84,376.623 275.133,376.623C276.26,376.623 277.439,377.484 277.516,379.127Z" style="fill:rgb(77,78,78);fill-rule:nonzero;"/>
    </g>
    <g transform="matrix(4.16667,0,0,4.16667,-1011.82,-1483.8)">
        <path d="M272.918,393.565L270.08,389.99L264.104,390.244C264.033,390.348 263.963,390.455 263.893,390.559C263.166,391.619 262.533,392.65 261.926,393.592C261.707,393.932 261.512,394.242 261.312,394.559L272.553,394.559C272.672,394.234 272.797,393.897 272.918,393.565Z" style="fill:rgb(77,78,78);fill-rule:nonzero;"/>
    </g>
    <g transform="matrix(4.16667,0,0,4.16667,-1011.82,-1483.8)">
        <path d="M263.576,388.445L270.928,388.135L275.504,393.895C275.982,394.494 276.342,394.359 276.307,393.596L275.697,379.211C275.662,378.447 275.152,378.215 274.553,378.688L263.279,387.641C262.68,388.115 262.813,388.475 263.576,388.445Z" style="fill:rgb(77,78,78);fill-rule:nonzero;"/>
    </g>
    <g transform="matrix(4.16667,0,0,4.16667,-1011.82,-1483.8)">
        <path d="M289.453,367.746C289.453,366.19 290.717,364.928 292.27,364.928C293.826,364.928 295.086,366.19 295.086,367.746C295.086,369.301 293.826,370.563 292.27,370.563C290.717,370.563 289.453,369.301 289.453,367.746ZM292.27,376.576L292.27,376.619L292.277,376.576L292.287,376.619L292.287,376.535C292.758,373.338 296.164,370.99 296.164,367.746C296.164,365.6 294.43,363.861 292.287,363.852C290.125,363.861 288.389,365.6 288.389,367.746C288.389,370.803 291.418,373.065 292.16,375.994C292.236,376.289 292.27,376.555 292.27,376.576Z" style="fill:rgb(77,78,78);fill-rule:nonzero;"/>
    </g>
</svg>
