<?xml version="1.0" encoding="UTF-8" standalone="no"?>
<!DOCTYPE svg PUBLIC "-//W3C//DTD SVG 1.1//EN" "http://www.w3.org/Graphics/SVG/1.1/DTD/svg11.dtd">
<svg width="100%" height="100%" viewBox="0 0 240 240" version="1.1" xmlns="http://www.w3.org/2000/svg" xmlns:xlink="http://www.w3.org/1999/xlink" xml:space="preserve" xmlns:serif="http://www.serif.com/" style="fill-rule:evenodd;clip-rule:evenodd;stroke-linejoin:round;stroke-miterlimit:1.41421;">
    <g transform="matrix(4.16667,0,0,4.16667,-609.246,-200.825)">
        <path d="M177.666,79.645C179.638,77.673 181.341,75.654 182.715,73.714C184.065,71.807 185.077,70.006 185.714,68.418C186.335,66.875 186.594,65.548 186.473,64.525C186.356,63.537 185.888,62.834 185.053,62.488C184.249,62.153 183.183,62.177 181.951,62.491C180.759,62.794 179.405,63.374 177.974,64.168C176.574,64.948 175.088,65.942 173.586,67.109C173.114,67.474 172.64,67.865 172.164,68.267C172.384,68.544 172.563,68.844 172.703,69.164C173.173,68.765 173.64,68.359 174.111,67.993C175.531,66.889 176.921,65.959 178.241,65.223C179.535,64.504 180.743,63.992 181.735,63.739C182.917,63.437 183.429,63.588 183.557,63.643C183.626,63.67 183.703,63.703 183.743,64.046C183.789,64.433 183.769,65.325 183.117,66.947C182.532,68.402 181.573,70.091 180.344,71.827C178.988,73.74 177.364,75.647 175.517,77.496C173.668,79.343 171.761,80.968 169.848,82.323C168.11,83.553 166.424,84.512 164.967,85.096C163.345,85.748 162.453,85.768 162.066,85.723C161.725,85.682 161.691,85.605 161.662,85.537C161.609,85.409 161.458,84.896 161.759,83.715C162.012,82.722 162.525,81.514 163.243,80.221C163.979,78.9 164.91,77.511 166.013,76.091C166.379,75.621 166.785,75.154 167.181,74.686C166.862,74.545 166.563,74.365 166.286,74.146C165.885,74.62 165.494,75.094 165.129,75.565C163.962,77.067 162.968,78.553 162.189,79.953C161.394,81.384 160.814,82.739 160.512,83.931C160.197,85.163 160.174,86.229 160.508,87.032C160.855,87.867 161.557,88.335 162.546,88.453C163.568,88.573 164.896,88.314 166.438,87.694C168.026,87.056 169.828,86.044 171.735,84.694C173.675,83.32 175.694,81.618 177.666,79.645Z" style="fill:rgb(77,78,78);fill-rule:nonzero;"/>
    </g>
    <g transform="matrix(4.16667,0,0,4.16667,-609.246,-200.825)">
        <path d="M170.422,69.339C169.575,68.493 168.205,68.494 167.359,69.338C166.514,70.185 166.513,71.557 167.358,72.403C167.932,72.976 168.746,73.151 169.476,72.946L171.062,76.799L171.063,76.797L171.135,76.829C171.2,76.836 171.353,76.833 171.631,76.722C171.881,76.622 172.171,76.457 172.468,76.246C172.796,76.013 173.123,75.735 173.438,75.418C173.756,75.102 174.033,74.775 174.267,74.448C174.479,74.149 174.642,73.86 174.741,73.611C174.854,73.333 174.857,73.18 174.849,73.114L174.817,73.043L170.966,71.458C171.171,70.728 170.996,69.914 170.422,69.339Z" style="fill:rgb(77,78,78);fill-rule:nonzero;"/>
    </g>
    <g transform="matrix(4.16667,0,0,4.16667,-609.246,-200.825)">
        <path d="M158.637,87.811C158.373,87.175 158.251,86.456 158.251,85.669L146.219,97.049L146.761,105.761L161.345,90.253C160.09,89.862 159.142,89.023 158.637,87.811Z" style="fill:rgb(77,78,78);fill-rule:nonzero;"/>
    </g>
    <g transform="matrix(4.16667,0,0,4.16667,-609.246,-200.825)">
        <path d="M188.273,63.324L203.781,48.74L195.07,48.198L183.688,60.231C184.478,60.231 185.198,60.353 185.832,60.617C187.043,61.121 187.882,62.069 188.273,63.324Z" style="fill:rgb(77,78,78);fill-rule:nonzero;"/>
    </g>
    <g transform="matrix(4.16667,0,0,4.16667,-609.246,-200.825)">
        <path d="M163.529,74.321C164.003,73.711 164.507,73.104 165.027,72.5C164.813,71.991 164.697,71.44 164.697,70.87C164.699,69.75 165.135,68.697 165.927,67.906C166.719,67.114 167.771,66.678 168.891,66.678C169.459,66.678 170.01,66.792 170.52,67.007C171.123,66.488 171.73,65.983 172.342,65.508C172.55,65.347 172.756,65.197 172.963,65.042L171.03,62.686L160.708,73.009L163.063,74.942C163.219,74.736 163.368,74.529 163.529,74.321Z" style="fill:rgb(77,78,78);fill-rule:nonzero;"/>
    </g>
    <g transform="matrix(4.16667,0,0,4.16667,-609.246,-200.825)">
        <path d="M190.827,73.898L186.662,69.733L186.66,69.735C186.699,69.772 186.738,69.846 186.762,70.043C186.795,70.332 186.784,70.946 186.422,72.005L190.827,73.898Z" style="fill:rgb(77,78,78);fill-rule:nonzero;"/>
    </g>
    <g transform="matrix(4.16667,0,0,4.16667,-609.246,-200.825)">
        <path d="M202.343,85.418L202.346,85.417L196.561,79.631L177.664,98.528L183.399,104.264C183.424,104.321 183.452,104.388 183.747,104.424C184.082,104.463 184.85,104.445 186.249,103.883C187.505,103.379 188.961,102.552 190.459,101.492C192.109,100.324 193.755,98.921 195.349,97.328C196.943,95.734 198.344,94.088 199.512,92.438C200.573,90.941 201.4,89.485 201.904,88.228C202.466,86.829 202.483,86.061 202.445,85.727C202.42,85.529 202.383,85.456 202.343,85.418Z" style="fill:rgb(77,78,78);fill-rule:nonzero;"/>
    </g>
    <g transform="matrix(4.16667,0,0,4.16667,-609.246,-200.825)">
        <path d="M168.064,88.741C167.937,88.725 167.864,88.705 167.815,88.68L171.9,92.765L170.026,88.401C168.966,88.764 168.352,88.774 168.064,88.741Z" style="fill:rgb(77,78,78);fill-rule:nonzero;"/>
    </g>
    <g transform="matrix(4.16667,0,0,4.16667,-609.246,-200.825)">
        <path d="M185.182,73.678C184.922,74.078 184.657,74.478 184.368,74.885C182.881,76.986 181.108,79.069 179.099,81.078C177.092,83.086 175.009,84.859 172.908,86.347C172.5,86.636 172.099,86.901 171.7,87.161L176.046,97.28L195.3,78.025L185.182,73.678Z" style="fill:rgb(77,78,78);fill-rule:nonzero;"/>
    </g>
</svg>
