<?xml version="1.0" encoding="UTF-8" standalone="no"?>
<!DOCTYPE svg PUBLIC "-//W3C//DTD SVG 1.1//EN" "http://www.w3.org/Graphics/SVG/1.1/DTD/svg11.dtd">
<svg width="100%" height="100%" viewBox="0 0 252 252" version="1.1" xmlns="http://www.w3.org/2000/svg" xmlns:xlink="http://www.w3.org/1999/xlink" xml:space="preserve" xmlns:serif="http://www.serif.com/" style="fill-rule:evenodd;clip-rule:evenodd;stroke-linejoin:round;stroke-miterlimit:1.41421;">
    <g transform="matrix(4.16667,0,0,4.16667,-1436.94,-189.558)">
        <path d="M344.865,60.268L351.398,66.802L366.176,52.028L359.641,45.494L344.865,60.268Z" style="fill:rgb(77,78,78);fill-rule:nonzero;"/>
    </g>
    <g transform="matrix(4.16667,0,0,4.16667,-1436.94,-189.558)">
        <path d="M354.703,70.105L361.236,76.639L376.012,61.864L369.479,55.33L354.703,70.105Z" style="fill:rgb(77,78,78);fill-rule:nonzero;"/>
    </g>
    <g transform="matrix(4.16667,0,0,4.16667,-1436.94,-189.558)">
        <path d="M356.15,64.625L356.881,65.354L358.014,64.222L357.283,63.492L356.15,64.625Z" style="fill:rgb(77,78,78);fill-rule:nonzero;"/>
    </g>
    <g transform="matrix(4.16667,0,0,4.16667,-1436.94,-189.558)">
        <path d="M364.252,56.526L363.117,57.657L363.848,58.387L364.979,57.254L364.252,56.526Z" style="fill:rgb(77,78,78);fill-rule:nonzero;"/>
    </g>
    <g transform="matrix(4.16667,0,0,4.16667,-1436.94,-189.558)">
        <path d="M373.988,89.39L380.521,95.924L395.297,81.15L388.762,74.615L373.988,89.39Z" style="fill:rgb(77,78,78);fill-rule:nonzero;"/>
    </g>
    <g transform="matrix(4.16667,0,0,4.16667,-1436.94,-189.558)">
        <path d="M398.6,84.452L383.824,99.226L390.359,105.761L405.135,90.986L398.6,84.452Z" style="fill:rgb(77,78,78);fill-rule:nonzero;"/>
    </g>
    <g transform="matrix(4.16667,0,0,4.16667,-1436.94,-189.558)">
        <path d="M392.24,86.78L392.969,87.509L394.102,86.376L393.373,85.647L392.24,86.78Z" style="fill:rgb(77,78,78);fill-rule:nonzero;"/>
    </g>
    <g transform="matrix(4.16667,0,0,4.16667,-1436.94,-189.558)">
        <path d="M386.404,92.615L385.273,93.747L386.002,94.476L387.133,93.343L386.404,92.615Z" style="fill:rgb(77,78,78);fill-rule:nonzero;"/>
    </g>
    <g transform="matrix(4.16667,0,0,4.16667,-1436.94,-189.558)">
        <path d="M390.758,70.061L390.939,68.682L390.938,68.682L390.941,68.681C391.305,68.318 389.615,66.039 387.166,63.59C384.717,61.143 382.439,59.453 382.074,59.816L382.074,59.815L380.693,59.999C381.553,60.172 383.863,61.973 386.324,64.433C388.781,66.891 390.58,69.2 390.758,70.061Z" style="fill:rgb(77,78,78);fill-rule:nonzero;"/>
    </g>
    <g transform="matrix(4.16667,0,0,4.16667,-1436.94,-189.558)">
        <path d="M384.973,65.655C382.123,62.803 379.469,60.836 379.045,61.26L370.26,70.044C370.684,69.621 373.336,71.589 376.188,74.439C379.037,77.29 381.006,79.943 380.582,80.366L389.367,71.581C389.791,71.158 387.822,68.504 384.973,65.655Z" style="fill:rgb(77,78,78);fill-rule:nonzero;"/>
    </g>
    <g transform="matrix(4.16667,0,0,4.16667,-1436.94,-189.558)">
        <path d="M370.234,70.097L370.26,70.044L370.221,70.083L370.234,70.097Z" style="fill:rgb(77,78,78);fill-rule:nonzero;"/>
    </g>
    <g transform="matrix(4.16667,0,0,4.16667,-1436.94,-189.558)">
        <path d="M380.543,80.405L380.582,80.366L380.531,80.392L380.543,80.405Z" style="fill:rgb(77,78,78);fill-rule:nonzero;"/>
    </g>
    <g transform="matrix(4.16667,0,0,4.16667,-1436.94,-189.558)">
        <path d="M365.219,85.41C362.568,82.76 360.104,80.93 359.709,81.323L359.707,81.321L360.412,84.173C360.66,83.926 362.213,85.079 363.881,86.747C365.551,88.416 366.703,89.968 366.455,90.216L369.303,90.919C369.697,90.525 367.867,88.058 365.219,85.41Z" style="fill:rgb(77,78,78);fill-rule:nonzero;"/>
    </g>
    <g transform="matrix(4.16667,0,0,4.16667,-1436.94,-189.558)">
        <path d="M376.236,76.042L376.158,75.959C375.92,75.71 375.676,75.46 375.422,75.207L375.422,75.206C375.168,74.953 374.918,74.709 374.67,74.473L374.582,74.389C374.33,74.15 374.082,73.919 373.84,73.701L373.838,73.699C371.852,71.904 370.225,70.807 369.91,71.12L360.994,80.035L360.994,80.037C361.391,79.646 363.855,81.474 366.506,84.124C369.154,86.772 370.982,89.239 370.59,89.632L379.508,80.716C379.857,80.365 378.434,78.357 376.236,76.042Z" style="fill:rgb(77,78,78);fill-rule:nonzero;"/>
    </g>
    <g transform="matrix(4.16667,0,0,4.16667,-1436.94,-189.558)">
        <path d="M362.594,88.032C360.926,86.363 359.371,85.21 359.125,85.459L356.945,87.638L356.785,87.798C356.535,88.046 357.689,89.599 359.357,91.269C361.027,92.938 362.58,94.089 362.828,93.841L362.828,93.84L365.168,91.501C365.414,91.253 364.264,89.7 362.594,88.032Z" style="fill:rgb(77,78,78);fill-rule:nonzero;"/>
    </g>
    <g transform="matrix(4.16667,0,0,4.16667,-1436.94,-189.558)">
        <path d="M356.785,87.797L356.945,87.638C356.988,87.593 356.943,87.638 356.785,87.797Z" style="fill:rgb(77,78,78);fill-rule:nonzero;"/>
    </g>
</svg>
