<?xml version="1.0" encoding="UTF-8" standalone="no"?>
<!DOCTYPE svg PUBLIC "-//W3C//DTD SVG 1.1//EN" "http://www.w3.org/Graphics/SVG/1.1/DTD/svg11.dtd">
<svg width="100%" height="100%" viewBox="0 0 217 217" version="1.1" xmlns="http://www.w3.org/2000/svg" xmlns:xlink="http://www.w3.org/1999/xlink" xml:space="preserve" xmlns:serif="http://www.serif.com/" style="fill-rule:evenodd;clip-rule:evenodd;stroke-linejoin:round;stroke-miterlimit:1.41421;">
    <g transform="matrix(4.16667,0,0,4.16667,-620.835,-628.071)">
        <path d="M187.677,164.059C186.671,163.054 185.641,162.185 184.652,161.484C183.679,160.795 182.76,160.279 181.95,159.954C181.163,159.637 180.486,159.505 179.964,159.567C179.46,159.626 179.102,159.865 178.925,160.291C178.754,160.701 178.767,161.245 178.926,161.873C179.082,162.481 179.377,163.172 179.782,163.902C180.18,164.616 180.687,165.375 181.282,166.141C181.469,166.381 181.668,166.624 181.873,166.866C182.015,166.754 182.167,166.663 182.331,166.591C182.127,166.352 181.92,166.113 181.733,165.873C181.17,165.148 180.695,164.44 180.32,163.766C179.954,163.106 179.692,162.489 179.563,161.983C179.409,161.38 179.486,161.12 179.514,161.054C179.528,161.019 179.544,160.98 179.72,160.959C179.917,160.936 180.372,160.946 181.2,161.278C181.942,161.577 182.804,162.066 183.689,162.693C184.665,163.385 185.638,164.213 186.581,165.156C187.523,166.099 188.353,167.072 189.043,168.048C189.671,168.934 190.16,169.794 190.458,170.538C190.791,171.365 190.801,171.82 190.778,172.017C190.757,172.191 190.718,172.209 190.683,172.223C190.618,172.25 190.356,172.328 189.754,172.174C189.247,172.045 188.631,171.783 187.971,171.417C187.297,171.041 186.589,170.566 185.865,170.004C185.625,169.817 185.386,169.61 185.147,169.408C185.076,169.57 184.984,169.724 184.872,169.864C185.114,170.069 185.356,170.269 185.596,170.455C186.362,171.05 187.121,171.557 187.834,171.954C188.564,172.36 189.255,172.656 189.864,172.81C190.492,172.971 191.036,172.982 191.445,172.812C191.872,172.635 192.111,172.277 192.17,171.773C192.231,171.251 192.1,170.574 191.783,169.787C191.458,168.977 190.942,168.058 190.253,167.085C189.552,166.095 188.684,165.065 187.677,164.059Z" style="fill:rgb(77,78,78);fill-rule:nonzero;"/>
    </g>
    <g transform="matrix(4.16667,0,0,4.16667,-620.835,-628.071)">
        <path d="M182.42,167.755C181.988,168.187 181.989,168.886 182.419,169.317C182.852,169.749 183.551,169.749 183.983,169.317C184.275,169.025 184.365,168.609 184.26,168.237L186.226,167.428L186.225,167.427L186.241,167.391C186.245,167.357 186.243,167.28 186.187,167.138C186.135,167.01 186.051,166.862 185.943,166.711C185.825,166.544 185.683,166.377 185.521,166.216C185.36,166.054 185.193,165.913 185.026,165.794C184.874,165.686 184.726,165.602 184.599,165.551C184.457,165.494 184.379,165.492 184.346,165.497L184.31,165.512L183.5,167.477C183.128,167.373 182.713,167.462 182.42,167.755Z" style="fill:rgb(77,78,78);fill-rule:nonzero;"/>
    </g>
    <g transform="matrix(4.16667,0,0,4.16667,-620.835,-628.071)">
        <path d="M191.843,173.767C191.519,173.901 191.152,173.963 190.75,173.963L196.556,180.102L201,179.825L193.089,172.385C192.889,173.025 192.461,173.509 191.843,173.767Z" style="fill:rgb(77,78,78);fill-rule:nonzero;"/>
    </g>
    <g transform="matrix(4.16667,0,0,4.16667,-620.835,-628.071)">
        <path d="M179.352,158.648L171.912,150.737L171.635,155.181L177.774,160.987C177.774,160.585 177.836,160.217 177.97,159.894C178.228,159.276 178.711,158.848 179.352,158.648Z" style="fill:rgb(77,78,78);fill-rule:nonzero;"/>
    </g>
    <g transform="matrix(4.16667,0,0,4.16667,-620.835,-628.071)">
        <path d="M184.961,171.271C184.65,171.029 184.34,170.772 184.032,170.507C183.772,170.616 183.492,170.675 183.201,170.675C182.63,170.674 182.092,170.452 181.689,170.048C181.285,169.644 181.063,169.107 181.063,168.536C181.063,168.246 181.121,167.965 181.23,167.705C180.965,167.397 180.708,167.087 180.466,166.775C180.384,166.669 180.307,166.564 180.228,166.459L179.026,167.444L184.292,172.71L185.278,171.509C185.173,171.429 185.067,171.353 184.961,171.271Z" style="fill:rgb(77,78,78);fill-rule:nonzero;"/>
    </g>
    <g transform="matrix(4.16667,0,0,4.16667,-620.835,-628.071)">
        <path d="M184.746,157.345L182.621,159.47L182.622,159.471C182.641,159.451 182.679,159.431 182.779,159.419C182.926,159.402 183.24,159.408 183.78,159.593L184.746,157.345Z" style="fill:rgb(77,78,78);fill-rule:nonzero;"/>
    </g>
    <g transform="matrix(4.16667,0,0,4.16667,-620.835,-628.071)">
        <path d="M190.623,151.471L190.622,151.469L187.67,154.42L197.31,164.06L200.236,161.134C200.266,161.122 200.299,161.107 200.318,160.957C200.338,160.786 200.329,160.395 200.042,159.681C199.785,159.04 199.363,158.297 198.822,157.533C198.226,156.691 197.511,155.852 196.698,155.039C195.885,154.226 195.045,153.511 194.204,152.915C193.44,152.374 192.697,151.952 192.056,151.695C191.342,151.408 190.95,151.399 190.78,151.419C190.679,151.432 190.642,151.451 190.623,151.471Z" style="fill:rgb(77,78,78);fill-rule:nonzero;"/>
    </g>
    <g transform="matrix(4.16667,0,0,4.16667,-620.835,-628.071)">
        <path d="M192.317,168.957L192.287,169.085L194.37,167.001L192.144,167.957C192.329,168.498 192.334,168.811 192.317,168.957Z" style="fill:rgb(77,78,78);fill-rule:nonzero;"/>
    </g>
    <g transform="matrix(4.16667,0,0,4.16667,-620.835,-628.071)">
        <path d="M196.626,172.676L196.633,172.657L196.645,172.763L196.626,172.676ZM196.769,172.971L196.743,172.875L196.719,172.833L196.686,172.754L196.661,172.642L196.647,172.594L196.651,172.522L196.647,172.51L196.62,172.345L196.6,172.257L196.55,172.089L196.537,172.083L196.531,172.086L196.506,172.171L196.518,172.233L196.524,172.273L196.504,172.269L196.436,172.208L196.391,172.163L196.377,172.157L196.344,172.133L196.331,172.169L196.315,172.204L196.29,172.273L196.272,172.255L196.29,172.162L196.285,172.082L196.295,172.034L196.333,172.013L196.366,171.954L196.357,171.903L196.292,171.799L196.28,171.777L196.243,171.757L196.237,171.744L196.24,171.73L196.233,171.608L196.135,171.466L196.106,171.453L196.052,171.426L195.993,171.359L195.975,171.327L195.898,171.312L195.833,171.29L195.782,171.218L195.687,171.073L195.653,171.034L195.59,170.968L195.524,170.891L195.497,170.849L195.331,170.667L195.25,170.65L195.155,170.628L195.106,170.608L195.04,170.558L195.019,170.54L194.997,170.44L194.977,170.202L194.987,170.032L195.001,169.998L194.997,169.918L194.979,169.87L194.961,169.824L194.993,169.698L194.996,169.655L195.01,169.593L195.016,169.59L195.1,169.618L195.106,169.601L195.112,169.599L195.118,169.512L195.092,169.468L195.064,169.414L195.049,169.38L195.016,169.313L194.979,169.304L194.94,169.321L194.907,169.354L194.874,169.355L194.852,169.353L194.848,169.352L194.003,170.196C194.035,170.327 194.073,170.46 194.096,170.587L196.761,173.093L196.782,173.021L196.769,172.971Z" style="fill:rgb(77,78,78);fill-rule:nonzero;"/>
    </g>
    <g transform="matrix(4.16667,0,0,4.16667,-620.835,-628.071)">
        <path d="M198.749,166.171L197.484,166.714L197.31,166.888L197.241,166.819L196.903,166.963C198.039,169.494 198.752,172.25 198.943,175.146L200.996,177.075C201.046,173.196 200.237,169.502 198.749,166.171Z" style="fill:rgb(77,78,78);fill-rule:nonzero;"/>
    </g>
    <g transform="matrix(4.16667,0,0,4.16667,-620.835,-628.071)">
        <path d="M173.736,160.022L173.84,160.082L173.899,160.112L173.926,160.124L173.958,160.152L173.977,160.173L174.003,160.174L173.741,159.925L173.701,159.974L173.723,160.012L173.736,160.022Z" style="fill:rgb(77,78,78);fill-rule:nonzero;"/>
    </g>
    <g transform="matrix(4.16667,0,0,4.16667,-620.835,-628.071)">
        <path d="M198.42,181.989C195.985,192.86 186.168,200.925 174.604,200.733C171.72,200.686 168.962,200.128 166.414,199.149L166.417,199.144L166.51,199.149L166.553,199.161L166.588,199.171L166.682,199.207L166.734,199.22L166.777,199.212L166.805,199.2L166.843,199.216L166.864,199.226L166.958,199.26L166.993,199.27L167.073,199.261L167.093,199.248L167.111,199.23L167.153,199.252L167.24,199.284L167.289,199.282L167.278,199.243L167.258,199.208L167.286,199.218L167.381,199.241L167.422,199.247L167.614,199.192L167.745,199.11L167.838,199.039L167.865,199.014L167.922,198.952L168.01,198.87L168.056,198.847L168.131,198.778L168.165,198.706L168.206,198.625L168.251,198.532L168.259,198.509L168.266,198.484L168.316,198.396L168.444,198.296L168.549,198.171L168.525,198.077L168.561,197.941L168.572,197.889L168.575,197.726L168.553,197.681L168.523,197.644L168.492,197.634L168.474,197.64L168.462,197.631L168.449,197.616L168.486,197.522L168.618,197.43L168.654,197.427L168.771,197.403L168.863,197.391L168.971,197.364L169.006,197.355L169.101,197.313L169.151,197.281L169.244,197.181L169.158,197.106L169.125,197.089L169.146,197.054L169.19,196.946L169.122,196.729L169.114,196.689L169.109,196.667L169.085,196.603L169.043,196.545L168.988,196.471L168.974,196.407L168.947,196.326L168.945,196.318L168.858,196.192L168.834,196.175L168.756,196.095L168.739,195.956L168.735,195.933L168.745,195.933L168.883,195.954L168.918,195.925L168.969,195.864L169.039,195.79L169.067,195.776L169.134,195.733L169.155,195.733L169.187,195.737L169.258,195.728L169.341,195.593L169.378,195.556L169.431,195.485L169.546,195.401L169.57,195.411L169.589,195.4L169.738,195.315L169.786,195.269L169.867,195.224L169.901,195.233L170.007,195.217L170.122,195.174L170.194,195.144L170.225,195.128L170.329,195.067L170.368,195.035L170.458,194.937L170.569,194.841L170.63,194.772L170.67,194.599L170.699,194.546L170.699,194.411L170.686,194.401L170.63,194.282L170.6,194.051L170.595,193.986L170.555,193.63L170.538,193.534L170.516,193.392L170.514,193.372L170.54,193.239L170.561,193.213L170.572,193.04L170.463,192.976L170.402,192.942L170.389,192.932L170.189,192.743L170.194,192.636L170.189,192.565L170.108,192.411L170.07,192.38L170.028,192.287L170.072,192.23L170.104,192.162L170.113,192.134L170.073,192.05L170.048,192.038L170.023,192.026L170.022,192.006L170.031,191.956L170.074,191.878L170.12,191.851L170.154,191.833L170.102,191.748L170.001,191.65L169.913,191.57L169.85,191.515L169.786,191.448L169.783,191.407L169.823,191.265L169.856,191.205L169.92,191.053L169.988,190.932L170.021,190.882L170.054,190.81L170.1,190.749L170.112,190.73L170.167,190.606L170.188,190.532L170.209,190.458L170.29,190.324L170.325,190.263L170.312,190.23L170.322,190.175L170.453,190.066L170.503,190.067L170.541,190.081L170.589,190.052L170.661,189.97L170.721,189.886L170.806,189.836L170.903,189.765L170.964,189.659L171.023,189.53L171.06,189.487L171.17,189.36L171.207,189.329L171.306,189.233L171.418,189.139L171.542,189.011L171.692,188.86L171.768,188.784L171.945,188.634L171.97,188.612L172.011,188.585C171.012,188.533 171.012,188.533 172.019,188.58C172.234,188.437 172.452,188.298 172.67,188.16L173.071,187.803L173.097,187.769C173.322,187.517 173.322,187.517 173.462,187.286L173.568,187.11L173.687,186.946L173.886,186.651L173.9,186.544L173.969,186.339L174.05,186.22L174.183,186.028L174.211,185.868L174.252,185.808L174.344,185.724L174.508,185.318L174.548,185.294L174.628,185.208L174.604,185.095L174.607,184.944L174.622,184.856L174.688,184.796L174.793,184.784L174.818,184.798L174.859,184.761L174.756,184.658L174.73,184.646L174.719,184.569L174.72,184.468L174.696,184.379L174.698,184.303L174.737,184.251L174.791,184.163L174.78,184.073L174.767,184.062L174.702,184.022L174.676,184.009L174.572,183.993L174.44,184.056L174.414,184.105L174.373,184.155L174.176,184.202L174.124,184.214L174.058,184.237L173.992,184.274L173.978,184.274L173.809,184.32L173.795,184.308L173.652,184.266L173.6,184.276L173.508,184.325L173.429,184.349L173.272,184.355L173.156,184.352L173.129,184.351L173.038,184.385L172.959,184.446L172.906,184.481L172.749,184.552L172.685,184.523L172.49,184.466L172.399,184.5L172.281,184.57L172.008,184.634L171.944,184.618L171.751,184.508L171.613,184.31L171.575,184.258L171.55,184.192L171.461,184.099L171.41,184.108L171.307,184.116L171.23,184.124L171.19,184.122L171.19,184.11L171.321,184.001L171.399,183.981L171.478,183.935L171.507,183.743L171.508,183.718L171.458,183.613L171.395,183.521L171.32,183.427L171.307,183.438L171.293,183.438L171.218,183.396L171.143,183.302L171.116,183.274L171.042,183.18L170.955,183.071L170.742,182.841L170.706,182.762L170.569,182.612L170.405,182.524L170.342,182.495L170.129,182.339L170.066,182.297L170.017,182.255L169.882,182.078C169.781,181.821 169.781,181.821 169.77,181.621L169.718,181.335L169.649,181.162L169.544,180.937L169.326,180.739L169.24,180.682L169.133,180.569L169.121,180.541L169.065,180.397L169.068,180.334L169.047,180.255L169.012,179.969L169.004,179.661L168.984,179.558L168.988,179.491L168.971,179.35L168.939,179.271L168.875,179.099L168.813,178.901L168.742,178.843L168.65,178.733L168.533,178.632L168.498,178.604L168.353,178.399L168.356,178.347L168.382,178.171L168.395,178.159L168.408,178.159L168.444,178.163L168.445,178.15L168.509,178.118L168.463,178.063L168.317,177.896L168.257,177.724L168.195,177.591L168.043,177.23L168.005,177.112L167.958,176.966L167.91,176.835L167.864,176.689L167.816,176.558L167.789,176.466L167.76,176.386L167.735,176.282L167.64,176.056L167.628,176.042L167.562,175.895L167.481,175.759L167.414,175.626L167.399,175.547L167.371,175.38L167.383,175.278L167.391,175.306L167.448,175.426L167.475,175.493L167.536,175.587L167.583,175.694L167.59,175.847L167.602,175.849L167.682,175.996L167.797,176.149L167.892,176.273L167.959,176.317L168.012,176.273L168.081,176.062L168.136,175.876L168.17,175.778L168.183,175.767L168.206,175.667L168.187,175.845L168.179,175.919L168.142,176.056L168.067,176.2L168.125,176.218L168.211,176.202L168.301,176.261L168.342,176.341L168.415,176.462L168.477,176.583C168.781,177.151 168.781,177.151 168.853,177.317L168.907,177.399L168.953,177.44L169.048,177.642L169.033,177.678L169.003,177.753L169.043,177.87L169.085,177.977L169.262,178.106L169.286,178.12L169.298,178.12L169.461,178.274L169.587,178.63L169.734,178.897L169.732,178.937L169.711,179.089L169.761,179.31L169.761,179.323L169.744,179.411L169.74,179.476L169.77,179.618L169.889,179.768L169.96,179.85L169.973,179.864L170.101,180.052L170.199,180.136L170.346,180.261L170.405,180.329L170.489,180.463L170.56,180.597L170.606,180.728L170.628,180.806L170.673,180.95L170.842,181.23L170.955,181.302L171.016,181.382L171.013,181.459L171.061,181.577L171.194,181.828L171.205,181.907L171.212,182.112L171.205,182.329L171.228,182.421L171.275,182.603L171.311,182.683L171.384,182.864L171.418,183.06L171.43,183.099L171.438,183.329L171.473,183.511L171.498,183.564L171.561,183.618L171.586,183.606L171.652,183.623L171.689,183.65L171.818,183.67L171.961,183.626L172.092,183.579L172.184,183.508L172.21,183.495L172.249,183.485L172.367,183.413L172.421,183.352L172.447,183.339L172.5,183.329L172.512,183.329L172.655,183.322L172.89,183.268L172.955,183.245L173.06,183.235L173.177,183.215L173.376,183.093L173.389,183.081L173.414,183.094L173.558,183.085L173.848,182.876L173.875,182.838L174.007,182.739L174.098,182.755L174.164,182.755L174.269,182.733L174.334,182.683L174.441,182.648L174.493,182.648C174.639,182.648 174.639,182.648 174.979,182.45L175.006,182.438L175.071,182.427L175.124,182.402L175.139,182.287L175.116,182.157L175.143,182.094L175.222,182.019L175.355,181.917L175.616,181.843L175.735,181.792L175.788,181.768L175.958,181.73L176.01,181.731L176.102,181.743L176.155,181.742L176.272,181.706L176.391,181.499L176.379,181.436L176.446,181.371L176.627,181.332L176.811,181.28L176.852,181.113L176.946,180.896L177.127,180.868L177.362,180.751L177.324,180.584L177.299,180.394L177.299,180.341L177.403,180.045L177.417,180.046L177.442,180.097L177.506,180.172L177.52,180.159L177.532,180.159L177.584,180.107L177.637,179.991L177.804,179.759L177.869,179.668L177.971,179.437L178.008,179.333L178.073,179.28L178.15,179.189L178.097,179.126L178.006,179.103L177.929,179.117L177.891,179.118L177.827,179.055L177.709,178.916L177.645,178.827L177.618,178.739C177.547,178.587 177.547,178.587 177.27,178.552L177.014,178.503L176.99,178.478C176.795,178.394 176.795,178.394 176.669,178.173L176.581,177.957L176.541,177.677L176.516,177.537L176.465,177.461L176.338,177.55L176.313,177.575L176.237,177.651L176.084,177.778L175.995,177.88L175.931,177.969L175.84,178.108L175.724,178.222L175.608,178.349L175.557,178.386L175.518,178.387C175.392,178.367 175.392,178.367 175.123,178.37L174.982,178.38L174.905,178.431L174.854,178.454L174.828,178.44L174.791,178.376L174.767,178.313L174.704,178.248L174.642,178.195L174.604,178.157L174.579,178.143L174.605,178.093L174.683,178.03L174.698,177.916L174.648,177.852L174.601,177.712L174.638,177.673L174.691,177.623L174.629,177.533L174.422,177.401L174.364,177.478L174.298,177.614L174.294,177.793L174.293,177.818L174.268,177.831L174.256,177.792L174.207,177.728L174.083,177.608L174.022,177.532L174.049,177.482L174.076,177.407L174.041,177.253L174.03,177.228L174.031,177.214L174.033,177.151L173.873,177.007L173.74,176.851L173.716,176.812L173.704,176.799L173.571,176.642L173.522,176.616L173.462,176.551L173.367,176.396L173.308,176.331L173.319,176.368L173.185,175.984L173.162,175.921L173.191,175.808L173.241,175.798L173.253,175.798L173.33,175.737L173.384,175.626L173.422,175.589L173.446,175.591L173.569,175.595L173.655,175.597L173.769,175.512L173.782,175.475L173.806,175.513L173.912,175.644L173.959,175.719L173.983,175.782L174.066,175.886L174.092,175.874L174.126,175.963L174.172,176.116L174.281,176.232L174.376,176.374L174.412,176.501L174.495,176.655L174.595,176.683L174.632,176.683L174.72,176.697L174.931,176.879L174.955,176.905L175.03,176.968L175.092,176.995L175.193,177.034L175.292,177.062L175.317,177.112L175.392,177.189L175.442,177.202L175.493,177.216L175.555,177.216L175.694,177.256L175.769,177.294L175.795,177.306L175.833,177.307L175.935,177.258L176.022,177.181L176.075,177.13L176.112,177.093L176.112,177.106L176.125,177.193L176.162,177.282L176.212,177.27L176.276,177.233L176.364,177.131L176.377,177.005L176.365,176.979L176.377,176.98L176.402,176.979L176.415,176.979L176.465,177.017L176.604,177.093L176.667,177.13L176.706,177.219L176.794,177.46L176.821,177.562L176.897,177.663L177.012,177.7L177.177,177.749L177.305,177.724L177.458,177.708L177.521,177.759L177.636,177.821L177.764,177.807L178.082,177.813L178.17,177.85L178.26,177.872L178.364,177.908L178.619,177.954L178.745,177.911L178.846,177.872L179.149,177.812L179.188,177.81L179.265,177.845L179.342,177.868L179.418,177.853L179.504,177.798L179.556,177.784L179.632,177.78L179.76,177.813L179.901,177.821L180.241,177.743L180.377,177.711L180.493,177.73L180.571,177.753L180.598,177.814L180.64,177.915L180.743,177.935L180.844,177.955L180.862,178.081L180.92,178.296L180.975,178.345L181.105,178.439L181.118,178.426L181.129,178.425L181.336,178.489L181.362,178.501L181.415,178.549L181.468,178.622L181.783,178.858L181.809,178.868L181.913,178.888L182.026,178.843L182.237,178.738L182.204,178.843L182.017,178.971L181.905,179.042L181.829,179.009L181.763,178.987L181.663,179.045L181.691,179.106L181.769,179.153L181.861,179.212L181.954,179.308L182.032,179.38L182.204,179.521L182.295,179.592L182.348,179.652L182.467,179.759L182.493,179.771L182.559,179.79L182.67,179.731L182.834,179.667L182.997,179.578L183.008,179.564L183.112,179.3L183.058,179.228L183.018,179.166L183.052,179.099L183.073,178.983L183.073,178.97L183.084,178.968L183.139,179.041L183.155,179.091L183.169,179.128L183.228,179.341L183.217,179.368L183.182,179.447L183.221,179.495L183.385,179.751L183.35,179.831L183.319,180.038L183.387,180.175L183.442,180.284L183.442,180.323L183.502,180.612L183.529,180.65C183.574,180.811 183.627,181.026 183.669,181.188L183.737,181.388L183.75,181.502L183.778,181.667L183.909,181.847L183.948,181.895L183.973,181.931L184.065,182.14C184.094,182.283 184.094,182.283 184.422,182.837L184.434,182.899L184.471,183.101L184.508,183.224L184.607,183.495L184.868,183.825C184.957,183.978 184.957,183.978 184.999,184.153L185.092,184.408L185.136,184.603L185.168,184.774L185.227,184.88L185.288,184.946L185.451,185.2L185.475,185.233L185.632,185.327L185.657,185.323L185.889,185.173L185.949,184.97L185.95,184.944L185.963,184.895L186.041,184.822L186.131,184.774L186.255,184.735L186.305,184.729L186.354,184.722L186.403,184.729L186.455,184.685L186.372,184.608L186.311,184.603L186.286,184.606L186.26,184.623L186.26,184.598L186.302,184.517L186.342,184.425L186.372,184.296L186.372,184.271L186.385,184.245L186.409,184.241L186.446,184.25L186.545,184.198L186.612,184.04L186.614,184.001L186.627,183.899L186.62,183.723L186.561,183.667L186.538,183.53L186.627,183.34L186.729,183.071C186.758,182.855 186.758,182.855 186.62,182.179L186.594,182.027L186.581,181.952L186.592,181.771L186.627,181.702L186.711,181.615L186.735,181.599L186.736,181.612L186.809,181.628L186.929,181.509L186.94,181.457L186.974,181.376L187.023,181.382L187.107,181.382L187.156,181.39L187.25,181.337L187.377,181.114L187.387,181.062L187.397,180.995L187.349,180.978L187.325,180.968L187.313,180.969L187.348,180.938L187.532,180.758L187.602,180.723L187.681,180.608L187.703,180.554L187.768,180.428L187.814,180.396L187.98,180.204L188.033,180.079L188.095,179.929L188.17,179.814L188.265,179.671L188.34,179.581L188.417,179.505L188.561,179.43L188.571,179.415L188.696,179.253L188.727,179.21L188.77,179.009L188.751,178.909L188.723,178.837L188.774,178.636L188.828,178.612L188.925,178.57L188.965,178.524L189.021,178.386L189.026,178.321L189.032,178.371L189.081,178.557L189.094,178.58L189.164,178.618L189.211,178.533L189.221,178.39L189.229,178.351L189.229,178.362L189.35,178.47L189.372,178.466L189.446,178.427L189.535,178.333L189.553,178.29L189.551,178.278L189.564,178.289L189.586,178.312L189.634,178.34L189.661,178.284L189.661,178.167L189.642,178.094L189.672,178.179L189.688,178.227L189.703,178.263L189.739,178.308L189.79,178.259L189.837,178.212L189.875,178.152L189.915,178.119L189.959,178.032L189.959,178.021L190.011,178.114L190.033,178.109L190.075,177.896L190.086,177.905L190.099,177.929L190.147,177.983L190.18,178.003L190.254,178.208L190.313,178.376L190.385,178.466L190.443,178.519L190.539,178.667L190.589,178.747L190.68,178.831L190.777,178.876L190.792,178.937L190.864,179.051L190.875,179.05L190.959,178.952L190.995,179.011L191.047,179.012L191.068,179.007L191.076,178.991L191.088,179.016L191.061,179.062L191.02,179.198L191.077,179.263L191.112,179.333L191.078,179.419L191.051,179.501L191.085,179.533L191.105,179.528L191.173,179.476L191.211,179.44L191.23,179.411L191.276,179.479L191.342,179.566L191.422,179.69L191.467,179.796L191.494,179.895L191.499,179.971L191.502,180.047L191.518,180.159L191.526,180.337L191.51,180.443L191.496,180.589L191.489,180.655L191.501,180.716L191.561,180.741L191.702,180.735L191.772,180.757L191.801,180.725L191.811,180.696L191.831,180.718L191.872,180.747L191.921,180.786L191.949,180.716L191.971,180.517L191.979,180.477L192.027,180.427L192.093,180.372L192.196,180.257L192.232,180.196L192.29,179.989L192.295,179.923L192.392,180.118L192.424,180.187L192.495,180.273L192.513,180.255L192.522,180.228L192.534,180.302L192.538,180.378L192.6,180.542L192.633,180.675L192.633,180.7L192.668,180.91L192.7,181.056L192.73,181.188L192.758,181.233L192.817,181.345L192.817,181.409L192.856,181.527L192.948,181.72L192.966,181.778L192.985,181.814L192.994,181.899L192.984,181.952L193,182.114L193.034,182.347L193.034,182.36L193.031,182.437L193.028,182.588L192.998,182.673L192.977,182.753L192.978,182.978L192.984,183.038L192.989,183.149L192.976,183.214L192.942,183.348L192.909,183.48L192.861,183.677L192.862,183.933L192.869,184.089L192.879,184.17L192.901,184.14L192.934,184.047L192.959,183.968L192.983,183.888L192.983,183.876L192.991,183.898L193.09,184.005L193.1,184.001L193.122,184.068L193.106,184.253L193.112,184.3L193.133,184.245L193.188,184.11L193.196,184.132L193.203,184.155L193.231,184.231L193.282,184.36L193.28,184.384L193.312,184.507L193.33,184.501L193.344,184.522L193.352,184.543L193.358,184.565L193.377,184.63L193.403,184.705L193.429,184.792L193.413,184.949L193.399,185.059L193.407,185.08L193.439,185.222L193.461,185.237L193.477,185.326L193.489,185.495L193.489,185.552L193.5,185.595L193.519,185.691L193.555,185.782L193.583,185.877C193.57,186.043 193.57,186.043 193.738,186.222L193.78,186.253L193.831,186.28L193.966,186.392L193.981,186.399L194.02,186.44L194.057,186.483L194.082,186.519L194.1,186.535L194.094,186.569L194.081,186.64L194.117,186.649L194.176,186.607L194.196,186.591L194.217,186.595L194.258,186.612L194.282,186.605L194.303,186.608L194.332,186.577L194.356,186.526L194.364,186.491L194.343,186.399L194.328,186.339L194.272,186.128L194.272,186.083L194.23,185.975L194.188,185.911L194.161,185.831L194.19,185.597L194.203,185.513L194.205,185.444L194.227,185.29L194.256,185.189L194.275,185.044L194.277,185.032L194.237,184.85L194.217,184.821L194.155,184.735L194.106,184.601L194.071,184.54L194.04,184.456L194,184.444L193.939,184.405L193.908,184.378L193.846,184.327L193.821,184.238L193.776,184.181L193.758,184.198L193.721,184.232L193.653,184.253L193.604,184.22L193.55,184.151L193.543,184.129L193.524,183.955L193.524,183.822L193.508,183.694L193.45,183.636L193.411,183.588L193.376,183.56L193.379,183.522L193.411,183.441L193.424,183.362L193.382,183.325L193.321,183.317L193.266,183.347L193.249,183.351L193.231,183.356L193.221,183.345L193.199,183.265L193.2,183.24L193.21,183.04L193.215,182.913L193.24,182.731L193.27,182.636L193.299,182.527L193.311,182.474L193.333,182.253L193.364,182.04L193.373,181.948L193.376,181.871L193.367,181.798L193.377,181.654L193.377,181.59L193.395,181.509L193.404,181.442L193.448,181.392L193.51,181.322L193.528,181.304L193.555,181.322L193.618,181.482L193.608,181.511L193.617,181.675L193.626,181.672L193.678,181.733L193.723,181.708L193.775,181.679L193.844,181.647L193.931,181.685L193.974,181.734L194.007,181.788L194.015,181.85L194.032,181.921L194.116,181.946L194.165,182.046L194.204,182.159L194.227,182.228L194.227,182.239L194.209,182.271L194.233,182.325L194.272,182.401L194.319,182.475L194.354,182.425L194.366,182.31L194.388,182.402L194.403,182.448L194.451,182.458L194.493,182.418L194.502,182.415L194.51,182.413L194.5,182.441L194.496,182.567L194.528,182.595L194.573,182.493L194.581,182.464L194.59,182.45L194.614,182.466L194.628,182.499L194.706,182.548L194.713,182.544L194.764,182.491L194.763,182.517L194.752,182.595L194.737,182.734L194.715,182.828L194.7,182.968L194.702,183.079L194.733,183.189L194.771,183.213L194.818,183.21L194.848,183.126L194.896,182.976L194.924,182.892L194.957,182.844L195.09,182.687L195.124,182.638L195.147,182.643L195.178,182.607L195.191,182.516L195.18,182.433L195.174,182.386L195.176,182.372L195.192,182.355L195.233,182.265L195.25,182.222L195.26,182.181L195.268,182.165L195.276,182.175L195.29,182.194L195.311,182.212L195.342,182.175L195.359,182.169L195.374,182.164L195.42,182.122L195.452,182.098L195.538,181.978L195.551,181.951L188.458,174.451C187.95,174.257 187.418,174.011 186.862,173.702C186.688,173.605 186.509,173.483 186.333,173.377L184.438,175.684L176.051,167.298L178.359,165.404C178.253,165.228 178.131,165.049 178.035,164.875C177.726,164.318 177.48,163.786 177.287,163.279L174.187,160.347L174.168,160.386L174.14,160.385L174.112,160.384L174.09,160.384L174.077,160.382L174.045,160.409L174.062,160.467L174.067,160.477L174.059,160.486L174.038,160.485L174.031,160.485L173.994,160.493L173.979,160.501L173.965,160.491L173.959,160.481L173.947,160.453L173.97,160.444L173.994,160.417L173.995,160.407L173.999,160.37L173.979,160.351L173.958,160.35L173.932,160.329L173.928,160.302L173.889,160.205L173.855,160.194L173.848,160.194L173.833,160.194L173.833,160.203L173.844,160.231L173.883,160.317L173.877,160.308L173.849,160.307L173.843,160.298L173.829,160.297L173.805,160.315L173.773,160.342L173.726,160.33L173.705,160.329L173.653,160.336L173.617,160.401L173.586,160.417L173.567,160.398L173.53,160.406L173.467,160.401L173.407,160.419L173.328,160.425L173.282,160.44L173.275,160.44L173.239,160.486L173.212,160.522L173.206,160.513L173.18,160.492L173.173,160.492L173.102,160.487L173.074,160.485L173.067,160.485L173.068,160.477L173.073,160.4L173.072,160.372L173.089,160.355L173.149,160.329L173.175,160.302L173.121,160.252L173.091,160.261L173.023,160.284L172.97,160.3L172.934,160.306L172.88,160.331L172.808,160.413L172.811,160.433L172.815,160.442L172.785,160.449L172.783,160.43L172.777,160.42L172.754,160.39L172.747,160.39L172.718,160.398L172.688,160.405L172.613,160.419L172.589,160.428L172.569,160.427L172.49,160.458L172.402,160.528L172.37,160.546L172.333,160.552L172.296,160.55L172.249,160.537L172.206,160.601L172.161,160.607L172.115,160.613L172.075,160.629L172.066,160.667L172.045,160.724L172.027,160.8L172.032,160.81L171.989,160.835L171.917,160.858L171.909,160.858L171.822,160.852L171.798,160.831L171.743,160.815L171.736,160.815L171.731,160.806L171.727,160.767L171.725,160.747L171.681,160.694L171.64,160.681L171.621,160.669L171.601,160.639L171.677,160.597L171.703,160.58L171.741,160.573L171.767,160.586L171.807,160.599L171.874,160.565L171.886,160.547L171.881,160.537L171.834,160.466L171.83,160.456L171.785,160.385L171.727,160.314L171.709,160.302L171.645,160.277L171.516,160.284L171.487,160.282L171.45,160.288L171.442,160.269L171.41,160.237L171.386,160.245L171.376,160.253L171.345,160.308L171.379,160.358L171.437,160.384L171.451,160.403L171.435,160.509L171.365,160.647L171.34,160.636L171.313,160.651C171.46,160.805 171.46,160.805 171.473,160.861L171.407,160.992L171.404,161.031L171.387,161.011L171.329,161.005L171.287,160.894L171.208,160.886L171.148,160.86L171.122,160.849L171.057,160.892L171.037,160.909L170.94,160.959L170.846,160.98L170.779,161.022L170.749,161.048L170.651,161.117L170.626,161.124L170.591,161.141L170.619,161.192L170.683,161.329L170.686,161.37L170.685,161.399L170.575,161.429L170.537,161.404L170.466,161.388L170.439,161.374L170.406,161.36L170.372,161.347L170.331,161.333L170.271,161.306L170.242,161.283L170.197,161.237L170.196,161.218L170.158,161.153L170.129,161.171L170.08,161.226L170.048,161.251L170.029,161.259L170.022,161.259L169.997,161.265L169.987,161.295L170.063,161.403L170.098,161.479L170.137,161.522L170.199,161.499L170.209,161.491L170.222,161.522L170.231,161.564L170.236,161.574L170.225,161.583L170.177,161.588L170.141,161.605L170.093,161.61L169.999,161.589L169.995,161.578L169.922,161.499L169.911,161.466L169.88,161.423L169.854,161.409L169.807,161.415L169.748,161.407L169.727,161.384L169.722,161.355L169.725,161.243L169.729,161.233L169.718,161.183L169.708,161.15L169.709,161.11L169.716,161.091L169.806,160.973L169.789,160.901L169.763,160.857L169.731,160.823L169.714,160.812L169.67,160.776L169.631,160.781L169.589,160.775L169.586,160.746L169.575,160.704L169.527,160.608L169.597,160.599L169.607,160.61L169.624,160.622L169.698,160.671L169.75,160.668L169.802,160.683L169.83,160.688L169.867,160.722L169.877,160.732L169.932,160.779L170.006,160.798L170.051,160.813L170.08,160.815L170.086,160.817L170.15,160.845L170.308,160.913L170.378,160.929L170.479,160.941L170.586,160.952L170.672,160.962L170.708,160.944L170.828,160.868L170.886,160.825L170.95,160.763L170.984,160.659L170.967,160.618L170.962,160.589L170.972,160.562L170.951,160.471L170.918,160.458L170.88,160.444L170.862,160.433L170.813,160.39L170.789,160.358L170.768,160.336L170.741,160.353L170.71,160.359L170.689,160.337L170.655,160.314L170.621,160.292L170.573,160.267L170.526,160.242L170.509,160.23L170.459,160.177L170.397,160.103L170.188,159.934L170.175,159.932L170.12,159.915L170.071,159.919L170.019,159.913L169.97,159.896L169.955,159.885L169.937,159.863L169.896,159.877L169.827,159.926L169.827,159.849L169.82,159.849L169.799,159.835L169.75,159.839L169.771,159.822L169.817,159.78L169.8,159.73L169.791,159.72L169.774,159.698L169.733,159.655L169.7,159.669L169.656,159.691L169.56,159.735L169.53,159.713L169.503,159.698L169.425,159.678L169.396,159.683L169.353,159.688L169.318,159.663L169.313,159.661L169.325,159.663L169.438,159.612L169.484,159.601L169.491,159.603L169.523,159.607L169.563,159.593L169.593,159.559L169.583,159.51L169.528,159.463L169.497,159.458L169.459,159.452L169.462,159.435L169.425,159.392L169.384,159.357L169.346,159.341L169.335,159.339L169.263,159.386L169.188,159.451L169.17,159.448L169.164,159.446L169.174,159.44L169.248,159.364L169.266,159.358L169.31,159.336L169.324,159.31L169.302,159.278L169.295,159.277L169.189,159.27L169.182,159.26L169.132,159.289L169.106,159.323L169.043,159.39L168.991,159.411L168.985,159.409L168.974,159.407L168.979,159.399L168.995,159.383L169.039,159.304L169.038,159.294L169.035,159.265L168.974,159.302L168.741,159.456L168.711,159.462L168.842,159.348L168.937,159.287L168.966,159.226L168.936,159.221L168.918,159.218L168.84,159.252L168.834,159.251L168.827,159.24L168.808,159.228L168.808,159.218L168.8,159.198L168.761,159.22L168.729,159.253L168.668,159.31L168.607,159.366L168.634,159.333L168.626,159.292L168.607,159.29L168.556,159.3L168.538,159.307L168.566,159.282L168.594,159.248L168.587,159.238L168.552,159.241L168.465,159.255L168.441,159.251L168.394,159.253L168.371,159.249L168.348,159.244L168.33,159.241L168.307,159.246L168.314,159.296L168.369,159.315L168.364,159.334L168.354,159.371L168.349,159.39L168.343,159.389L168.313,159.374L168.283,159.358L168.27,159.357L168.23,159.349L168.194,159.353L168.16,159.364L168.143,159.372L168.136,159.36L168.129,159.351L168.128,159.32L168.094,159.343L167.98,159.44L167.968,159.448L167.916,159.478L167.973,159.409L168.018,159.339L168.024,159.331L168.022,159.292L167.988,159.294L167.941,159.295L167.936,159.294L167.883,159.304L167.813,159.359L167.755,159.397L167.674,159.45L167.662,159.458L167.64,159.503L167.605,159.556L167.57,159.589L167.559,159.597L167.563,159.577L167.586,159.503L167.592,159.493L167.592,159.444L167.563,159.448L167.51,159.458L167.433,159.491L167.397,159.575L167.398,159.585L167.392,159.603L167.386,159.622L167.38,159.622L167.328,159.661L167.339,159.643L167.357,159.556L167.345,159.564L167.345,159.554L167.28,159.591L167.251,159.614L167.269,159.589L167.297,159.555L167.31,159.536L167.334,159.491L167.304,159.485L167.269,159.487L167.198,159.524L167.145,159.552L167.163,159.517L167.17,159.468L167.117,159.506L167.038,159.581L166.942,159.681L166.907,159.685L166.727,159.722L166.668,159.733L166.662,159.743L166.606,159.823L166.637,159.829L166.791,159.792L166.863,159.776L166.923,159.759L166.989,159.742L167.03,159.731L166.952,159.815L166.887,159.873L166.838,159.913L166.82,159.931L166.718,160.011L166.645,160.037L166.585,160.055L166.573,160.063L166.458,160.131L166.421,160.153L166.336,160.218L166.299,160.261L166.274,160.288L166.274,160.277L166.262,160.253L166.239,160.269L166.195,160.321L166.152,160.376L166.103,160.417L166.054,160.458L166.011,160.501L165.974,160.536L165.931,160.547L165.924,160.546L165.938,160.527L165.943,160.519L165.943,160.507L165.936,160.506L165.906,160.53L165.863,160.573L165.813,160.541L165.764,160.552L165.751,160.58L165.77,160.605L165.783,160.608L165.764,160.636L165.739,160.662L165.733,160.661L165.596,160.714L165.479,160.804L165.472,160.814L165.416,160.823L165.409,160.821L165.416,160.812L165.409,160.8L165.366,160.831L165.291,160.899L165.272,160.906L165.247,160.911L165.228,160.906L165.222,160.884L165.229,160.853L165.235,160.812L165.185,160.831L165.123,160.892L165.109,160.91L165.085,160.915L165.072,160.89L165.079,160.858L165.073,160.825L165.023,160.857L164.946,160.989L164.953,161.001L164.946,161.011L164.889,161.064L164.871,161.08L164.87,161.069L164.846,161.03L164.834,161.005L164.821,160.991L164.79,161.016L164.77,161.032L164.733,161.078L164.713,161.107L164.67,161.063L164.639,161.077L164.626,161.084L164.575,161.104L164.531,161.138L164.519,161.144L164.519,161.134L164.514,161.109L164.488,161.114L164.393,161.155L164.35,161.167L164.336,161.174L164.344,161.153L164.338,161.119L164.3,161.142L164.209,161.274L164.188,161.323L164.155,161.394L164.078,161.485L164.027,161.517L164.02,161.526L163.962,161.634L163.955,161.678L163.942,161.708L163.91,161.733L163.853,161.797L163.839,161.816L163.854,161.865L163.834,161.882L163.783,161.938L163.771,161.968L163.752,162.009L163.759,162.032L163.695,162.106L163.71,162.134L163.715,162.134L163.786,162.108L163.787,162.132L163.8,162.169L163.795,162.167L163.781,162.164L163.723,162.183L163.579,162.362L163.586,162.386L163.613,162.394L163.626,162.409L163.65,162.495L163.658,162.509L163.68,162.548L163.73,162.596L163.74,162.644L163.767,162.64L163.912,162.606L163.946,162.616L163.986,162.614L164.012,162.61L164.091,162.583L164.181,162.526L164.245,162.496L164.277,162.47L164.418,162.39L164.444,162.386L164.471,162.382L164.472,162.392L164.481,162.417L164.55,162.366L164.636,162.274L164.629,162.341L164.657,162.356L164.666,162.37L164.672,162.372L164.649,162.411L164.616,162.538L164.617,162.55L164.611,162.56L164.541,162.724L164.547,162.759L164.554,162.817L164.535,162.88L164.506,162.976L164.505,163.021L164.503,163.146L164.527,163.298L164.525,163.319L164.485,163.38L164.474,163.399L164.425,163.446L164.416,163.433L164.384,163.415L164.311,163.443L164.245,163.521L164.23,163.517L164.179,163.506L164.192,163.496L164.203,163.477L164.208,163.466L164.201,163.464L164.166,163.468L164.124,163.47L164.06,163.513L164.047,163.521L163.991,163.612L163.987,163.681L163.963,163.709L163.936,163.761L163.968,163.78L164.006,163.788L164.028,163.794L164.03,163.806L164.019,163.825L164.009,163.847L164.001,163.845L163.859,163.894L163.86,163.94L163.906,163.997L163.926,164.025L163.966,164.011L164.022,164L164.123,163.953L164.155,163.937L164.205,163.89L164.203,163.845L164.171,163.825L164.153,163.81L164.166,163.802L164.343,163.669L164.359,163.718L164.376,163.732L164.414,163.775L164.444,163.782L164.54,163.825L164.556,163.829L164.57,163.831L164.619,163.819L164.652,163.769L164.683,163.706L164.71,163.668L164.762,163.632L164.79,163.627L164.818,163.622L164.831,163.613L164.835,163.603L164.833,163.591L164.876,163.587L164.96,163.605L165.068,163.639L165.087,163.653L165.119,163.638L165.155,163.601L165.177,163.569L165.18,163.616L165.178,163.638L165.294,163.536L165.384,163.42L165.424,163.372L165.491,163.284L165.487,163.261L165.358,163.337L165.455,163.144L165.51,163.065L165.55,163.017L165.565,162.987L165.657,162.837L165.684,162.799L165.69,162.79L165.705,162.792L165.795,162.787L165.932,162.726L166.025,162.7L166.033,162.701L166.053,162.728L166.117,162.663L166.207,162.548L166.212,162.538L166.248,162.513L166.287,162.454L166.284,162.442L166.3,162.315L166.291,162.302L166.266,162.243L166.281,162.214L166.296,162.185L166.258,162.166L166.143,162.177L166.119,162.161L166.108,162.138L166.113,162.083L166.15,161.972L166.158,161.941L166.215,161.823L166.229,161.825L166.257,161.831L166.325,161.748L166.322,161.726L166.356,161.679L166.368,161.671L166.38,161.662L166.409,161.636L166.425,161.597L166.416,161.583L166.468,161.573L166.555,161.525L166.612,161.462L166.624,161.454L166.667,161.431L166.711,161.407L166.736,161.39L166.759,161.373L166.821,161.343L166.853,161.339L166.945,161.323L167.02,161.296L167.082,161.265L167.126,161.253L167.201,161.224L167.237,161.2L167.326,161.132L167.367,161.097L167.415,161.034L167.423,160.952L167.415,160.909L167.414,160.899L167.461,160.865C167.637,160.772 167.637,160.772 167.766,160.724L167.947,160.726L167.966,160.759L167.999,160.794L168.056,160.783L168.094,160.778L168.101,160.78L168.098,160.872L168.095,160.922L168.091,160.972L168.077,161.001L168.076,160.991L168.044,160.935L168.024,160.899L167.979,160.934L167.965,160.972L167.951,161.001L167.749,161.122L167.659,161.179L167.662,161.191L167.659,161.21L167.635,161.227L167.498,161.276L167.391,161.352L167.313,161.399L167.292,161.398L167.271,161.394L167.22,161.405L167.171,161.47L167.092,161.562L167.038,161.594L166.991,161.638L166.988,161.658L166.991,161.67L167.003,161.735L166.993,161.787L166.976,161.837L166.959,161.931L166.952,161.993L166.925,162.03L166.887,162.077L166.87,162.096L166.833,162.187L166.842,162.198L166.792,162.351L166.8,162.352L166.886,162.39L166.947,162.378L166.889,162.433C166.992,162.487 167.114,162.489 167.208,162.562L167.274,162.562L167.289,162.564L167.369,162.565L167.451,162.547L167.493,162.543L167.542,162.54L167.619,162.53L167.697,162.521L167.727,162.526L167.785,162.522L167.849,162.523L167.888,162.528L167.969,162.53L168.025,162.528L168.08,162.536L168.125,162.542L168.168,162.56L168.197,162.648L168.298,162.704L168.364,162.726L168.264,162.732L168.208,162.746L168.154,162.759L168.095,162.762L168.061,162.767L167.974,162.819L167.915,162.864L167.86,162.856L167.825,162.841L167.782,162.845L167.729,162.837L167.713,162.835L167.656,162.772L167.565,162.715L167.542,162.712L167.424,162.757L167.351,162.757L167.329,162.753L167.207,162.767L167.168,162.782L167.109,162.804L167.074,162.81L167.066,162.808L167.007,162.831L166.958,162.921L166.927,162.882L166.911,162.88L166.882,162.907L166.794,162.958L166.782,162.967L166.658,163.022L166.627,163.017L166.55,163.06L166.557,163.137L166.563,163.159L166.558,163.17L166.542,163.244L166.607,163.211L166.64,163.194L166.679,163.18L166.731,163.155L166.79,163.154L166.802,163.146L166.868,163.091L166.911,163.011L166.944,163.048L166.987,163.122L167.039,163.195L167.06,163.189L167.083,163.17L167.095,163.161L167.074,163.19L167.037,163.261L166.998,163.353L166.97,163.481L166.919,163.562L166.831,163.591L166.815,163.589L166.745,163.532L166.731,163.485L166.72,163.451L166.66,163.319L166.567,163.282L166.375,163.393L166.371,163.402L166.363,163.401L166.323,163.472L166.265,163.528L166.236,163.556L166.162,163.665L166.096,163.856L166.083,163.887L166.05,163.982L166.031,164.046L165.975,164.138L165.864,164.196L165.759,164.179L165.669,164.286L165.605,164.355L165.555,164.368L165.506,164.382L165.49,164.379L165.418,164.343L165.419,164.32L165.415,164.252L165.4,164.226L165.383,164.189L165.316,164.164L165.285,164.157L165.069,164.196L164.944,164.206L164.833,164.241L164.612,164.312L164.539,164.319L164.467,164.327L164.337,164.347L164.324,164.319L164.344,164.313L164.352,164.315L164.375,164.286L164.328,164.239L164.338,164.149L164.345,164.116L164.314,164.041L164.214,164.089L164.165,164.089L164.156,164.087L164.069,164.092L163.95,164.146L163.942,164.145L163.922,164.116L163.886,164.119L163.801,164.171L163.789,164.179L163.697,164.157L163.688,164.144L163.793,164.087L163.806,164.079L163.837,163.969L163.816,163.976L163.716,163.977L163.635,163.923L163.689,163.819L163.684,163.782L163.672,163.71L163.68,163.665L163.702,163.624L163.827,163.516L163.973,163.401L163.99,163.382L164.037,163.312L164.057,163.259L164.084,163.197L164.092,163.153L164.139,163.084L164.176,163.06L164.263,162.977L164.297,162.917L164.33,162.845L164.321,162.831L164.307,162.828L164.277,162.81L164.159,162.851L164.088,162.901L163.993,162.958L163.977,162.942L163.94,162.923L163.854,162.948L163.775,162.985L163.649,163.081L163.527,163.292L163.517,163.325L163.44,163.435L163.422,163.464L163.365,163.624L163.346,163.689L163.322,163.718L163.305,163.749L163.271,163.812L163.309,163.832L163.349,163.819L163.377,163.813L163.366,163.834L163.31,163.891L163.303,163.889L163.271,163.917L163.271,163.964L163.282,163.989L163.297,164.04L163.239,164.072L163.225,164.081L163.116,164.16L163.102,164.157L163.057,164.146L163.058,164.099L163.056,164.086L162.995,164.06L162.946,164.059L162.864,164.085L162.815,164.131L162.777,164.169L162.761,164.153L162.71,164.14L162.673,164.13L162.608,164.114L162.588,164.12L162.6,164.099L162.543,164.097L162.475,164.102L162.39,164.149L162.314,164.214L162.267,164.237L162.259,164.235L162.17,164.307L162.115,164.375L162.049,164.453L161.982,164.495L161.925,164.54L161.867,164.571L161.794,164.612L161.755,164.638L161.694,164.645L161.626,164.661L161.532,164.695L161.479,164.716L161.398,164.742L161.357,164.742L161.29,164.759L161.262,164.763L161.255,164.761L161.19,164.804L161.137,164.886L161.094,164.946L160.948,165.063L160.82,165.099L160.665,165.124L160.639,165.142L160.577,165.21L160.58,165.235L160.554,165.253L160.52,165.254L160.469,165.226L160.404,165.193L160.363,165.192L160.335,165.184L160.32,165.165L160.339,165.148L160.364,165.118L160.367,165.081L160.33,165.032L160.309,165.024L160.292,164.982L160.283,164.954L160.258,164.97L160.246,164.98L160.192,165.087L160.186,165.185L160.187,165.198L160.153,165.274L160.122,165.315L160.087,165.378L160.076,165.399L160.008,165.403L159.987,165.396L159.937,165.367L159.883,165.362L159.837,165.372L159.828,165.356L159.833,165.333L159.802,165.259L159.721,165.243L159.654,165.245L159.528,165.239L159.496,165.228L159.482,165.224L159.398,165.257L159.374,165.3L159.392,165.396L159.343,165.468L159.327,165.514L159.324,165.589L159.418,165.597L159.458,165.598L159.488,165.646L159.527,165.71L159.543,165.741L159.554,165.783L159.578,165.83L159.618,165.818L159.625,165.82L159.594,165.86L159.575,165.943L159.614,165.982L159.61,166.02L159.581,166.06L159.533,166.185L159.536,166.21L159.56,166.295L159.566,166.297L159.591,166.433L159.493,166.578L159.478,166.624L159.429,166.724L159.353,166.827L159.27,166.927L159.243,166.981L159.156,167.147L159.038,167.288L158.997,167.339L158.984,167.347L158.893,167.395L158.829,167.386L158.748,167.358L158.734,167.314L158.709,167.28L158.664,167.305L158.637,167.308L158.591,167.278L158.568,167.257L158.552,167.239L158.452,167.204L158.355,167.196L158.254,167.133L158.21,167.103L158.141,167.077L158.073,167.066L158.023,167.02L157.953,166.98L157.892,166.957L157.852,166.954L157.844,166.939L157.85,166.927L157.866,166.894L157.822,166.837L157.775,166.819L157.762,166.8L157.691,166.812L157.578,166.925L157.557,166.917L157.493,166.904L157.486,166.901L157.362,166.957L157.357,166.968L157.306,167.067L157.311,167.149L157.314,167.191L157.302,167.199L157.244,167.269L157.192,167.354L157.103,167.519L157.061,167.622L157.004,167.773L156.988,167.806L156.877,167.987L156.805,168.093L156.715,168.217L156.635,168.304L156.555,168.392L156.52,168.432L156.447,168.523L156.366,168.704L156.368,168.718L156.368,168.827L156.398,168.867L156.405,168.87L156.421,168.89L156.418,168.915L156.36,169.013L156.322,169.064L156.316,169.075L156.245,169.208L156.185,169.331L156.156,169.4L156.117,169.438L156.079,169.489L156.085,169.493L156.092,169.495L156.099,169.499L156.118,169.493L156.174,169.476L156.204,169.46L156.269,169.462L156.285,169.481L156.317,169.523L156.339,169.53L156.424,169.524L156.458,169.498L156.513,169.466L156.522,169.483L156.528,169.512L156.575,169.558L156.631,169.687L156.61,169.759L156.6,169.808L156.592,169.98L156.615,170.095L156.641,170.158L156.657,170.165L156.671,170.169L156.758,170.163L156.802,170.14L156.857,170.107L156.878,170.074L156.909,170.06L156.933,170.041L156.991,170.023L157.019,170.019L157.079,170.04L157.094,170.046L157.14,170.064L157.201,170.058L157.326,170.075L157.391,170.112L157.491,170.146L157.555,170.142L157.606,170.146L157.638,170.131L157.737,170.032L157.823,169.942L157.852,169.913L157.937,169.901L158.012,169.938L158.031,169.958L158.085,169.911L158.107,169.826L158.149,169.749L158.167,169.715L158.214,169.665L158.276,169.62L158.316,169.607L158.415,169.559L158.469,169.537L158.513,169.513L158.52,169.45L158.475,169.383L158.458,169.314L158.469,169.238L158.52,169.11L158.726,168.956L158.956,168.782L159.006,168.682L159.021,168.647L159.144,168.608L159.173,168.604L159.344,168.577L159.386,168.565L159.44,168.542L159.603,168.476L159.691,168.437L159.806,168.354L159.858,168.167L159.862,168.155L159.888,168.073L159.952,167.965L159.982,167.935L160.105,167.856L160.168,167.837L160.19,167.829L160.225,167.853L160.257,167.861L160.388,167.935L160.457,167.968L160.53,168.011L160.578,168.05L160.651,168.095L160.748,168.083L160.765,168.087L160.876,168.04L160.889,168.03L160.901,168.046L160.938,168.069L160.967,168.089L160.987,168.106L161.061,168.062L161.14,167.983L161.209,167.924L161.265,167.876L161.347,167.835L161.42,167.79L161.5,167.773L161.569,167.765L161.6,167.759L161.619,167.802L161.627,167.853L161.643,167.933L161.706,167.983L161.74,167.992L161.749,168.069L161.735,168.103L161.726,168.15L161.718,168.273L161.735,168.301L161.743,168.329L161.726,168.374L161.696,168.405L161.652,168.419L161.63,168.427L161.574,168.45L161.597,168.519L161.649,168.556L161.693,168.54L161.736,168.476L161.74,168.465L161.749,168.466L161.753,168.48L161.749,168.491L161.753,168.53L161.776,168.572L161.79,168.588L161.8,168.64L161.792,168.663L161.774,168.734L161.801,168.741L161.837,168.748L161.872,168.757L161.904,168.775L161.89,168.786L161.87,168.843L161.88,168.87L161.908,168.901L161.935,168.933L161.957,168.925L161.949,168.974L161.957,169.063L161.967,169.09L162.017,169.175L162.044,169.206L162.127,169.249L162.191,169.264L162.201,169.265L162.196,169.276L162.216,169.306L162.27,169.354L162.298,169.386L162.307,169.388L162.301,169.437L162.314,169.514L162.415,169.572L162.389,169.593L162.361,169.648L162.398,169.655L162.51,169.679L162.5,169.776L162.501,169.802L162.546,169.887L162.557,169.915L162.581,169.968L162.637,169.98L162.666,169.985L162.686,170.052L162.692,170.165L162.695,170.19L162.698,170.216L162.703,170.269L162.683,170.302L162.671,170.374L162.693,170.44L162.686,170.466L162.683,170.476L162.647,170.495L162.637,170.493L162.585,170.533L162.571,170.581L162.561,170.616L162.522,170.646L162.489,170.651L162.481,170.649L162.361,170.676L162.351,170.674L162.284,170.659L162.172,170.662L162.088,170.708L162.069,170.704L162.012,170.691L161.974,170.685L161.956,170.68L161.904,170.646L161.883,170.614L161.832,170.553L161.813,170.548L161.704,170.576L161.688,170.599L161.683,170.583L161.669,170.53L161.633,170.548L161.621,170.558L161.607,170.567L161.535,170.64L161.531,170.652L161.528,170.664L161.524,170.777L161.532,170.816L161.569,170.862L161.578,170.864L161.609,170.858L161.641,170.892L161.728,170.974L161.775,171.021L161.809,171.079L161.873,171.143L161.895,171.135L161.917,171.165L161.938,171.232L161.974,171.327L161.999,171.347L162.073,171.374L162.151,171.353L162.164,171.343L162.236,171.231L162.249,171.22L162.266,171.085L162.263,171.06L162.273,170.948L162.345,170.874L162.388,170.833L162.43,170.79L162.439,170.829L162.441,170.843L162.442,170.857L162.484,170.89L162.512,170.896L162.525,170.923L162.564,170.892L162.579,170.87L162.6,170.837L162.617,170.815L162.646,170.783L162.691,170.767L162.702,170.769L162.717,170.785L162.76,170.743L162.773,170.695L162.79,170.636L162.826,170.58L162.856,170.548L162.882,170.528L162.889,170.542L162.923,170.562L162.982,170.534L162.995,170.524L163.032,170.433L163.071,170.364L163.072,170.29L163.015,170.241L162.974,170.208L162.951,170.179L162.928,170.124L162.921,170.073L162.952,170.042L162.964,170.032L163.05,169.911L163.1,169.847L163.113,169.837L163.126,169.827L163.145,169.83L163.153,169.87L163.185,169.938L163.228,169.958L163.293,169.983L163.315,169.975L163.324,170.015L163.4,170.214L163.435,170.196L163.511,170.036L163.482,169.857L163.47,169.829L163.398,169.73L163.382,169.714L163.344,169.671L163.304,169.638L163.261,169.579L163.23,169.548L163.146,169.495L163.011,169.383L162.978,169.302L162.986,169.304L163.071,169.258L163.085,169.212L163.037,169.116L162.972,169.103L162.888,169.085L162.838,169.088L162.82,169.085L162.781,169.052L162.722,168.966L162.672,168.88L162.655,168.815L162.618,168.696L162.611,168.657L162.605,168.508L162.622,168.462L162.628,168.389L162.539,168.21L162.445,168.078L162.413,168.009L162.394,167.956L162.408,167.897L162.429,167.817L162.433,167.805L162.463,167.8L162.499,167.783L162.542,167.718L162.528,167.655L162.528,167.63L162.524,167.593L162.542,167.546L162.568,167.528L162.611,167.538L162.746,167.481L162.768,167.474L162.793,167.455L162.815,167.472L162.827,167.513L162.82,167.558L162.851,167.675L162.848,167.76L162.848,167.785L162.831,167.831L162.841,167.906L162.854,167.897L162.938,167.829L162.933,167.864L162.935,167.962L162.994,168.011L163.038,167.996L163.046,167.974L163.059,167.939L163.071,167.905L163.077,167.968L163.103,168.083L163.082,168.115L163.053,168.171L163.032,168.229L163.07,168.259L163.116,168.294L163.153,168.326L163.207,168.423L163.204,168.435L163.208,168.509L163.213,168.523L163.283,168.634L163.292,168.636L163.322,168.691L163.299,168.735L163.287,168.771L163.339,168.792L163.432,168.811L163.562,168.835L163.657,168.915L163.692,168.958L163.813,169.116L163.837,169.169L163.898,169.267L163.969,169.401L163.994,169.419L163.975,169.452L163.919,169.505L163.879,169.571L163.892,169.598L163.888,169.646L163.867,169.718L163.828,169.821L163.808,169.892L163.784,170.011L163.862,170.138L163.908,170.194L163.905,170.206L163.908,170.231L163.886,170.24L163.869,170.226L163.843,170.207L163.801,170.249L163.837,170.418L163.92,170.458L163.951,170.5L163.991,170.581L164.011,170.585L164.061,170.718L164.083,170.795L164.084,170.87L164.128,170.99L164.148,170.993L164.154,170.97L164.181,170.949L164.227,170.97L164.306,170.995L164.323,171.011L164.407,171.011L164.484,171.049L164.528,171.081L164.567,171.099L164.638,171.11L164.671,171.104L164.708,171.085L164.723,171.112L164.734,171.2L164.754,171.253L164.773,171.307L164.815,171.314L164.864,171.333L164.885,171.386L164.907,171.427L164.977,171.45L165.001,171.392L164.996,171.29L164.995,171.278L164.974,171.226L164.96,171.148L164.982,171.188L165.043,171.249L165.083,171.267L165.119,171.297L165.205,171.249L165.192,171.159L165.125,171.124L165.079,171.092L165.044,171.013L165.029,170.985L165.022,170.972L164.982,170.866L164.944,170.849L164.912,170.806L164.881,170.714L164.872,170.663L164.805,170.505L164.784,170.465L164.742,170.384L164.72,170.343L164.701,170.253L164.735,170.123L164.75,170.101L164.798,170.159L164.87,170.243L164.891,170.247L164.948,170.269L165.002,170.265L165.037,170.245L165.145,170.151L165.174,170.118L165.226,170.077L165.34,169.997L165.396,169.981L165.426,169.985L165.434,169.999L165.455,170.001L165.539,170.038L165.597,170.06L165.734,170.104L165.779,170.086L165.814,170.251L165.855,170.257L165.894,170.274L165.924,170.278L165.95,170.307L165.874,170.407L165.843,170.402L165.823,170.399L165.743,170.425L165.714,170.507L165.715,170.643L165.714,170.691L165.708,170.716L165.613,170.763L165.591,170.81L165.651,170.88L165.669,170.895L165.757,170.933L165.791,170.925L165.856,170.872L165.861,170.849L165.853,170.834L165.856,170.724L165.93,170.685L165.942,170.675L165.911,170.769L165.9,170.865L165.908,170.928L165.909,170.978L165.88,171.011L165.844,171.03L165.81,171.038L165.812,171.026L165.791,171.022L165.765,171.044L165.74,171.065L165.679,171.044L165.638,171.038L165.608,171.021L165.548,171.1L165.541,171.235L165.58,171.253L165.611,171.258L165.63,171.272L165.661,171.228L165.698,171.157L165.716,171.223L165.704,171.233L165.717,171.272L165.729,171.312L165.772,171.367L165.812,171.335L165.822,171.337L165.849,171.365L165.94,171.39L165.962,171.393L165.96,171.405L165.954,171.43L165.945,171.478L165.887,171.444L165.863,171.417L165.851,171.403L165.833,171.389L165.796,171.407L165.76,171.526L165.817,171.571L165.837,171.574L165.864,171.554L165.896,171.558L165.886,171.656L165.877,171.704L165.917,171.722L165.989,171.745L165.939,171.775L165.891,171.855L165.838,171.898L165.802,171.917L165.737,172.021L165.717,172.068L165.765,172.05L165.93,171.935L165.977,171.868L166.002,171.846L166.023,171.849L166.077,171.855L166.109,171.86L166.142,171.864L166.11,171.909L166.112,171.898L166.093,171.884L166.035,171.899L165.929,171.997L165.917,171.995L165.927,172.009L165.973,172.054L166.01,172.033L166.105,171.997L166.126,172L166.116,172.061L166.125,172.062L166.127,172.111L165.967,172.202L165.966,172.327L165.983,172.355L166.126,172.298L166.186,172.206L166.205,172.171L166.219,172.099L166.229,172.038L166.28,172.007L166.327,171.987L166.374,172.094L166.396,172.097L166.478,172.069L166.491,172.059L166.489,172.07L166.471,172.169L166.476,172.206L166.493,172.296L166.523,172.312L166.571,172.355L166.591,172.37L166.654,172.391L166.72,172.398L166.773,172.418L166.818,172.411L166.845,172.389L166.923,172.323L166.936,172.314L166.985,172.22L166.994,172.171L167.027,172.101L167.054,172.077L167.065,172.079L167.098,172.083L167.142,172.088L167.194,172.107L167.203,172.12L167.304,172.183L167.415,172.257L167.454,172.298L167.479,172.351L167.556,172.435L167.576,172.448L167.726,172.502L167.849,172.515L167.896,172.495L167.965,172.49L167.988,172.493L168.054,172.499L168.095,172.454L168.161,172.388L168.228,172.319L168.291,172.276L168.331,172.231L168.34,172.243L168.402,172.286L168.454,172.329L168.537,172.375L168.571,172.378L168.582,172.38L168.67,172.314L168.709,172.28L168.737,172.245L168.749,172.233L168.821,172.29L168.835,172.354L168.823,172.364L168.722,172.43L168.709,172.441L168.698,172.526L168.72,172.541L168.716,172.565L168.685,172.624L168.663,172.697L168.649,172.721L168.641,172.782L168.647,172.82L168.683,172.898L168.708,172.975L168.665,173.033L168.692,173.185L168.735,173.214L168.733,173.228L168.629,173.315L168.581,173.425L168.542,173.546L168.524,173.606L168.492,173.679L168.401,173.845L168.381,173.905L168.348,173.991L168.322,174.101L168.287,174.21L168.267,174.272L168.229,174.394L168.195,174.479L168.151,174.562L167.998,174.66L167.936,174.692L167.887,174.7L167.819,174.68L167.762,174.662L167.715,174.669L167.668,174.677L167.634,174.661L167.596,174.683L167.547,174.702L167.477,174.694L167.42,174.689L167.408,174.688L167.321,174.64L167.243,174.519L167.233,174.504L167.236,174.491L167.226,174.478L167.214,174.476L167.203,174.476L167.168,174.471L167.121,174.479L167.033,174.442L167.023,174.429L166.937,174.382L166.865,174.398L166.817,174.405L166.76,174.412L166.652,174.437L166.571,174.516L166.559,174.526L166.547,174.526L166.514,174.509L166.429,174.536L166.351,174.603L166.287,174.646L166.203,174.673L166.168,174.669L166.119,174.611L166.068,174.567L166.003,174.534L165.922,174.536L165.774,174.454L165.723,174.421L165.659,174.388L165.587,174.339L165.52,174.33L165.498,174.327L165.455,174.31L165.325,174.267L165.228,174.24L165.156,174.191L165.094,174.158L164.958,174.163L164.947,174.161L164.918,174.133L164.877,173.974L164.764,173.919L164.741,173.916L164.641,173.914L164.588,173.894L164.571,173.865L164.503,173.804L164.474,173.788L164.42,173.778L164.374,173.784L164.342,173.78L164.26,173.741L164.287,173.594L164.217,173.558L164.085,173.497L164.062,173.444L163.967,173.364L163.869,173.362L163.826,173.355L163.769,173.372L163.71,173.388L163.667,173.392L163.555,173.399L163.457,173.458L163.428,173.491L163.417,173.489L163.291,173.569L163.266,173.591L163.184,173.729L163.178,173.868L163.177,173.983L163.187,174.048L163.188,174.101L163.05,174.306L162.873,174.377L162.807,174.378L162.765,174.37L162.688,174.318L162.548,174.14L162.539,174.126C162.28,173.912 162.166,173.865 162.035,173.81L161.94,173.794L161.815,173.679L161.794,173.483L161.774,173.286L161.643,173.17L161.585,173.147L161.537,173.085L161.376,172.974L161.313,172.974L161.133,172.948L160.938,172.855L160.858,172.76L160.777,172.677L160.742,172.656L160.642,172.531L160.673,172.487L160.699,172.467L160.635,172.401L160.562,172.372L160.489,172.38L160.469,172.376L160.454,172.359L160.437,172.343L160.41,172.22L160.493,172.099L160.561,172.038L160.679,171.937L160.733,171.884L160.809,171.724L160.828,171.69L160.845,171.591L160.843,171.565L160.807,171.378L160.786,171.347L160.798,171.272L160.895,171.181L160.907,171.171L160.92,171.161L160.996,171.077L161.032,171.022L161.082,170.919L161.058,170.9L160.982,170.921L160.853,170.954L160.829,170.937L160.804,170.855L160.801,170.802L160.709,170.717L160.614,170.708L160.491,170.753L160.4,170.795L160.138,170.794L160.135,170.743L160.056,170.658L160.009,170.685L159.983,170.704L159.944,170.706L159.869,170.7L159.845,170.655L159.83,170.612L159.833,170.601L159.846,170.565L159.837,170.563L159.828,170.561L159.781,170.587L159.727,170.636L159.67,170.661L159.653,170.655L159.549,170.653L159.532,170.648L159.518,170.633L159.458,170.668L159.412,170.72L159.375,170.749L159.361,170.705L159.354,170.639L159.362,170.615L159.292,170.571L159.184,170.527L159.068,170.508L159.022,170.507L158.937,170.509L158.849,170.497L158.769,170.486L158.698,170.504L158.644,170.526L158.63,170.511L158.602,170.487L158.526,170.492L158.394,170.478L158.237,170.481L158.192,170.481L157.996,170.55L157.955,170.614L157.951,170.628L157.93,170.633L157.897,170.622L157.873,170.615L157.813,170.609L157.805,170.607L157.8,170.591L157.792,170.589L157.756,170.616L157.679,170.657L157.625,170.68L157.59,170.706L157.533,170.74L157.513,170.747L157.405,170.776L157.397,170.774L157.243,170.761L157.168,170.722L157.209,170.657L157.193,170.624L157.123,170.628L157.091,170.642L157.068,170.634L157.025,170.607L156.939,170.602L156.905,170.603L156.886,170.608L156.801,170.578L156.761,170.55L156.725,170.483L156.708,170.317L156.71,170.291L156.658,170.206L156.531,170.224L156.527,170.235L156.47,170.32L156.36,170.48L156.334,170.509L156.237,170.634L156.17,170.701L156.065,170.808L155.935,170.891L155.89,170.925L155.808,170.946L155.722,170.98L155.547,171.056L155.357,171.179L155.346,171.188L155.244,171.321L155.125,171.501L155.082,171.537L154.986,171.631L154.943,171.763L154.917,171.847L154.865,172.082L154.864,172.137L154.863,172.191L154.748,172.304L154.627,172.442L154.58,172.517L154.523,172.601L154.513,172.608L154.405,172.683L154.398,172.679L154.269,172.771L154.163,172.845L154.125,172.868L154.023,172.901L153.878,172.899L153.808,172.907L153.802,172.903L153.734,172.981L153.645,173.062L153.596,173.16L153.547,173.259L153.469,173.413L153.398,173.431L153.282,173.454L153.26,173.483L153.197,173.588L153.141,173.698L153.101,173.8L153.052,173.884L153.006,173.984L153.003,174.024L152.983,174.081L152.941,174.143L152.892,174.199L152.802,174.315L152.793,174.323L152.738,174.349L152.688,174.39L152.645,174.519L152.611,174.581L152.568,174.653L152.557,174.675L152.491,174.829L152.465,174.926L152.439,174.979L152.323,175.093L152.3,175.146L152.246,175.294L152.23,175.34L152.196,175.456L152.172,175.552L152.163,175.684L152.167,175.7L152.183,175.724L152.218,175.675L152.232,175.628L152.245,175.677L152.264,175.757L152.272,175.789L152.276,175.845L152.29,175.921L152.258,176.04L152.214,176.15L152.206,176.159L152.178,176.251L152.17,176.302L152.167,176.38L152.186,176.567L152.184,176.634L152.175,176.845L152.131,177.103L152.123,177.165L152.096,177.297L152.052,177.392L152.007,177.501L151.964,177.676L151.951,177.747L151.93,177.909L151.835,178.132L151.808,178.169L151.748,178.292L151.762,178.458L151.792,178.568L151.792,178.581L151.808,178.63L151.819,178.755L151.802,178.837L151.788,178.88L151.767,178.921L151.756,179.044L151.777,179.123L151.792,179.223L151.77,179.314L151.755,179.409L151.787,179.596L151.812,179.585L151.812,179.573L151.824,179.604L151.84,179.692L151.87,179.774L151.888,179.823L151.938,179.864L151.975,179.86L152,179.862L152.019,179.911L152.037,180.024L152.037,180.036L152.061,180.19L152.105,180.292L152.111,180.308L152.168,180.39L152.168,180.466L152.195,180.607L152.234,180.691L152.248,180.736L152.261,180.769L152.301,180.853L152.347,180.877L152.374,180.917L152.38,180.921L152.402,181.03L152.402,181.057L152.412,181.198L152.476,181.355L152.479,181.43L152.492,181.646L152.494,181.685L152.517,181.769L152.559,181.825L152.594,181.881L152.624,181.933L152.653,181.995L152.677,182.067L152.701,182.152L152.732,182.228L152.771,182.318L152.807,182.361L152.879,182.444L152.941,182.569L152.965,182.616L152.981,182.661L153.037,182.757L153.095,182.904L153.12,182.963L153.181,183.038L153.204,183.062L153.324,183.257L153.469,183.474L153.567,183.611L153.594,183.669L153.76,183.973L153.794,184.022L153.883,184.118L153.92,184.121C154.076,184.099 154.09,184.091 154.179,184.042L154.257,183.991L154.377,183.97L154.416,183.974L154.503,183.996L154.623,184.029L154.826,184.083L154.843,184.089L154.868,184.109L154.962,184.179L155.103,184.288L155.128,184.308L155.208,184.384L155.351,184.503L155.413,184.456L155.474,184.394L155.499,184.39L155.608,184.38L155.644,184.416L155.689,184.443L155.737,184.411L155.816,184.332L155.841,184.315L155.965,184.249L156.052,184.242L156.07,184.235L156.071,184.249L156.11,184.308L156.145,184.294L156.212,184.257L156.271,184.216L156.315,184.206L156.573,184.177L156.712,184.205L156.805,184.233L156.851,184.235L156.889,184.245L156.946,184.273L157.059,184.306L157.095,184.317L157.164,184.36L157.234,184.441L157.41,184.691L157.455,184.812L157.535,185.011L157.621,185.269L157.662,185.315L157.755,185.41L157.822,185.428L157.872,185.453L157.918,185.442L157.971,185.374L157.982,185.389L158.045,185.463L158.074,185.472L158.084,185.474L158.15,185.468L158.295,185.457L158.335,185.456L158.382,185.456L158.461,185.464L158.541,185.483L158.561,185.489L158.572,185.491L158.591,185.484L158.626,185.552L158.63,185.623L158.689,185.742L158.744,185.803L158.817,185.855L158.854,185.829L158.863,185.808L158.882,185.813L158.886,185.849L158.921,186.043L158.956,186.097L158.994,186.176L158.994,186.302L159.003,186.487L158.993,186.679L158.96,186.728L158.929,186.811L158.905,186.851L158.887,186.946L158.953,187.007L158.983,187.026L159.015,187.2L159.02,187.247L159.027,187.294L159.016,187.29L159.006,187.288L158.956,187.355L158.959,187.442L158.969,187.512L158.929,187.646L158.866,187.673L158.854,187.66L158.806,187.647L158.814,187.704L158.922,187.927L158.947,187.966L158.992,188.073L159.119,188.331L159.23,188.485L159.303,188.577L159.398,188.694L159.495,188.813L159.577,188.905L159.721,189.066L159.852,189.262L159.97,189.434L159.999,189.481L160.097,189.647L160.178,189.769L160.191,189.782L160.235,189.862L160.202,189.886L160.179,189.911L160.209,189.97L160.301,190.091L160.402,190.214L160.412,190.257L160.467,190.378L160.575,190.571L160.623,190.661L160.753,190.857L160.859,191.026L160.864,191.046L160.906,191.181L160.876,191.175L160.82,191.211L160.811,191.218L160.812,191.296L160.88,191.454L160.905,191.517L160.965,191.607L161.01,191.672L161.059,191.748L161.104,191.815L161.134,191.858L161.182,191.934L161.218,191.997L161.252,192.089L161.274,192.167L161.297,192.246L161.292,192.392L161.288,192.437L161.241,192.553L161.146,192.595L161.146,192.622L161.138,192.71L161.118,192.732L161.095,192.798L161.126,192.946L161.11,193.005L161.142,193.099L161.177,193.202L161.178,193.254L161.17,193.33L161.166,193.414L161.179,193.519L161.167,193.559L161.176,193.628L161.224,193.731L161.243,193.761L161.269,193.849L161.306,193.964L161.369,194.101L161.375,194.118L161.373,194.134L161.413,194.231L161.441,194.278L161.521,194.393L161.716,194.587L161.761,194.635L161.856,194.742L161.864,194.76L161.968,194.907L162.054,194.995L162.116,195.064L162.202,195.179L162.205,195.189L162.327,195.35L162.394,195.409L162.485,195.503L162.601,195.632L162.763,195.804L162.809,195.85L162.874,195.935L162.864,195.947L162.877,196.022L162.906,196.064C162.998,196.198 163.041,196.364 163.171,196.476L163.23,196.528L163.276,196.585L163.292,196.616L163.325,196.677L163.392,196.783L163.455,196.883L163.493,196.949L163.551,196.987L163.563,196.996L163.581,197.04L163.602,197.103L163.678,197.182L163.707,197.206L163.725,197.223L163.821,197.312L163.963,197.441L164.042,197.501L164.105,197.544L164.468,197.851L164.551,197.939L164.581,197.974L164.606,198.003L164.729,198.125L164.894,198.261L165.001,198.349L165.014,198.357L165.131,198.469L165.182,198.523L165.235,198.581L165.258,198.651L165.239,198.66C156.725,194.855 150.84,186.238 151.004,176.341C151.118,169.423 154.167,163.232 158.939,158.926L158.987,158.897L159.061,158.853L159.126,158.817L159.212,158.768L159.25,158.735L159.34,158.671L159.401,158.629L159.492,158.585L159.558,158.568L159.633,158.544L159.79,158.481L159.873,158.444L160.041,158.356L160.113,158.324L160.19,158.282L160.311,158.177L160.347,158.143L160.352,158.166L160.348,158.18L160.346,158.196L160.397,158.179L160.49,158.134L160.566,158.089L160.576,158.082L160.583,158.088L160.6,158.089L160.613,158.103L160.654,158.108L160.648,158.138L160.639,158.162L160.692,158.145L160.723,158.124L160.747,158.113L160.677,158.165L160.674,158.179L160.695,158.182L160.773,158.173L160.8,158.163L160.886,158.144L160.894,158.165L160.91,158.181L160.947,158.181L161.028,158.153L161.047,158.154L161.064,158.153L161.058,158.179L161.08,158.183L161.095,158.179L161.233,158.136L161.272,158.121L161.389,158.075L161.44,158.056L161.499,158.04L161.503,158.044L161.516,158.038L161.519,158.04L161.617,157.997C161.722,157.958 161.729,157.958 161.79,157.962L161.809,157.961L161.861,157.954L161.923,157.897L161.958,157.837L161.992,157.802L162.014,157.79L162.007,157.799L161.999,157.821L161.992,157.831L161.959,157.894L161.92,157.925L161.885,157.957L161.883,157.97L161.908,157.974L161.941,157.981L162.01,158.001L162.047,157.998L162.06,158.006L162.1,158.019L162.267,158.028L162.354,158.056L162.399,158.07L162.458,158.078L162.465,158.082L162.562,158.06L162.594,158.053L162.669,158.044L162.73,158.026L162.8,158.013L162.874,158.004L162.963,157.987L163.168,157.958L163.188,157.956L163.271,157.937L163.293,157.923L163.298,157.913L163.295,157.912L163.291,157.91L163.244,157.91L163.232,157.892L163.192,157.808L163.177,157.8L163.182,157.765L163.164,157.73L163.15,157.721L163.065,157.725L163.014,157.721L163.014,157.709L163.114,157.701L163.173,157.708L163.176,157.71L163.185,157.702L163.278,157.639L163.315,157.597L163.328,157.578L163.36,157.57L163.386,157.573L163.434,157.548L163.438,157.55L163.444,157.554L163.441,157.565L163.414,157.612L163.392,157.639L163.361,157.672L163.342,157.688L163.275,157.776L163.287,157.796L163.301,157.84L163.32,157.839L163.409,157.81L163.403,157.819L163.378,157.843L163.379,157.88L163.39,157.911L163.404,157.918L163.464,157.887L163.601,157.784L163.661,157.74L163.77,157.638L163.808,157.572L163.812,157.55L163.832,157.363L163.885,157.294L163.908,157.281L163.975,157.23L163.998,157.18L163.998,157.168L164.006,157.161L164.033,157.15L164.064,157.143L164.055,157.162L164.036,157.201L164.065,157.204L164.091,157.206L164.133,157.203L164.137,157.205L164.133,157.215L164.13,157.226L164.115,157.23L164.069,157.23L163.97,157.264L163.944,157.287L163.883,157.342L163.898,157.386L163.898,157.447L163.889,157.468L163.886,157.514L163.89,157.516L164.133,157.397L164.178,157.37L164.212,157.352L164.215,157.329L164.216,157.294L164.203,157.252L164.208,157.217L164.234,157.207L164.238,157.208L164.242,157.234L164.243,157.259L164.25,157.274L164.251,157.287L164.266,157.306L164.302,157.3L164.315,157.295L164.34,157.284L164.331,157.291L164.335,157.304L164.342,157.308L164.394,157.321L164.409,157.316L164.417,157.32L164.469,157.31L164.583,157.235L164.604,157.222L164.597,157.219L164.585,157.19L164.597,157.172L164.622,157.183L164.75,157.209L164.894,157.17L164.938,157.145L164.936,157.098L164.912,157.087L164.894,157.067L164.915,157.044L164.936,157.041L164.958,157.04L165.072,157.012L165.084,157.006L165.139,156.974L165.231,156.891L165.237,156.883L165.272,156.853L165.315,156.816L165.324,156.81L165.379,156.733L165.337,156.737L165.325,156.742L165.341,156.726L165.366,156.704L165.414,156.682L165.436,156.691L165.463,156.715L165.5,156.72L165.504,156.745L165.498,156.753L165.457,156.791L165.411,156.826L165.336,156.893L165.334,156.904L165.467,156.828L165.526,156.776L165.529,156.777L165.581,156.767L165.62,156.762L165.705,156.711L165.723,156.696L165.791,156.627L165.781,156.623L165.758,156.613L165.726,156.621L165.703,156.622L165.706,156.6L165.708,156.58L165.708,156.569L165.704,156.555L165.713,156.549L165.717,156.551L165.724,156.587L165.751,156.61L165.764,156.604L165.814,156.583L165.827,156.566L165.841,156.507L165.847,156.487L165.853,156.468L165.872,156.444L165.885,156.427L165.868,156.431L165.853,156.435L165.827,156.445L165.809,156.448L165.789,156.45L165.783,156.447L165.751,156.456L165.725,156.466L165.716,156.473L165.668,156.495L165.652,156.499L165.636,156.502L165.63,156.501L165.623,156.498L165.633,156.491L165.7,156.465L165.847,156.41L165.895,156.388L165.939,156.364L165.956,156.359L165.974,156.358L165.978,156.37L166.016,156.376L166.04,156.376L166.094,156.356L166.124,156.336L166.152,156.338L166.184,156.33L166.2,156.337L166.222,156.346L166.238,156.342L166.248,156.336L166.279,156.295L166.272,156.271L166.27,156.27L166.327,156.252L166.348,156.261L166.364,156.269L166.387,156.277L166.402,156.273L166.406,156.286L166.439,156.288L166.457,156.286L166.514,156.267L166.542,156.258L166.568,156.247L166.587,156.254L166.6,156.26L166.603,156.262L166.657,156.242L166.66,156.243L166.685,156.231L166.691,156.235L166.701,156.239L166.717,156.245L166.755,156.24L166.749,156.226L166.758,156.219L166.779,156.208L166.783,156.209L166.836,156.199L166.86,156.197L166.866,156.211L166.876,156.214L166.884,156.227L166.927,156.214L166.937,156.208L166.98,156.183L166.981,156.194L167.001,156.211L167.039,156.206L167.064,156.195L167.104,156.18L167.111,156.182L167.137,156.192L167.164,156.192L167.23,156.176L167.27,156.161L167.307,156.145L167.322,156.13L167.315,156.088L167.302,156.084L167.266,156.07L167.246,156.052L167.202,156.046L167.112,155.981L167.034,155.98L167.013,155.982L166.979,155.988L166.928,156L166.919,155.995L166.904,155.999L166.91,155.991L167.009,155.908L167.002,155.906L166.949,155.924L166.928,155.937L166.883,155.96L166.863,155.973L166.871,155.964L166.856,155.948L166.832,155.948L166.84,155.942L166.856,155.939L166.859,155.94L166.878,155.926L166.882,155.918L166.905,155.896L166.939,155.847L166.923,155.852L166.901,155.863L166.833,155.918L166.82,155.933L166.797,155.944L166.782,155.948L166.789,155.94L166.777,155.925L166.714,155.94L166.665,155.95L166.643,155.952L166.632,155.936L166.63,155.935L166.651,155.923L166.668,155.92L166.754,155.873L166.773,155.86L166.798,155.828L166.785,155.812L166.74,155.802L166.724,155.795L166.644,155.811L166.631,155.817L166.567,155.819L166.559,155.816L166.567,155.797L166.562,155.795L166.588,155.775L166.594,155.778L166.645,155.78L166.653,155.784L166.677,155.784L166.696,155.782L166.726,155.774L166.748,155.774L166.747,155.783L166.756,155.798L166.804,155.799L166.831,155.8L166.824,155.808L166.842,155.816L166.86,155.813L166.93,155.812L166.968,155.797L166.998,155.768L167.002,155.759L166.999,155.727L166.98,155.718L166.952,155.706L166.921,155.703L166.904,155.705L166.912,155.688L166.919,155.659L166.917,155.658L166.906,155.653L166.895,155.615L166.904,155.599L166.906,155.588L166.879,155.564L166.868,155.537L166.838,155.511L166.822,155.493L166.81,155.475L166.803,155.46L166.735,155.403L166.602,155.432L166.544,155.447L166.523,155.448L166.466,155.451L166.411,155.455L166.403,155.451L166.404,155.439L166.473,155.43L166.484,155.437L166.506,155.439L166.585,155.413L166.596,155.407L166.626,155.376L166.62,155.372L166.618,155.359L166.622,155.339L166.591,155.333L166.515,155.312L166.485,155.305L166.436,155.301L166.417,155.301L166.41,155.285L166.421,155.266L166.42,155.254L166.393,155.248L166.386,155.244L166.31,155.27L166.288,155.282L166.284,155.279L166.306,155.254L166.316,155.25L166.363,155.217L166.335,155.225L166.299,155.239L166.261,155.251L166.259,155.237L166.277,155.224L166.299,155.2L166.261,155.213L166.183,155.251L166.173,155.256L166.157,155.259L166.163,155.25L166.184,155.211L166.189,155.202L166.183,155.198L166.106,155.183L166.108,155.17L166.109,155.158L166.098,155.149L166.07,155.142L166.062,155.135L166.054,155.13L166.054,155.117L166.011,155.111L165.972,155.107L165.949,155.103L165.908,155.099L165.889,155.097L165.862,155.104L165.839,155.115L165.847,155.106L165.841,155.102L165.849,155.093L165.871,155.083L165.888,155.067L165.902,155.049L165.908,155.04L165.872,155.053L165.784,155.112L165.748,155.156L165.736,155.176L165.743,155.182L165.772,155.192L165.779,155.212L165.712,155.257L165.706,155.254L165.701,155.235L165.713,155.215L165.734,155.19L165.73,155.186L165.723,155.181L165.703,155.177L165.713,155.156L165.719,155.146L165.741,155.119L165.757,155.105L165.779,155.078L165.762,155.079L165.761,155.077L165.737,155.07L165.716,155.068L165.715,155.066L165.725,155.06L165.681,155.05L165.673,155.043L165.676,155.029L165.655,155.025L165.622,155.041L165.53,155.116L165.529,155.13L165.495,155.113L165.501,155.104L165.5,155.102L165.524,155.077L165.552,155.056L165.57,155.04L165.58,155.033L165.598,155.001L165.611,154.98L165.615,154.969L165.538,154.989L165.502,155.004L165.465,155.015L165.428,155.027L165.389,155.037L165.393,155.024L165.408,155.024L165.485,155.001L165.556,154.956L165.545,154.926L165.515,154.908L165.437,154.87L165.432,154.863L165.382,154.837L165.314,154.825L165.306,154.813L165.245,154.817C166.677,154.177 168.185,153.679 169.747,153.327L169.876,151.25C158.155,153.605 149.209,163.876 149.004,176.308C148.767,190.642 160.236,202.497 174.57,202.733C187.299,202.944 198.066,193.921 200.485,181.861L198.42,181.989Z" style="fill:rgb(77,78,78);fill-rule:nonzero;"/>
    </g>
    <g transform="matrix(4.16667,0,0,4.16667,-620.835,-628.071)">
        <path d="M196.473,169.751L196.473,169.736L196.508,169.712L196.506,169.597L196.483,169.495L196.446,169.403L196.44,169.392L196.336,169.196L196.282,169.132L196.254,169.106L196.084,168.867L195.938,168.714L195.829,168.622L195.809,168.606L195.691,168.508L195.248,168.952L195.254,168.978L195.275,168.995L195.29,169.001L195.31,169.004L195.34,169.03L195.36,169.047L195.365,169.044L195.379,169.05L195.38,169.007L195.366,168.944L195.37,168.956L195.401,168.968L195.405,168.964L195.43,168.95L195.459,168.905L195.456,168.866L195.475,168.896L195.518,168.956L195.558,168.948L195.586,168.931L195.64,168.985L195.661,169.074L195.67,169.111L195.666,169.172L195.67,169.197L195.694,169.269L195.729,169.277L195.795,169.295L195.811,169.315L195.877,169.433L195.896,169.465L195.977,169.546L195.995,169.548L196,169.546L196.004,169.558L196.032,169.685L196.073,169.789L196.087,169.823L196.096,169.847L196.114,169.921L196.21,170.065L196.278,170.181L196.282,170.206L196.295,170.257L196.313,170.259L196.344,170.153L196.377,170.148L196.383,170.071L196.362,169.985L196.37,169.993L196.424,170.046L196.428,170.028L196.417,169.979L196.398,169.888L196.407,169.898L196.438,169.92L196.444,169.903L196.443,169.829L196.442,169.8L196.465,169.786L196.473,169.751Z" style="fill:rgb(77,78,78);fill-rule:nonzero;"/>
    </g>
    <g transform="matrix(4.16667,0,0,4.16667,-620.835,-628.071)">
        <path d="M176.605,152.809C179.5,153.002 182.252,153.702 184.773,154.833L184.918,154.497L184.842,154.42L185.033,154.229L185.568,152.983C182.464,151.598 179.039,150.8 175.431,150.741C175.174,150.736 174.921,150.744 174.667,150.748L176.605,152.809Z" style="fill:rgb(77,78,78);fill-rule:nonzero;"/>
    </g>
    <g transform="matrix(4.16667,0,0,4.16667,-620.835,-628.071)">
        <path d="M184.633,160.226C184.837,160.358 185.042,160.493 185.25,160.64C186.321,161.399 187.383,162.303 188.408,163.329C189.433,164.352 190.337,165.415 191.096,166.486C191.244,166.694 191.379,166.899 191.511,167.103L196.673,164.886L186.851,155.064L184.633,160.226Z" style="fill:rgb(77,78,78);fill-rule:nonzero;"/>
    </g>
</svg>
