<?xml version="1.0" encoding="UTF-8" standalone="no"?>
<!DOCTYPE svg PUBLIC "-//W3C//DTD SVG 1.1//EN" "http://www.w3.org/Graphics/SVG/1.1/DTD/svg11.dtd">
<svg width="100%" height="100%" viewBox="0 0 212 212" version="1.1" xmlns="http://www.w3.org/2000/svg" xmlns:xlink="http://www.w3.org/1999/xlink" xml:space="preserve" xmlns:serif="http://www.serif.com/" style="fill-rule:evenodd;clip-rule:evenodd;stroke-linejoin:round;stroke-miterlimit:1.41421;">
    <g transform="matrix(4.16667,0,0,4.16667,-1040.27,-633.611)">
        <path d="M295.83,178.426C295.557,183.486 293.494,188.075 290.252,191.562C289.982,191.38 289.701,191.222 289.428,191.052C289.016,191.541 288.531,191.963 287.992,192.308C288.305,192.494 288.623,192.668 288.93,192.868C285.838,195.658 281.912,197.538 277.576,198.093C278.76,197.082 279.838,195.968 280.822,194.787C280.416,195.109 280.008,195.437 279.604,195.743C277.59,197.28 275.383,198.707 273.045,200.009C273.654,200.058 274.271,200.09 274.893,200.09C287.463,200.09 297.691,189.863 297.691,177.294C297.691,176.668 297.658,176.051 297.609,175.438C297.041,176.458 296.449,177.456 295.83,178.426Z" style="fill:rgb(77,78,78);fill-rule:nonzero;"/>
    </g>
    <g transform="matrix(4.16667,0,0,4.16667,-1040.27,-633.611)">
        <path d="M262.727,178.203C262.85,181.878 263.703,185.443 265.205,188.707C263.246,189.459 261.372,190.441 259.613,191.643C256.277,188.094 254.162,183.391 253.939,178.203L262.727,178.203ZM259.525,163.037C261.293,164.253 263.172,165.247 265.141,166.008C263.678,169.237 262.848,172.757 262.727,176.384L253.939,176.384C254.16,171.241 256.239,166.574 259.525,163.037ZM272.326,156.479C269.707,158.711 267.553,161.392 265.955,164.372C264.168,163.694 262.455,162.812 260.842,161.732C263.965,158.91 267.938,157.017 272.326,156.479ZM273.984,165.993C271.834,165.91 269.732,165.565 267.709,164.964C269.283,162.111 271.4,159.556 273.984,157.462L273.984,165.993ZM273.984,176.384L264.547,176.384C264.668,172.965 265.469,169.651 266.867,166.616C269.156,167.326 271.543,167.724 273.984,167.812L273.984,176.384ZM273.984,186.927C271.566,187.014 269.201,187.406 266.934,188.104C265.496,185.033 264.67,181.672 264.547,178.203L273.984,178.203L273.984,186.927ZM275.803,167.82C278.281,167.748 280.705,167.355 283.029,166.642C284.422,169.669 285.217,172.975 285.34,176.384L275.803,176.384L275.803,167.82ZM275.803,157.38C278.438,159.496 280.594,162.089 282.189,164.988C280.131,165.592 277.99,165.933 275.803,166.001L275.803,157.38ZM289.027,161.807C287.424,162.868 285.723,163.735 283.945,164.401C282.35,161.417 280.195,158.731 277.576,156.494C281.957,157.056 285.92,158.968 289.027,161.807ZM264.242,197.44C264.949,197.155 265.676,196.838 266.43,196.472C264.416,195.581 262.563,194.389 260.941,192.941C262.547,191.877 264.25,191.009 266.027,190.342C266.926,191.997 268.014,193.545 269.24,194.987C269.752,194.691 270.275,194.375 270.811,194.035C269.658,192.707 268.635,191.279 267.781,189.754C269.783,189.166 271.861,188.828 273.984,188.747L273.984,191.865C274.531,191.466 275.096,191.047 275.684,190.598L275.803,190.502L275.803,188.738C276.471,188.759 277.129,188.815 277.787,188.885C278.025,188.685 278.262,188.468 278.498,188.262C278.426,187.896 278.387,187.518 278.381,187.131C277.529,187.026 276.67,186.944 275.803,186.919L275.803,178.203L285.34,178.203C285.309,179.077 285.217,179.94 285.098,180.798C285.361,180.817 285.621,180.848 285.875,180.899C286.289,180.425 286.693,179.951 287.086,179.474C287.119,179.052 287.145,178.628 287.158,178.203L288.104,178.203L288.203,178.079C288.652,177.492 289.068,176.933 289.467,176.384L287.158,176.384C287.039,172.769 286.215,169.26 284.76,166.04C286.713,165.291 288.582,164.314 290.34,163.117C291.881,164.794 293.141,166.726 294.072,168.835C294.439,168.079 294.758,167.354 295.043,166.647C291.213,159.427 283.619,154.497 274.893,154.497C262.324,154.497 252.098,164.724 252.098,177.294C252.098,186.017 257.025,193.609 264.242,197.44Z" style="fill:rgb(77,78,78);fill-rule:nonzero;"/>
    </g>
    <g transform="matrix(4.16667,0,0,4.16667,-1040.27,-633.611)">
        <path d="M281.113,192.204C280.316,191.659 279.652,190.934 279.178,190.088C278.394,190.756 277.602,191.413 276.787,192.043C274.404,193.865 271.982,195.56 269.494,196.936C267.01,198.308 264.502,199.442 262.036,200.134C259.586,200.809 257.143,201.062 255.113,200.495C254.606,200.36 254.145,200.15 253.703,199.922C253.502,199.784 253.285,199.665 253.094,199.518C252.936,199.372 252.666,199.199 252.59,199.087C252.258,198.69 251.816,198.302 251.662,197.929C251.551,197.742 251.441,197.558 251.332,197.376C251.225,197.19 251.168,196.961 251.084,196.76C251.006,196.551 250.93,196.347 250.854,196.146C250.797,195.938 250.766,195.724 250.721,195.518C250.641,195.104 250.535,194.706 250.527,194.306C250.5,193.909 250.461,193.527 250.447,193.16C250.461,192.79 250.473,192.438 250.486,192.104C250.572,190.767 250.725,189.701 250.887,188.992C251.033,188.274 251.111,187.892 251.111,187.892C251.111,187.892 250.98,188.26 250.734,188.95C250.613,189.297 250.441,189.72 250.32,190.241C250.195,190.76 249.982,191.347 249.906,192.039C249.854,192.383 249.797,192.746 249.738,193.126C249.705,193.511 249.699,193.918 249.68,194.343C249.637,194.769 249.699,195.213 249.746,195.677C249.773,195.908 249.787,196.146 249.83,196.385C249.893,196.622 249.953,196.863 250.019,197.108C250.094,197.353 250.131,197.606 250.242,197.857C250.361,198.109 250.482,198.365 250.605,198.625C250.842,199.198 251.186,199.528 251.492,199.981C252.311,200.979 253.359,201.637 254.586,202.092C257.032,202.985 259.842,202.863 262.562,202.258C265.299,201.649 268.047,200.597 270.711,199.211C273.375,197.827 276.014,196.195 278.506,194.292C279.385,193.627 280.254,192.923 281.113,192.204Z" style="fill:rgb(77,78,78);fill-rule:nonzero;"/>
    </g>
    <g transform="matrix(4.16667,0,0,4.16667,-1040.27,-633.611)">
        <path d="M299.691,156.989C299.477,156.38 299.172,155.815 298.84,155.287C298.646,155.03 298.443,154.743 298.25,154.532L297.967,154.239L297.824,154.095C297.717,153.989 297.693,153.988 297.621,153.93C297.137,153.589 296.715,153.183 296.193,152.988C295.943,152.871 295.699,152.756 295.457,152.644C295.215,152.536 294.957,152.495 294.713,152.422C294.469,152.357 294.229,152.294 293.992,152.232C293.752,152.189 293.514,152.176 293.283,152.148C292.818,152.101 292.375,152.039 291.949,152.08C291.523,152.1 291.117,152.107 290.732,152.138C290.352,152.197 289.988,152.252 289.645,152.306C288.955,152.381 288.361,152.595 287.844,152.718C287.318,152.841 286.902,153.01 286.557,153.131C285.865,153.377 285.498,153.508 285.498,153.508C285.498,153.508 285.881,153.43 286.598,153.283C287.314,153.118 288.375,152.969 289.709,152.881C290.043,152.87 290.396,152.856 290.766,152.843C291.133,152.857 291.516,152.897 291.912,152.924C292.311,152.93 292.709,153.039 293.123,153.118C293.33,153.163 293.543,153.193 293.752,153.252C293.953,153.327 294.158,153.404 294.367,153.482C296.016,154.092 297.576,155.459 298.102,157.515C298.67,159.545 298.412,161.989 297.736,164.441C297.047,166.907 295.91,169.412 294.537,171.898C293.16,174.386 291.469,176.811 289.643,179.191C289.02,179.997 288.363,180.791 287.691,181.577C288.535,182.052 289.26,182.714 289.805,183.51C290.518,182.656 291.219,181.793 291.889,180.908C293.787,178.413 295.424,175.776 296.807,173.112C298.193,170.448 299.242,167.699 299.854,164.964C300.461,162.246 300.582,159.438 299.691,156.989Z" style="fill:rgb(77,78,78);fill-rule:nonzero;"/>
    </g>
    <g transform="matrix(4.16667,0,0,4.16667,-1040.27,-633.611)">
        <path d="M280.195,187.033C280.195,189.485 282.184,191.473 284.635,191.473C287.088,191.473 289.074,189.485 289.074,187.033C289.074,184.582 287.088,182.593 284.635,182.593C282.184,182.593 280.195,184.582 280.195,187.033Z" style="fill:rgb(77,78,78);fill-rule:nonzero;"/>
    </g>
</svg>
