<?xml version="1.0" encoding="UTF-8" standalone="no"?>
<!DOCTYPE svg PUBLIC "-//W3C//DTD SVG 1.1//EN" "http://www.w3.org/Graphics/SVG/1.1/DTD/svg11.dtd">
<svg width="100%" height="100%" viewBox="0 0 196 215" version="1.1" xmlns="http://www.w3.org/2000/svg" xmlns:xlink="http://www.w3.org/1999/xlink" xml:space="preserve" xmlns:serif="http://www.serif.com/" style="fill-rule:evenodd;clip-rule:evenodd;stroke-linejoin:round;stroke-miterlimit:1.41421;">
    <g transform="matrix(4.16667,0,0,4.16667,-214.641,-1056.23)">
        <path d="M97.755,263.506C96.248,260.898 92.912,260.005 90.305,261.511C87.696,263.015 86.803,266.351 88.308,268.96C89.814,271.567 93.15,272.463 95.757,270.956C98.367,269.451 99.261,266.115 97.755,263.506Z" style="fill:rgb(77,78,78);fill-rule:nonzero;"/>
    </g>
    <g transform="matrix(4.16667,0,0,4.16667,-214.641,-1056.23)">
        <path d="M93.37,273.484C95.037,280.959 92.414,288.528 86.256,292.083C78.398,296.62 67.742,292.931 62.505,283.858C57.266,274.785 59.398,263.712 67.258,259.175C73.414,255.622 81.276,257.134 86.915,262.311C87.322,261.673 87.835,261.097 88.441,260.604C81.095,253.362 70.3,251.249 61.81,256.151C51.381,262.171 48.377,276.489 55.101,288.134C61.822,299.776 75.725,304.334 86.151,298.314C94.645,293.411 98.21,283.004 95.611,273.022C94.895,273.294 94.139,273.449 93.37,273.484Z" style="fill:rgb(77,78,78);fill-rule:nonzero;"/>
    </g>
    <g transform="matrix(4.16667,0,0,4.16667,-214.641,-1056.23)">
        <path d="M76.139,302.789C68.279,302.789 60.717,298.816 55.654,292.221C54.37,294.087 53.625,296.071 53.625,297.909C53.625,303.784 60.314,304.982 70.254,304.982C78.713,304.982 84.798,304.104 86.431,300.226C83.295,301.898 79.756,302.789 76.14,302.789L76.139,302.789Z" style="fill:rgb(77,78,78);fill-rule:nonzero;"/>
    </g>
    <g transform="matrix(4.16667,0,0,4.16667,-214.641,-1056.23)">
        <path d="M75.762,271.125C73.941,272.175 73.447,274.739 74.66,276.841C75.873,278.94 78.34,279.794 80.16,278.743C80.917,278.307 80.606,277.608 88.58,271.978C87.844,271.408 87.211,270.698 86.732,269.87C86.246,269.027 85.951,268.126 85.829,267.217C76.968,271.306 76.518,270.687 75.762,271.125Z" style="fill:rgb(77,78,78);fill-rule:nonzero;"/>
    </g>
</svg>
