<svg xmlns="http://www.w3.org/2000/svg" xml:space="preserve" stroke-linejoin="round" stroke-miterlimit="2" viewBox="0 0 360 400">
  <path fill="#c6c5c5" d="m126.5308 363.5082 108.2898.0186c10.0715.0011 18.2376 8.1649 18.2352 18.2364l-126.5284-.0186.0034-18.2364Z"/>
  <path fill="#a3a3a3" d="m126.5274 381.7446 126.5284.0186c-.0034 10.075-8.1719 18.2398-18.2433 18.2375l-108.2886-.0186.0035-18.2375Z"/>
  <path fill="#c6c5c5" d="m126.5239 399.9821-108.2898-.0185c-10.0715-.0012-18.2375-8.1661-18.234-18.241l126.5273.022-.0035 18.2375Z"/>
  <path fill="#fff" d="M126.5274 381.7446 0 381.7226c.0024-10.0715 8.1708-18.2365 18.2422-18.2342l108.2886.0198-.0034 18.2364Z"/>
  <path fill="#f04f4e" d="M46.1333 319.5834c.0046-44.4101 36.013-80.4022 80.4173-80.3964l-.0128 80.408-80.4045-.0116Z"/>
  <path fill="#a83935" d="M126.5506 239.187c44.4078.0081 80.3987 36.0118 80.394 80.4208l-80.4068-.0128.0128-80.408ZM335.4087 32.2168l-4.2473-4.1498-35.6589 36.5053 4.2474 4.151 35.6588-36.5065ZM242.931 118.3955l91.7404 89.6064c6.637 6.4813 6.7588 17.116.2787 23.7493L231.1968 130.4095l11.7342-12.014Z"/>
  <path fill="#7f2d2d" d="M231.1968 130.4095 334.95 231.7512c-6.4813 6.637-17.1136 6.7635-23.7505.2822l-91.7382-89.6098 11.7354-12.014Z"/>
  <path fill="#a83935" d="M352.9543 5.7551c7.986 7.8015 8.137 20.598.3378 28.5889-7.8015 7.986-20.6015 8.1347-28.5876.3332L352.9543 5.755Z"/>
  <path fill="#c6c5c5" d="M192.0627 262.2362c-24.7432 25.333-65.3403 25.8114-90.6722 1.067l44.8049-45.8708 45.8673 44.8038ZM306.706 53.1052c12.6655 12.374 12.9035 32.6713.533 45.3378l-22.9365-22.4024 22.4036-22.9354ZM218.3073 235.3716l-45.872-44.8026 47.0261-48.1454 91.7382 89.6098-92.8923 3.3382ZM295.9925 109.9566l-22.9354-22.4025-30.1261 30.8414 51.8795 50.672 1.182-59.1109Z"/>
  <path fill="#a83935" d="m159.3148 203.9984 45.8708 44.8049 13.1217-13.4317-45.872-44.8026-13.1205 13.4294Z"/>
  <path fill="#7f2d2d" d="m146.1954 217.4324 45.8673 44.8038 13.1229-13.433-45.8708-44.8048-13.1194 13.434Z"/>
  <path fill="#a83935" d="M284.3025 76.0406 307.239 98.443l-11.2465 11.5136-22.9354-22.4025 11.2454-11.5135Z"/>
  <path fill="#f04f4e" d="m326.914 23.9172 4.2474 4.1498-35.6589 36.5053-4.2473-4.1498 35.6588-36.5053ZM242.931 118.3955 151.1928 28.787c-6.6369-6.4813-17.2692-6.3548-23.7493.2786l103.7533 101.344 11.7342-12.014Z"/>
  <path fill="#a83935" d="M231.1968 130.4095 127.4435 29.0655c-6.4802 6.637-6.3571 17.268.2775 23.7529l91.7404 89.6052 11.7354-12.014Z"/>
  <path fill="#f04f4e" d="M352.9543 5.7551c-7.9862-7.8015-20.7862-7.6529-28.5877.3344-7.8004 7.9861-7.6483 20.7874.3379 28.5877L352.9543 5.755Z"/>
  <path fill="#fff" d="M100.327 172.631c-24.7468 25.332-24.2708 65.9313 1.0635 90.6722l44.8049-45.8708-45.8685-44.8014ZM306.706 53.1052c-12.6665-12.3705-32.965-12.1325-45.3378.533l22.9343 22.4024 22.4036-22.9354ZM126.5645 145.764l45.8708 44.805 47.0261-48.1454-91.7404-89.6052-1.1565 92.9457ZM250.1217 65.1517l22.9354 22.4024-30.1261 30.8414-51.875-50.6696 59.0657-2.5742Z"/>
  <path fill="#f04f4e" d="M159.3148 203.9984 113.445 159.198l13.1194-13.434 45.8708 44.8049-13.1205 13.4294Z"/>
  <path fill="#a83935" d="m146.1954 217.4324-45.8685-44.8014 13.1182-13.4329 45.8697 44.8003-13.1194 13.434Z"/>
  <path fill="#f04f4e" d="M284.3025 76.0406 261.3682 53.638l-11.2465 11.5136 22.9354 22.4024 11.2454-11.5135Z"/>
  <path fill="#7f2d2d" d="m126.5308 363.5082 80.4046.0104.0093-43.9108-80.4069-.0128-.007 43.9132Z"/>
  <path fill="#a83935" d="m46.124 363.4954 80.4068.0128.007-43.9132-80.4045-.0116-.0093 43.912Z"/>
  <path fill="#fff" d="M184.1196 350.3412c.0011 3.7527 3.0432 6.796 6.7948 6.7948 3.7539 0 6.7948-3.0386 6.7995-6.7936-.0012-3.7527-3.0433-6.7949-6.796-6.7949-3.7527.0012-6.7948 3.0422-6.7983 6.7937ZM159.9395 350.3377c.0011 3.7527 3.042 6.7948 6.796 6.7948 3.7503.0024 6.7936-3.0398 6.7936-6.7925.0023-3.7515-3.0386-6.7971-6.7913-6.7971-3.7562 0-6.7983 3.0421-6.7983 6.7948ZM135.7593 350.333c.0012 3.7528 3.0398 6.7937 6.7902 6.7972 3.7562 0 6.7995-3.0421 6.7995-6.7948-.0012-3.7527-3.0433-6.7948-6.7948-6.7983-3.7527.0012-6.7949 3.0433-6.7949 6.796ZM103.7174 350.3261c-.0012 3.7562 3.0409 6.7995 6.7936 6.7983 3.7527 0 6.796-3.0421 6.7948-6.7948.0035-3.7516-3.042-6.796-6.7948-6.7948-3.7515-.0035-6.796 3.042-6.7936 6.7913ZM79.536 350.325c-.0034 3.7515 3.0387 6.7948 6.7949 6.7948 3.7515.0034 6.796-3.0421 6.7948-6.7949 0-3.7527-3.0421-6.7948-6.7948-6.7948-3.7527.0012-6.796 3.0421-6.7948 6.7948ZM55.3525 350.3203c0 3.7527 3.042 6.7948 6.7948 6.7948 3.7515.0023 6.7948-3.0398 6.7971-6.7913 0-3.7527-3.041-6.7983-6.7936-6.7983-3.7527.0011-6.796 3.0433-6.7983 6.7948ZM330.7736 14.1012c0 4.9649 4.0255 8.9904 8.9905 8.9916 4.9637.0012 8.9893-4.0256 8.9904-8.9893.0012-4.965-4.0244-8.9905-8.9893-8.9917-4.9649-.0011-8.9893 4.0221-8.9916 8.9894Z"/>
</svg>
