<?xml version="1.0" standalone="no"?>
<!DOCTYPE svg PUBLIC "-//W3C//DTD SVG 20010904//EN"
 "http://www.w3.org/TR/2001/REC-SVG-20010904/DTD/svg10.dtd">
<svg version="1.0" xmlns="http://www.w3.org/2000/svg"
 width="700.000000pt" height="700.000000pt" viewBox="0 0 700.000000 700.000000"
 preserveAspectRatio="xMidYMid meet">
<metadata>
Created by potrace 1.11, written by Peter Selinger 2001-2013
</metadata>
<g transform="translate(0.000000,700.000000) scale(0.100000,-0.100000)"
fill="#000000" stroke="none">
<path d="M3454 5910 c-17 -4 -36 -10 -42 -14 -35 -21 -149 -265 -210 -451 -45
-136 -118 -404 -128 -475 -3 -19 -7 -42 -9 -50 -2 -8 -7 -28 -10 -45 -2 -16
-7 -39 -9 -50 -2 -11 -9 -65 -16 -120 -17 -147 -22 -162 -32 -91 -14 103 -105
266 -148 266 -29 0 -115 -116 -123 -165 -1 -11 -6 -26 -10 -32 -5 -7 -11 -23
-14 -35 -4 -13 -7 -415 -8 -893 l-2 -870 -22 -43 c-62 -121 -122 -307 -136
-422 -22 -175 -21 -319 1 -366 19 -40 77 -73 127 -74 31 0 28 14 29 -173 1
-108 3 -119 20 -126 11 -4 19 -10 19 -14 -3 -30 1 -47 12 -47 9 0 12 -46 11
-201 l0 -200 -44 -38 c-42 -36 -45 -42 -46 -91 -2 -48 -5 -55 -31 -68 -83 -43
-132 -128 -127 -222 4 -58 3 -61 -23 -72 -100 -43 -233 -160 -305 -268 -27
-41 -52 -77 -53 -79 -2 -1 -27 5 -54 14 -107 35 -243 22 -344 -32 -58 -32
-133 -112 -165 -176 -23 -47 -53 -165 -45 -179 2 -5 896 -8 1987 -8 l1983 0
-8 49 c-18 118 -68 206 -156 277 -114 93 -258 113 -429 59 -17 -5 -26 4 -57
53 -70 113 -186 221 -299 278 l-48 24 4 60 c5 94 -44 179 -129 223 -27 14 -29
18 -26 62 2 45 0 49 -45 92 l-48 44 0 200 c-1 146 2 199 11 199 6 0 14 13 18
30 4 16 13 30 21 30 11 0 14 27 14 150 l0 150 28 0 c52 1 111 36 129 77 16 38
19 149 8 258 -3 28 -7 75 -10 105 -11 104 -55 245 -120 387 l-35 75 -1 862
c-1 928 0 909 -54 1015 -29 59 -81 121 -101 121 -34 0 -100 -96 -134 -196 -11
-32 -20 -60 -20 -61 0 -2 -1 -22 -1 -45 -1 -31 -5 -18 -15 47 -7 50 -15 108
-17 130 -11 98 -63 331 -117 525 -76 273 -202 567 -262 613 -26 19 -88 27
-134 17z m-418 -4005 c1 -10 4 -41 5 -69 3 -70 13 -85 59 -92 33 -5 40 -10 40
-30 0 -12 6 -26 12 -30 7 -5 75 -9 151 -9 l138 -1 19 -31 c30 -49 40 -50 78
-7 l33 39 142 0 142 0 5 30 c4 24 11 30 40 36 45 10 60 32 60 93 0 63 9 96 25
96 9 0 12 -27 13 -97 1 -148 1 -153 15 -153 7 0 14 -10 14 -22 1 -13 9 -27 16
-33 12 -8 14 -49 14 -213 l-1 -202 -33 -20 c-40 -23 -62 -69 -58 -120 3 -32
-1 -38 -28 -50 -82 -36 -133 -127 -126 -229 4 -50 3 -51 -31 -67 -77 -36 -221
-154 -265 -218 l-15 -20 -16 22 c-46 66 -194 185 -277 223 -19 8 -26 18 -22
29 10 30 8 84 -4 127 -13 48 -86 129 -126 139 -23 6 -25 10 -19 39 8 45 -18
101 -59 125 l-34 20 -1 199 c0 162 2 202 14 212 8 6 14 17 14 25 0 7 8 20 17
30 14 14 18 38 19 128 1 61 2 115 3 119 2 16 24 1 27 -18z"/>
</g>
</svg>
